<?xml version="1.0" encoding="utf-8"?>
<!-- Generator: Adobe Illustrator 26.0.3, SVG Export Plug-In . SVG Version: 6.00 Build 0)  -->
<svg version="1.1" id="Calque_1" xmlns="http://www.w3.org/2000/svg" xmlns:xlink="http://www.w3.org/1999/xlink" x="0px" y="0px"
	 viewBox="0 0 24 23.9" style="enable-background:new 0 0 24 23.9;" xml:space="preserve">
<style type="text/css">
	.st0{fill:#F921C6;}
	.st1{fill-rule:evenodd;clip-rule:evenodd;fill:#FFFFFF;}
</style>
<path class="st0" d="M8.4,7C6.9,7.1,5.2,7.3,4,7.3c-2.8,0-4,1.3-4,3.2s1.2,3.6,4,3.6c0.4,0,0.8-0.1,1.1-0.2C8,13.1,12,9.7,12,8
	C12,7,10.4,6.9,8.4,7z M20,7.3c-1.2,0-2.9-0.2-4.4-0.3C13.6,6.9,12,7,12,8c0,1.6,4,5,6.9,5.9c0.4,0.1,0.8,0.2,1.1,0.2
	c2.8,0,4-1.7,4-3.6S22.8,7.3,20,7.3z"/>
<path class="st1" d="M15.4,7.5c0.1-0.2,0.1-0.3,0.2-0.5c0.2-0.5,0.3-1.1,0.3-1.7c0.1-0.8-0.2-1.6-0.9-2.1c0.7-0.4,1.4-0.8,2-1.4
	c0.5-0.4,0.6-1.1,0.3-1.7c-0.5-0.4-1.3-0.3-1.7,0.2C14.9,1.2,14.4,2,14,2.9c-0.7-0.1-1.4-0.2-2-0.1c-0.7,0-1.3,0-2,0.1
	C9.6,2,9.1,1.2,8.4,0.5C8.1,0,7.3-0.1,6.8,0.2C6.4,0.8,6.5,1.5,7,1.9c0.6,0.5,1.3,1,2,1.4C8.4,3.8,8,4.6,8.1,5.3
	c0,0.6,0.1,1.1,0.3,1.7c0,0.2,0.1,0.3,0.2,0.5C6.3,8.4,4.9,10.6,5,13c0,0.3,0,0.6,0,0.9c0.1,0.5,0.1,1,0.3,1.4l0,0L6,15h11.9
	c0.2,0.1,0.5,0.2,0.7,0.3l0,0c0.1-0.5,0.2-0.9,0.3-1.4c0-0.3,0-0.6,0-0.9C19.1,10.6,17.6,8.4,15.4,7.5z M9.7,12.3
	c0.8-0.8,1.6-1.7,2.1-2.7h0.4c0.5,1,1.2,1.9,2.1,2.7H9.7z M6.3,17.7c0.5,1,1.3,2,2.2,2.7h7c0.9-0.8,1.6-1.7,2.2-2.7L6.3,17.7z
	 M12,21.9c-0.2,0-0.4,0-0.7,0v0c0,1.1,0.3,2,0.7,2s0.7-0.9,0.7-2v0C12.4,21.8,12.2,21.9,12,21.9z"/>
</svg>
