<svg width="291" height="248" fill="none" xmlns="http://www.w3.org/2000/svg"><path d="M6.968 83.536c-.128 0-.224-.032-.288-.096l-.384-.192h-.768a4.45 4.45 0 0 1-.864-.096c-.064-.064-.096-.224-.096-.48 0 .128.032.032.096-.288.064-.32.16-.864.288-1.632v-.384c0-.32-.032-.576-.096-.768l-.288-.864.192-.384.192-.48c-.064-.128-.096-.416-.096-.864l.192-.48v-.768l.288-.96-.672-.384.48-1.056-.288-.576c.128-.32.32-.608.576-.864v-.096c-.32-.256-.672-.64-1.056-1.152l.096-1.152c.192-.192.32-.352.384-.48 0-.384-.032-.64-.096-.768l-.288-.576c0-.128.096-.384.288-.768.192-.32.288-.576.288-.768l-.48-.768a1.511 1.511 0 0 1-.384-.576v-1.632c.128-.064.288-.192.48-.384-.128-.256-.352-.512-.672-.768.128-.128.192-.32.192-.576a2.82 2.82 0 0 0-.096-.672 3.752 3.752 0 0 0-.288-.768c.64-.384 1.088-.512 1.344-.384l.288-.096.096-.192v-.096c0-.256-.192-.512-.576-.768h-.864c0-.064-.032-.096-.096-.096v-.192c0-.256.096-.576.288-.96l-.096-.672c-.064-.064-.096-.544-.096-1.44v-1.056c0-.384-.032-.8-.096-1.248.384 0 .64-.064.768-.192-.128-.064-.256-.32-.384-.768v-.192c0-.192-.128-.448-.384-.768V49.36h.192c.192 0 .416-.064.672-.192.32-.192.48-.32.48-.384 0-.32-.576-.416-1.728-.288.32-.512.416-.896.288-1.152l-.288-.576c0-.192.128-.384.384-.576l.192-.48v-.384l-.672-2.592c0-.384.288-.896.864-1.536 0-.128-.064-.256-.192-.384.32-.128.544-.256.672-.384v-.192c-.256-.128-.48-.192-.672-.192-.384-.576-.576-.992-.576-1.248 0-.128.064-.256.192-.384.064-.064.096-.192.096-.384l-.096-2.4c-.192-.128-.352-.384-.48-.768l.48-1.152c-.128-1.664-.256-2.944-.384-3.84a41.653 41.653 0 0 1-.096-1.728c0-.192-.064-.544-.192-1.056l-.192-.768.096-.672c.128-.128.32-.224.576-.288h.672c0-.064.128-.128.384-.192.128 0 .256.352.384 1.056 0 .32.16.48.48.48.384 0 .512-.384.384-1.152l1.344-.288c.192.192.48.384.864.576.32 0 .48-.16.48-.48v-.288l.768-.096.576.192h1.344v-.096.192c0 .384.224.672.672.864h.48c.128.192.288.352.48.48h.288c.064 0 .096-.064.096-.192a2.957 2.957 0 0 1-.48-1.152v-.384l.192-.192c.256.128.416.288.48.48l.96-.384c.192 0 .416.032.672.096l.96.096.288 1.056c.32.256.672.64 1.056 1.152-.064-.064-.128.192-.192.768-.192.064-.288.224-.288.48 0 .128.032.352.096.672.064.32.16.704.288 1.152l.48.96v.48c.32.832.48 1.92.48 3.264 0 1.088.224 1.824.672 2.208 0 .512.224 1.568.672 3.168l.48.96c-.256.384-.48.96-.672 1.728.064.128.096.288.096.48v.48c.064.256.096.512.096.768.064.192.096.384.096.576v.576c.064.192.192.384.384.576.32.384.512 1.472.576 3.264.32.128.512.288.576.48-.064.256 0 .48.192.672.384.192.576.32.576.384v.672c.256.448.416.8.48 1.056l.192.288c.384 0 .608-.288.672-.864.128-.576.224-.864.288-.864.192.128.416.256.672.384.256 0 .384-.224.384-.672 0-.192-.128-.448-.384-.768-.192-.192-.288-.576-.288-1.152v-.48c.064-.192.128-.416.192-.672.128-.256.192-.48.192-.672.064-.256.128-.48.192-.672l.288-.384V46a2.82 2.82 0 0 0-.096-.672l-.096-1.248c.192 0 .448-.128.768-.384 0-.064-.032-.096-.096-.096-.128-.128-.256-.192-.384-.192-.192-.32-.288-.544-.288-.672s.096-.384.288-.768l.288-.864c.384-.32.576-.544.576-.672-.128-.128-.32-.384-.576-.768 0-.256.096-.48.288-.672l.288-.48c-.064-.192-.064-.512 0-.96 0-.128.192-.416.576-.864l-.576-.576.384-.672c.832-.832 1.248-1.408 1.248-1.728 0-.192-.128-.448-.384-.768-.32-.32-.48-.768-.48-1.344v-.576c.32-.512.608-.992.864-1.44.32-.448.544-.896.672-1.344.064-.256.096-.416.096-.48.064-.064.096-.064.096 0 0-.256-.064-.384-.192-.384-.064 0-.224.128-.48.384-.256-.128-.448-.512-.576-1.152v-.768c.064-.256.128-.48.192-.672.128-.192.224-.384.288-.576l.864-.192c.512 0 .896.096 1.152.288l.384.288c.192-.064.48-.224.864-.48l.672-.192 1.536.48v1.056c.128.384.32.576.576.576.384-.128.576-.32.576-.576l-.096-.48a1.069 1.069 0 0 1-.096-.48c0-.128.032-.224.096-.288l.768-.288a.86.86 0 0 1 .576-.48l1.536.384c.128 0 .224.032.288.096l.288.192c.128-.128.32-.224.576-.288l2.496-.096c.064.128.128.288.192.48.128.128.224.288.288.48l-.288.48c-.064.256-.128.48-.192.672v.576c0 .192.128.416.384.672l-.192.192c0 .064-.064.16-.192.288l-.192.576v1.056l.096.096-.096.576c.064.128.096.384.096.768.064.384.096.704.096.96v.384c.064.192.128.416.192.672l.192.864-.288 1.056c-.192.448-.32.832-.384 1.152l.384.576a3.146 3.146 0 0 0-.384-.48v-.096a70.73 70.73 0 0 0-2.592-3.744 48.58 48.58 0 0 0-2.016-2.688l-.096.192a67.166 67.166 0 0 0 2.112 3.168c.96 1.28 2.048 2.752 3.264 4.416-.256-.128-.416-.288-.48-.48-.448.064-.64.256-.576.576l.384.576c-.064.064-.064.256 0 .576.128.064.224.16.288.288l.384.384-.384.48a1.117 1.117 0 0 1-.192.288v.192c0 .256.224.384.672.384-.192.96-.32 1.376-.384 1.248l.768.768c0 .128-.032.288-.096.48 0 .192-.032.416-.096.672-.128.128-.288.32-.48.576a9.517 9.517 0 0 0-.672.768L39.8 46c0 .512.096.832.288.96l.576.192c.128-.192.256-.288.384-.288.256 0 .416.192.48.576 0 .128-.224.416-.672.864.128.32.384.736.768 1.248l-.768.672c-.384.256-.576.512-.576.768l.192.384h.288c.256 0 .512-.224.768-.672h.384l.096.288-.096.288c0 .192-.032.48-.096.864-.064.448-.128.832-.192 1.152v.576c-.32.448-.48.768-.48.96-.128-.128-.224-.192-.288-.192-.128 0-.192.16-.192.48 0 .384.16 1.28.48 2.688.128.32.224.64.288.96l.192.96.096 1.632c-.128.32-.192.544-.192.672v.672c0 1.28-.16 1.92-.48 1.92 0-.064-.032-.096-.096-.096l.384.576c.064.064.096.16.096.288v.288c.192.128.352.352.48.672l.192 1.44v.576l-.096.96a1.205 1.205 0 0 1-.48.288c-.256.064-.384.224-.384.48l.096 1.056.384-.096c.32 0 .512.128.576.384.128.128.128.384 0 .768l-.192.672c.064.064.16.224.288.48 0 .192-.032.32-.096.384v.384a1.58 1.58 0 0 0-.096.48L42.2 77.2c.192.192.32.384.384.576l-.288.768c.064.512.096.896.096 1.152 0 .192.032.224.096.096-.128.576-.224.896-.288.96l.192.288a.737.737 0 0 1 .096.288c.064.064.096.128.096.192 0 .512-.096.8-.288.864H42.2h.096v-.096L41.528 82h-.864a1.58 1.58 0 0 0-.48.096h-.768L39.032 82a.852.852 0 0 0-.384.096l-.384.096-1.728-.384c-.064 0-.192.096-.384.288-.192.192-.384.288-.576.288-.256 0-.704-.224-1.344-.672-.064.128-.384.384-.96.768-.448 0-.672-.256-.672-.768l.384-4.128v-.48c-.192-.064-.416-.064-.672 0 .32-.256.448-.576.384-.96l-.192-.768v-.096c0-.192.192-.384.576-.576a6.276 6.276 0 0 1-.384-.672 3.725 3.725 0 0 0-.192-.48v-.48c.064-.128.096-.416.096-.864l-.288-.576c.384-.064.672-.32.864-.768-.064-.128-.256-.256-.576-.384a4.13 4.13 0 0 0 .096-.768c.064-.256.064-.448 0-.576l-.384-1.248.192-.96.192-.768-.576-1.92c0-.192.16-.448.48-.768a1.504 1.504 0 0 1-.384-.288l-.384-.384c.128-.384.192-.96.192-1.728 0-.192.032-.32.096-.384l-.288-.768c0-.64.096-1.056.288-1.248.192-.192.288-.448.288-.768 0-.512-.192-.992-.576-1.44.192.128.32.16.384.096.256 0 .416-.096.48-.288l-.864-.288-.192-.192a.628.628 0 0 0-.288-.288c.128-.192.352-.384.672-.576 0 .128.064.256.192.384 0-.064.064-.16.192-.288-.896-.512-1.28-.768-1.152-.768-.256 0-.448.16-.576.48v1.152c-.256.064-.384.256-.384.576v.576c-.064.064-.16.256-.288.576l.096 1.344a2.86 2.86 0 0 0-.288.384l-.576.576c.32.256.544.768.672 1.536 0 .256-.032.416-.096.48-.384.384-.608.864-.672 1.44l-.192.96c-.064.256-.16.544-.288.864l.48.096v1.44l-.48.768c.064.064.128.288.192.672.064.192.096.384.096.576a.888.888 0 0 1 0 .576l-.288.576h-.288l-.576-.288c-.512 1.344-.768 1.888-.768 1.632l.768.768c.128.384.192.8.192 1.248v.96l-.384.384c-.128.128-.256.32-.384.576-.128.256-.192.608-.192 1.056l.192.192c.064.064.096.16.096.288l-.288 2.112c0 .192-.128.416-.384.672v.288c0 .256-.128.416-.384.48.32.576.512 1.056.576 1.44 0 .128-.064.32-.192.576-.256.064-.544.128-.864.192l-.96.384-1.152-.096-1.152-.192-1.344.384c-.192 0-.32-.032-.384-.096 0-.064-.064-.32-.192-.768-.256-.256-.416-.48-.48-.672l-.384-1.536c.128-.192.288-.288.48-.288v-.672c.512-.128.8-.288.864-.48-.064-.256-.192-.384-.384-.384-.384.064-.576.352-.576.864h-.576l.192-2.112-.192-.768-.288-.768c0-.448.32-.672.96-.672l.384.192c.256 0 .416-.128.48-.384-.576-.256-1.024-.384-1.344-.384l-.288.096c0-.064.064-.224.192-.48-.192-.192-.32-.288-.384-.288l-.672.096c-.064-.064-.096-.32-.096-.768 0-.384.096-.704.288-.96l.192-.48a3.146 3.146 0 0 0-.48-.384 5.612 5.612 0 0 0-.576-.48c-.064-.064-.096-.16-.096-.288a2.82 2.82 0 0 0-.096-.672l.384-1.728-.192-.192-.288-.288-.192-1.056a1.117 1.117 0 0 0-.288-.192 4.696 4.696 0 0 0-.288-.48c.064-.064.096-.16.096-.288 0-.256-.096-.512-.288-.768v-.384l.288-.096c.64-.064.96-.256.96-.576 0-.256-.416-.416-1.248-.48-.192-.512-.288-.96-.288-1.344l.192-.288v-.192c-.192-.448-.416-.736-.672-.864l-.096-.192c0-.064.032-.128.096-.192l-.384-.288.768-1.248c0-.32-.192-.608-.576-.864 0-.064.16-.256.48-.576l-1.248-.192c-.192-.32-.32-.48-.384-.48-.32.128-.512.256-.576.384v.48l-.288.288v.384c.064.128.128.288.192.48s.128.416.192.672c0 .32-.096.576-.288.768-.256.192-.384.32-.384.384l.864 1.44c.064.064.096.192.096.384 0 .128.032.256.096.384-.064-.064-.128.032-.192.288a.617.617 0 0 0-.48.48l-.096.48c.256.256.48.384.672.384l.192 5.664-.192.288c.064.192.096.512.096.96 0 .192-.096.48-.288.864l-.192.576v.192c.064.064.128.16.192.288.128.192.128.544 0 1.056.256.32.32.832.192 1.536.064.704.096 1.28.096 1.728.064.448.064.8 0 1.056.128.192.224.384.288.576l.192.384c-.128.384-.256.8-.384 1.248-.064.384-.16.832-.288 1.344l.48.672v.384c-.128.128-.32.256-.576.384a6.276 6.276 0 0 1-.672.384c-.384 0-.8-.128-1.248-.384l-.96-.48a3.814 3.814 0 0 1-.576.48 3.156 3.156 0 0 1-.768.096 1.58 1.58 0 0 1-.48.096l-1.344-.192c-.064 0-.256.096-.576.288l-.576.192zM31.64 26.128c0-.256-.064-.448-.192-.576l-.192.576h.384zM11.576 29.68l.384-.192-.192-.288c-.064.064-.096.128-.096.192s-.032.16-.096.288zm21.792.768.384-.288c0-.064-.128-.064-.384 0-.064.064-.064.16 0 .288zm1.248.672c.192.128.352 0 .48-.384-.064-.064-.16-.096-.288-.096-.256 0-.32.16-.192.48zM7.928 32.848c.192.064.352.032.48-.096s.064-.288-.192-.48c-.192.064-.288.256-.288.576zm6.912 2.016c.256-.128.416-.224.48-.288-.256-.512-.352-.896-.288-1.152l.384-.384.384-.576c-.512-.128-.864-.16-1.056-.096-.384 0-.608.032-.672.096-.32.192-.48.416-.48.672 0 1.152.416 1.728 1.248 1.728zm-2.016 3.84c.064-.128.032-.256-.096-.384-.064-.064-.224-.032-.48.096.128.192.32.288.576.288zM8.6 41.392c0-.128-.064-.256-.192-.384-.064-.128-.192-.096-.384.096 0 .192.192.288.576.288zm26.976 1.248c0-.064-.096-.192-.288-.384l-.192.192c.064.064.128.096.192.096.128 0 .224.032.288.096zm-30.624.48c.192.128.352.032.48-.288-.064-.064-.16-.096-.288-.096-.192 0-.256.128-.192.384zm33.12.48c-.064-.128-.16-.128-.288 0l.288.384V43.6zm-2.304.576a.651.651 0 0 0-.192-.48c-.128 0-.256.064-.384.192 0 .192.192.288.576.288zm-20.256 4.32a.651.651 0 0 0 .192-.48c-.32.064-.544.224-.672.48h.48zm.48.96-.192-.288-.672.288h.864zm3.648.576c0-.128-.128-.192-.384-.192.192.192.32.256.384.192zm-8.064 6.528c.064 0 .128-.032.192-.096l-.384-.288c-.064 0-.128.032-.192.096l.384.288zm8.64 1.536v-.672c-.32.32-.544.48-.672.48.064 0 .096.064.096.192h.576zm-8.352.384.672-.096c-.064-.32-.256-.512-.576-.576l-.096.672zm24.096 2.976c.32-.32.48-.64.48-.96v-.288c-.064-.128-.192-.256-.384-.384a5.612 5.612 0 0 1-.48-.576l-.192 1.056c0 .256.192.64.576 1.152zm-10.464.768c.832-.128 1.28-.16 1.344-.096l-.096-.768c-.32-.32-.608-.448-.864-.384-.128.128-.256.544-.384 1.248zm16.32-.96-.096.096h.096v-.096zm-18.24 3.552-.192-.288h-.096l.096.288h.192zm-12 2.4c.192.064.384-.032.576-.288-.192-.192-.352-.224-.48-.096s-.16.256-.096.384zm-3.072 1.92c.064-.064.096-.16.096-.288 0-.192-.128-.288-.384-.288-.064.192.032.384.288.576zm30.528 5.088c.256 0 .448-.064.576-.192-.32-.512-.384-.928-.192-1.248l.384-.384c.128-.128.256-.288.384-.48a2.82 2.82 0 0 0-.672-.096 1.58 1.58 0 0 0-.48-.096c-.192 0-.416.064-.672.192-.32.192-.48.48-.48.864.128.96.512 1.44 1.152 1.44zm-27.168-.672c.064-.128 0-.256-.192-.384-.064-.128-.192-.096-.384.096.128.192.32.288.576.288zm-2.688 7.68c.128-.128.448-.224.96-.288.448 0 .64-.224.576-.672l-.096-.288-.384-.096-.864.288c-.064 0-.096-.032-.096-.096H9.08c-.256 0-.384.096-.384.288 0 .384.16.672.48.864zm56.323 1.92-1.536-.288-.96.192h-.96c-.32 0-.64-.032-.96-.096l-.864-.384h-.96c-.384-.448-.992-.768-1.824-.96-.832-.064-1.408-.384-1.728-.96l-.288-.288c-.192.064-.512.032-.96-.096-.256-.32-.576-.672-.96-1.056l-1.344-1.344a1.58 1.58 0 0 0-.096-.48 2.82 2.82 0 0 0-.096-.672l-.672-.672c-.192-.32-.416-.704-.672-1.152.128-.384.128-.96 0-1.728l-.288-.48v-2.112c0-.448-.032-.896-.096-1.344-.192-.192-.384-.48-.576-.864l-.192-1.824.192-1.152.096-1.152c0-.064-.064-.224-.192-.48v-1.056l-.288-.864.288-2.784-.576-4.032.288-.672c.128-.448.16-.768.096-.96l-.288-.864v-1.44c0-.64-.032-1.376-.096-2.208-.256-.32-.384-.864-.384-1.632-.064-.448-.064-.768 0-.96.192-.448.32-.704.384-.768l-.48-.48a16.806 16.806 0 0 1-.096-1.632V40.816c0-.384.032-.704.096-.96.256-.576.448-.896.576-.96.32-.064.64-.416.96-1.056l.096-.096c0-.128-.256-.352-.768-.672-.512-.32-.768-.576-.768-.768l.192-.384c.064-.128.128-.32.192-.576a6.71 6.71 0 0 1-.192-1.632c.256-.32.544-.768.864-1.344.384-.576.8-1.216 1.248-1.92v-.576c.064-.192.16-.416.288-.672l.384-.768.576-.384c.32-.192.8-.576 1.44-1.152l1.152-1.056h.192c.128 0 .32-.032.576-.096a.651.651 0 0 0 .192-.48c.192.064.352.128.48.192.192.064.352.064.48 0l.384-.096c1.088-.768 1.728-1.152 1.92-1.152l.48.192v.096h.192c.896 0 1.312-.224 1.248-.672.32-.192.576-.288.768-.288a.86.86 0 0 1 .48.576c0 .064.16.096.48.096.128-.128.288-.224.48-.288.256-.128.512-.224.768-.288.256.064.512.16.768.288.256.064.544.128.864.192l.768-.096h.288c.192 0 .352.032.48.096.192 0 .384.032.576.096.064.32.288.608.672.864h.288c.384 0 .864.096 1.44.288.064.064.128.192.192.384.064.128.128.288.192.48v.576l.192.096c.256-.256.544-.384.864-.384h.096c.384 0 .864.384 1.44 1.152.064.064.128.224.192.48.064.192.128.448.192.768l.48.288c.064 0 .128.16.192.48.128.064.384.288.768.672l.672.288c0 .32-.128.64-.384.96-.256.448-.384.8-.384 1.056v.288c.128.512.672 1.12 1.632 1.824l.576 1.344-.096.384c-.064.192-.16.512-.288.96 0 .192.032.32.096.384-.192 1.024-.288 1.696-.288 2.016l.48 1.056c0 .192-.224.416-.672.672-.448.256-.672.448-.672.576v.096c.32.128.608.32.864.576.32.192.608.416.864.672 0 .064-.064.224-.192.48l-.192.384c.064.192.096.608.096 1.248-.064.32-.096.448-.096.384v.096l.096 1.728v.096l-.096.384c.256.384.48.96.672 1.728v.192c0 .192-.096.448-.288.768l-.288.576v.288c0 .512.096 1.344.288 2.496l-.384.096c-.192 0-.288.064-.288.192l.48.48c0 .64.16 1.024.48 1.152.256.192.384.48.384.864-.128.32-.128.832 0 1.536-.064.384-.288.576-.672.576-.128 0-.224-.032-.288-.096-.064-.064-.16-.096-.288-.096-.256.128-.48.288-.672.48.32.192.544.288.672.288.192 0 .416-.096.672-.288.192.064.288.32.288.768l.096.96c.192.128.32.352.384.672 0 .32-.128.608-.384.864l.192.192.288.384-.192.48a1.58 1.58 0 0 0-.096.48v.288l-.384.288c.512.896.768 1.504.768 1.824l-.096.288c0 .064-.032.128-.096.192-.064 0-.096.032-.096.096.064.128.096.32.096.576v.672c-.128.064-.32.288-.576.672l.192 2.016v.384c0 .512-.096.864-.288 1.056l-.288.288-.096.96c-.512.704-.768 1.024-.768.96 0 .064.096.16.288.288l-.192.192c-.064 0-.128.064-.192.192l-.096 1.056c-.064.064-.48.448-1.248 1.152-.384.256-.608.64-.672 1.152-.512.32-.928.544-1.248.672.064-.064 0-.096-.192-.096l-1.248 1.824a1.069 1.069 0 0 1-.48.096c-.128 0-.32.032-.576.096l-.768.48h-.48c-.128.064-.32.128-.576.192l-1.728.864c-.128 0-.224-.032-.288-.096-.064-.064-.192-.096-.384-.096l-.672.288zm1.92-53.856.384-.288c0-.064-.128-.064-.384 0v.288zm1.248.576c.192.064.384-.032.576-.288-.064-.064-.192-.096-.384-.096-.128 0-.192.128-.192.384zM63.58 32.08l.48-.096-.192-.384c-.32.128-.416.288-.288.48zm-.48 42.432c.128 0 .512-.192 1.152-.576.32.32.544.48.672.48.448-.064.672-.192.672-.384v-.672c.064-.192.384-.448.96-.768.128.064.224.352.288.864h.48l.192-.192.576-1.344-.288-.768-.288-.768.096-.48v-.096c.064-.064.096-.128.096-.192-.064-.192-.096-.64-.096-1.344.064-.768.128-1.12.192-1.056-.128-.512-.224-.96-.288-1.344a7.937 7.937 0 0 1-.096-1.056c0-.064.256-.352.768-.864.448-.384.672-.608.672-.672l-.672-.768.192-1.824.384-.768c-.064-.064-.32-.192-.768-.384-.384-.192-.576-.352-.576-.48v-.096c-.32-.832-.48-1.472-.48-1.92l.288-1.344.192-1.152-.288-.576c.064-.448.064-1.056 0-1.824-.256-.256-.416-.48-.48-.672l.192-.672.192-.576-.192-.384a3.725 3.725 0 0 1-.192-.48l.288-2.016.48-.192c.192-.128.288-.288.288-.48-.256-.064-.576-.256-.96-.576-.32-.448-.48-.8-.48-1.056l.384-.768.288-.768c-.128-.064-.32-.288-.576-.672l.48-1.344a3.146 3.146 0 0 1-.384-.48l-.384-.768c0-.128.128-.32.384-.576-.064-.192-.096-.512-.096-.96l.192-.384c.128-.128.192-.256.192-.384l-.48-.672-.096-1.632c0-.128-.096-.288-.288-.48a4.696 4.696 0 0 1-.48-.288 2.234 2.234 0 0 0-.576-.384l-.576-1.056c.064.064-.64.128-2.112.192h-.096c-.192 0-.64-.256-1.344-.768-.896-.512-1.504-.8-1.824-.864-.192 0-.384.192-.576.576-.128.384-.16.608-.096.672 0 .192.224.512.672.96l.672.672-.288 1.248-.384.768v.288a.852.852 0 0 1-.096.384l-.192.192-.192.192c0 .064-.032.192-.096.384 0 .128-.032.32-.096.576l-.192.672c0 .128.096.288.288.48.192.192.288.352.288.48l-.096 1.152c.064.128.128.32.192.576.128.256.224.544.288.864V43.792c0 .192-.032.416-.096.672-.064.192-.032.352.096.48l.192.096c-.256.128-.32.352-.192.672.192.704.256 1.12.192 1.248l-.288.768c.064.256.096.544.096.864 0 .256.032.576.096.96-.192.192-.384.48-.576.864l.96.576c.128.192.224.512.288.96 0 .448-.128.928-.384 1.44-.192.064-.384.256-.576.576.256.128.48.416.672.864l-.384 1.44c.064.128.128.288.192.48s.128.416.192.672l-.096.288c-.128.128-.192.224-.192.288-.064.256-.128.576-.192.96v.96c.128.064.224.256.288.576v.768c.064.256.128.544.192.864l.576.576c.128.128.192.384.192.768l-.864.384c-.32.128-.48.416-.48.864l1.248 1.248c.064.064.128.096.192.096h-.096l-.096-.096h-.384c.256 0 .384.192.384.576-.064.256-.16.512-.288.768-.064.256-.16.544-.288.864l.48.48c.256.256.384.448.384.576l-.288.48c-.192.256-.288.448-.288.576l.48.768c.32.512.48.8.48.864 0 .256-.192.48-.576.672v.384c0 .64.224.928.672.864l.384-.096h.192c.448 0 .8.128 1.056.384s.448.384.576.384zM51.387 32.944c.192.064.384-.064.576-.384-.064-.064-.16-.096-.288-.096-.192 0-.288.16-.288.48zm3.936.96c.192.064.384-.064.576-.384-.192-.128-.352-.128-.48 0-.064.064-.096.192-.096.384zM53.5 36.88h.384c.192 0 .448-.032.768-.096.32 0 .48-.128.48-.384l-.192-.672h-.384L53.5 36.88zm17.568 1.632c.064-.064.096-.192.096-.384a.651.651 0 0 0-.48-.192l-.096.48.48.096zm-.384 6.336 1.248-.864c-.192-.128-.288-.256-.288-.384 0-.448-.16-.8-.48-1.056l-.384.096c-.064.064-.064.256 0 .576-.064.192-.16.416-.288.672a4.261 4.261 0 0 0-.384.768c.256.128.448.192.576.192zm-19.68 6.24c.064-.256.032-.576-.096-.96l-.672.288.768.672zm.096 2.592c.32-.128.64-.352.96-.672-.256-.256-.48-.384-.672-.384v.192c0 .128-.096.352-.288.672v.192zm23.232 2.496.96-.288v-.384l-.48-.096-.48.768zm1.824.48c.256.064.512-.032.768-.288l-.576-.096c-.128.128-.192.256-.192.384zm-1.536.384v-.192h-.288v.192h.288zm-21.984 4.32.096-.288-.672-.096.576.384zm-1.056 2.496.48-.192-.48-.096v.288zm18.528 2.784c.128 0 .032-.096-.288-.288l-.192.192c.064.064.224.096.48.096zm-15.072 1.92c.32 0 .704-.16 1.152-.48v-.384c-.32-.384-.576-.64-.768-.768l-.864 1.248c0 .128.064.256.192.384h.288zm17.664-.576-.096-.48c-.128 0-.224.032-.288.096l.096.192c.128.128.224.192.288.192zm-2.4.192c0-.128-.064-.256-.192-.384-.064-.128-.192-.096-.384.096.128.192.32.288.576.288zm-18.144.576c.384.256.672.128.864-.384-.384.128-.672.256-.864.384zm.096 3.84c-.192-.32-.288-.544-.288-.672l-.384.096.096.384c.128.128.32.192.576.192zm.384-.096.48-.096c.064-.064.032-.224-.096-.48l-.384.192v.384zm19.68 1.92c.32-.512.448-.832.384-.96h-.48l-.384.672.48.288zm-11.52 2.016-.096-.288h-.192l.192.288h.096zm-.576 4.416c.192-.32.352-.48.48-.48.32 0 .608.096.864.288l.192-.288-.48-.96c-.064-.192-.192-.288-.384-.288-.128 0-.288.064-.48.192s-.448.416-.768.864c-.064.064-.096.192-.096.384s.064.288.192.288h.48zm47.86 2.592c-.064-.064-.192-.128-.384-.192a6.642 6.642 0 0 0-.768-.192h-1.728c-.128.064-.384.096-.768.096-.064-.064-.192-.128-.384-.192a3.725 3.725 0 0 0-.48-.192l-.96.096c-.32.064-.576.064-.768 0h-.288c-.384 0-.704-.128-.96-.384v-.576c-.192-.64-.16-1.056.096-1.248-.064-.064-.192-.096-.384-.096-.064-.128-.064-.224 0-.288a.737.737 0 0 0 .096-.288l.096-.288c0-.192-.192-.416-.576-.672 0-.256.224-.512.672-.768v-.096a1.45 1.45 0 0 1-.576-.48c-.064-.128-.128-.448-.192-.96a44.438 44.438 0 0 1-.192-2.016c-.448-.384-.672-.896-.672-1.536 0-.192.16-.864.48-2.016-.192-.192-.512-.32-.96-.384-.128-.128-.16-.256-.096-.384l.384-1.152c-.064 0-.16-.16-.288-.48a3.725 3.725 0 0 1-.192-.48c-.064-.192-.16-.448-.288-.768.064-.192.096-.608.096-1.248l-.192-.192c0-.128-.064-.416-.192-.864-.064-.512-.16-1.12-.288-1.824a29.12 29.12 0 0 0-.384-1.824 10.502 10.502 0 0 1-.096-1.248c0-.448.096-.768.288-.96-.064-.128-.352-.256-.864-.384-.768 0-1.504.256-2.208.768l-.48 2.88c-.064.064-.16.128-.288.192l-.288.288V63.664c.064.128.128.288.192.48.256 0 .544.128.864.384l-.192 1.152c-.128.448-.096.8.096 1.056l-.768-.096-.192.384.288.384c.192.256.288.448.288.576l-.672 2.784.288 1.152c0 .192-.032.352-.096.48l-.192.48c.064.32.128.704.192 1.152.064.384.128.8.192 1.248 0 .128-.224.416-.672.864l-.768.96c0 .256.224.448.672.576l.672.096-.288 4.512-.192.384c-.128-.128-.384-.32-.768-.576l-.576.096a1.58 1.58 0 0 1-.48.096l-1.44-.48-.384.192c-.256.128-.416.192-.48.192-.832.064-1.408.064-1.728 0l-.576-.288a13.044 13.044 0 0 1-.864-.48h-.288c-.256.448-.512.672-.768.672l-1.152-.288c-.064.064-.16.096-.288.096a.852.852 0 0 0-.384.096c-.512 0-.768-.224-.768-.672.192-.192.416-.512.672-.96-.064-.128-.096-.48-.096-1.056v-.384c.064-.192.128-.416.192-.672l.192-.768v-.384a4.13 4.13 0 0 0-.096-.768l-.192-1.152c.064-3.008.256-5.344.576-7.008l.288-.864c0-.192-.032-.384-.096-.576l-.192-.576c0-.064.064-.224.192-.48-.128-.192-.128-.448 0-.768l.384-.768v-.288c0-.128-.032-.32-.096-.576l-.192-.864c0-.064.096-.48.288-1.248.192-.768.32-1.184.384-1.248a2.957 2.957 0 0 1-.48-1.152l.384-.384c.128-.128.256-.288.384-.48 0-.384-.192-.8-.576-1.248l.576-9.984c.128-.128.256-.288.384-.48.192-.192.352-.384.48-.576-.064-.064-.192-.096-.384-.096l-.288-1.728c0-.576.032-.992.096-1.248l-.096-.288c.064-.064.16-.224.288-.48v-.672a.852.852 0 0 0-.096-.384v-.288c.192-.192.384-.48.576-.864l-.576-1.44v-1.152c.064-.192.16-.416.288-.672.128-.256.256-.544.384-.864 0-.064-.032-.096-.096-.096v-.192c0-.192.032-.384.096-.576.128-.192.224-.416.288-.672-.192-.192-.384-.48-.576-.864l.096-1.248c0-.256.32-.704.96-1.344.576-.576.832-1.056.768-1.44l-2.016-.768c.128-.32.32-.512.576-.576l-.192-2.592c-.192-.32-.288-.544-.288-.672.64-.256 1.056-.352 1.248-.288.128 0 .352.128.672.384.256.256.512.384.768.384.128-.128.288-.256.48-.384.256-.128.512-.224.768-.288.128.128.32.288.576.48.32.128.64.288.96.48l.096-.384.672-.192c.32-.192.512-.256.576-.192.128 0 .416.192.864.576.448.448.736.672.864.672s.416-.16.864-.48c.32-.128.576-.224.768-.288.256-.064.448-.064.576 0l.384.096.384-.192c.128-.128.256-.192.384-.192.256 0 .608.32 1.056.96.128 0 .288-.128.48-.384.192-.192.32-.256.384-.192l1.536.672h.384l.384-.192.48.576 2.016.288.192.192c.064.064.16.128.288.192.96.064 1.76.16 2.4.288l1.728 1.152.192.384v.096c0 .448.32.864.96 1.248l1.536.864v.864l.48 1.056c-.064.384-.16.8-.288 1.248-.128.384-.256.8-.384 1.248 0 .064.032.096.096.096l.48-.48c.256-.256.48-.384.672-.384l.192.096c.064.064.128.256.192.576.064.32.16.768.288 1.344l.288.48v.96l-.288.288c.128.576.16.896.096.96-.192.064-.384.256-.576.576l.192.192c.064.064.288.096.672.096v.192c0 .128-.064.448-.192.96h-.096c-.064 0-.16.224-.288.672-.128.448-.128.672 0 .672a.651.651 0 0 0 .48-.192c.064-.128.096-.288.096-.48v-.096l-.096 1.44c-.064.064-.16.224-.288.48 0 .256-.032.608-.096 1.056 0 .448-.032.96-.096 1.536l-.48.864a9.4 9.4 0 0 0-.288 1.536l.096.672c-.064.064-.096.128-.096.192s-.032.16-.096.288c-.064.832-.352 1.44-.864 1.824v.384c0 .128-.032.288-.096.48 0 .128-.032.288-.096.48-.256.192-1.024 1.248-2.304 3.168l-.864.384c-.384.192-.64.48-.768.864.192.32.352.736.48 1.248 0 .448-.16.672-.48.672-.384 0-.576.032-.576.096 0 .192.224.288.672.288.32 0 .48.192.48.576l-.096 1.152c-1.152.192-1.728.384-1.728.576 0 .128.672.256 2.016.384-.064.064-.16.352-.288.864l.48.288.576 2.4.384.672c-.448.32-.832.768-1.152 1.344l.192.384c.32.192.608.512.864.96.128.192.224.512.288.96l.672.48v.48c0 .192.032.384.096.576-.064.128-.096.448-.096.96.192.192.288.448.288.768l.192 2.112c.064.064.128.192.192.384s.128.448.192.768c-.32.32-.48.608-.48.864-.064.384.064.576.384.576.064 0 .224-.064.48-.192l.096 1.632.96 2.208c.064.064.096.256.096.576 0 .704-.256 1.056-.768 1.056-.576 0-.96-.096-1.152-.288-.192-.256-.32-.384-.384-.384-.32.256-.8.48-1.44.672zm-9.504-54.912c.064-.128.032-.256-.096-.384s-.256-.128-.384 0c0 .128.16.256.48.384zm-10.848 4.8.384-.288c0-.064-.128-.064-.384 0-.064 0-.064.096 0 .288zm1.152.768c.192.064.384-.032.576-.288-.128-.128-.224-.192-.288-.192-.192 0-.288.16-.288.48zm17.76.768c.192.064.384-.032.576-.288-.064-.064-.16-.096-.288-.096-.192 0-.288.128-.288.384zm-8.544 15.744.96-.672 1.248-.192.096-.384-.192-.672.288-.288c.192-.128.416-.288.672-.48.064-.256.256-.48.576-.672 0-.64.096-1.568.288-2.784v-.96c.064-.384.128-.8.192-1.248l.192-.384c.064-.192.128-.416.192-.672l-.192-.384-.192-.384c-.064-.192-.096-.448-.096-.768v-.672c.064-.256.128-.544.192-.864l.096-1.248v-.192c0-.64-.608-1.056-1.824-1.248l-1.248-.192-1.056-.192a4.45 4.45 0 0 0-.864.096 4.45 4.45 0 0 0-.864.096c-.384.128-.736.416-1.056.864l-.096.288c-.32.32-.544.64-.672.96 0 .064.032.192.096.384.128.128.224.352.288.672l.384 1.056c-.128.128-.32.384-.576.768-.064.256-.16.512-.288.768-.064.256-.16.544-.288.864l.48.672.48.768c-.064.256-.16.512-.288.768a6.642 6.642 0 0 0-.192.768v1.344l-.096 1.632v.288c0 .576.16 1.024.48 1.344.128.192.32.384.576.576.064 0 .224-.096.48-.288.192-.192.32-.288.384-.288.192 0 .608.384 1.248 1.152h.192zm7.104-9.12c.384 0 .896-.48 1.536-1.44a1.511 1.511 0 0 1-.384-.576l-.864-.288c-.256 0-.576.192-.96.576 0 .512.224 1.088.672 1.728zm-17.376 1.824c.192.064.384-.032.576-.288-.128-.128-.224-.192-.288-.192-.192 0-.288.16-.288.48zm2.496 9.312c.064-.064.096-.16.096-.288 0-.192-.128-.288-.384-.288-.064.192.032.384.288.576zm7.008-.192c.128.064.32-.032.576-.288-.064-.064-.192-.096-.384-.096s-.256.128-.192.384zm7.2 3.072.288-.192c0-.128-.032-.224-.096-.288l-.192.48zm-11.328 1.824c.064-.128.032-.256-.096-.384-.064-.128-.192-.096-.384.096 0 .192.16.288.48.288zm7.392 1.056c.192.064.352.032.48-.096.064-.064.032-.224-.096-.48-.128 0-.256.192-.384.576zm4.416 6.144c.064-.128.032-.256-.096-.384-.064-.064-.224-.032-.48.096 0 .192.192.288.576.288zm-3.072 7.488c.128 0 .32-.096.576-.288.256-.128.416-.192.48-.192h.096v-1.152l-1.152-.288c0 .32.032.512.096.576l-.096.672c-.064.128-.096.32-.096.576 0 .064.032.096.096.096zm-15.936 1.248c.384-.192.576-.384.576-.576 0-.256-.224-.48-.672-.672l-.768-.384-.192.192c.128.256.288.512.48.768.192.192.384.416.576.672zm-.48 5.472c.064-.128.032-.256-.096-.384-.064-.128-.192-.096-.384.096 0 .192.16.288.48.288zm2.4-.384h-.288c.064.064.16.224.288.48v-.48zm52.57 5.088-.768-.288c-.832-.128-1.6-.224-2.304-.288-.64 0-1.216-.032-1.728-.096l-.768.192-2.304-.576-.864.288-2.688-.384-1.44.096a.852.852 0 0 0-.384.096l-.384.096-4.032-.576-.672.192a2.975 2.975 0 0 0-.576-.192 9.223 9.223 0 0 0-.672-.192l-.288.192c-.128-.064-.448-.096-.96-.096l-.192.096h-1.728c-.96 0-1.344-.544-1.152-1.632l.192-1.248c.064-.448.096-.8.096-1.056v-.768c.064-.128.192-.288.384-.48.192-.256.512-.544.96-.864v-.192l-.96-.192-.096-.384c0-.448.128-.8.384-1.056.384-.512.608-.96.672-1.344-.32-.064-.544-.32-.672-.768l-.288-1.056.192-2.592.672.288c.064-.064.096-.256.096-.576v-.576a3.814 3.814 0 0 1-.48-.576l-.096-.192c0-.128.064-.384.192-.768l.192-.576c0-.256-.128-.48-.384-.672 0-.256.064-.576.192-.96l-.192-.288c0-.192.032-.288.096-.288-.064-.32-.032-.672.096-1.056l.288-.48-.192-.96c-.064-.32-.128-.544-.192-.672-.064-.192-.096-.32-.096-.384 0-.128.128-.32.384-.576.256-.256.384-.448.384-.576l-.192-.576c-.192-.192-.288-.32-.288-.384l.48-1.632c-.32-.128-.384-.512-.192-1.152l.288-1.152a6.642 6.642 0 0 0-.192-.768v-.48l.192-1.344.48-.672a7.06 7.06 0 0 1-.288-.768l.096-1.536c-.192-.384-.288-.608-.288-.672l.768-1.632-.096-.096a.737.737 0 0 0-.096-.288v-.672c.064-.32.128-.704.192-1.152l-.192-1.152c.064.064.128-.416.192-1.44l-.192-.576a1.117 1.117 0 0 0-.192-.288v-.192l.192-.384c.064-.128.096-.288.096-.48l.192-2.976.288-7.2c.32-.768.48-1.312.48-1.632l-.096-.48c0-.128-.032-.224-.096-.288-.064-.064-.096-.128-.096-.192l-.096-1.152c0-.128.128-.48.384-1.056.256.064.544.128.864.192.32 0 .64.064.96.192.192.192.48.384.864.576.064 0 .192-.128.384-.384.192-.192.352-.288.48-.288l.576.384c.384.256.96.448 1.728.576.128-.256.256-.448.384-.576l.768-.096a2.82 2.82 0 0 1 .672-.096l.384.288c.128.128.32.16.576.096l.96-.192c.256-.064.448-.096.576-.096h.288l1.728.48a.852.852 0 0 1 .384-.096c.192-.064.416-.128.672-.192l.864.192c.064.256.256.384.576.384.064 0 .224-.096.48-.288.256-.256.416-.32.48-.192l.576.192c.128-.128.288-.224.48-.288l.672.192c.128.064.224.128.288.192a.737.737 0 0 0 .288.096l.48-.096c0 .128.128.416.384.864.128-.192.128-.448 0-.768l.768-.288.576.288c.256.128.544.256.864.384 0 .128.096.288.288.48h.288l.576-.672c.128-.064.288-.096.48-.096.256 0 .512-.032.768-.096l.672.096-.192 3.648c-.32.256-.48.544-.48.864l.096.768-.192 4.608c0 .448-.352.672-1.056.672a1.511 1.511 0 0 0-.576-.384c-.256-.064-.608-.096-1.056-.096a6.144 6.144 0 0 0-1.536 0h-.48a6.642 6.642 0 0 0-.768-.192l-.864-.096-1.536.192-1.632-.096a.852.852 0 0 1-.384-.096l-.384-.096a10.502 10.502 0 0 0-1.248-.096h-.48c-.256-.192-.512-.288-.768-.288-.128 0-.352.128-.672.384-.32.256-.544.384-.672.384 0 .192-.032.32-.096.384l.096.48c.064.128.096.288.096.48 0 .128.032.32.096.576-.64.256-.992 1.184-1.056 2.784l.384.096h.672c.064.064.096.224.096.48s-.128.512-.384.768l-.48.48c.256.576.416 1.184.48 1.824 0 .128-.128.416-.384.864s-.384.832-.384 1.152l-.192-.288-.288.192V46c.128.128.384.192.768.192v.48c.064.128.128.288.192.48.32.512.608.768.864.768l.672-.288.384.384c.256.128.416.192.48.192-.064-.064.192-.256.768-.576.576.064.992.032 1.248-.096.448.448.768.672.96.672h.384l.672-.288c.064 0 .16-.032.288-.096l.384-.192.576-.192c.192 0 .416.128.672.384.32.32.512.48.576.48.192-.128.48-.224.864-.288v.192c.064.064.096.192.096.384 0 .256-.032.64-.096 1.152 0 .448-.032 1.024-.096 1.728l-.192.384c.064.192.096.64.096 1.344-.064.128-.128.352-.192.672-.064.32-.096.544-.096.672v.192c0 .128.064.448.192.96v.384c0 .448-.128.832-.384 1.152-.64.64-1.024.96-1.152.96l-.864-.288a1.58 1.58 0 0 0-.48.096l-.576.096a1.205 1.205 0 0 0-.48-.288c-.128-.128-.32-.224-.576-.288a3.725 3.725 0 0 1-.48.192c-.128 0-.32.032-.576.096l-1.056-.288c-.64-.192-1.056-.288-1.248-.288l-.96.192c-.128 0-.288-.224-.48-.672a.617.617 0 0 0 .48-.48H130.313c.256 0 .512.032.768.096l.096-.384v-.192c0-.192-.128-.416-.384-.672h-.384a2.975 2.975 0 0 0-.576-.192c-.128.128-.192.384-.192.768-.192-.064-.384.096-.576.48-.128-.128-.352-.032-.672.288v.672c-.128.128-.256.352-.384.672-.448.192-.672.448-.672.768l.192.192c.064.064.096.16.096.288v.96c0 .192-.032.448-.096.768l.288.384c-.128.384-.608 1.184-1.44 2.4v.192c0 .256.096.48.288.672.128-.384.48-.8 1.056-1.248.256.32.384.64.384.96 0 .064-.384.448-1.152 1.152l.384.672.384-.096c.256 0 .384.192.384.576-.128.128-.288.384-.48.768a1.704 1.704 0 0 0-.192.768l.288.288c0 .064-.192.48-.576 1.248l.288.768c0 .32-.224.512-.672.576.064.064.224.096.48.096l.096.288c-.192.192-.32.384-.384.576.128.384.352.608.672.672.32 0 .576.032.768.096a12.372 12.372 0 0 1 1.536-.096h1.632c.064.256.224.384.48.384.128 0 .416-.288.864-.864.384 0 .64.352.768 1.056h.288c0-.192.032-.352.096-.48.448-.192 1.12-.256 2.016-.192l1.152.48c0 .064.256.096.768.096.256 0 .416.032.48.096l1.248-.288a.651.651 0 0 0 .48-.192c.064-.064.288-.096.672-.096.512.128.768.512.768 1.152 0 .256-.096.928-.288 2.016l-.192.192a.852.852 0 0 0-.096.384v2.4l-.576.192c.448.896.672 1.632.672 2.208 0 .32-.192.64-.576.96l.288 1.248-.384.192zm.48-53.568h.096c.384 0 .704-.224.96-.672-.192-.256-.352-.384-.48-.384l-1.152.672c.192.256.384.384.576.384zm-1.728 2.016c0-.064-.096-.192-.288-.384l-.192.192.48.192zm-14.88 1.344.48-1.056-.48-.192-.384-.288c-.384.256-.576.608-.576 1.056.384.256.704.416.96.48zm-2.4 7.296a.852.852 0 0 0-.096-.384.852.852 0 0 0-.096-.384h-.672l-.096.384.384.288.576.096zm-3.552 6.912c0-.128.032-.16.096-.096l-.096.096zm5.184 2.112c.32-.512.256-.896-.192-1.152-.064.064-.16.256-.288.576 0 .192.16.384.48.576zm-2.304 1.056.096-1.44-.288-.288h-.672l-.096.288.288.576c.128.064.128.256 0 .576.192 0 .416.096.672.288zm1.248 2.496v-.48c0-.192.032-.384.096-.576-.064 0-.192.096-.384.288 0 .192.096.448.288.768zm11.52-.192h.096c.128 0 .448-.064.96-.192l-.48-.48c-.128-.192-.352-.128-.672.192 0 .256.032.416.096.48zm-9.312 9.888c.064-.064 0-.192-.192-.384-.128 0-.224.032-.288.096l.48.288zm-.288 3.072c.128 0 .384-.064.768-.192l-.288-.768c-.256.064-.384.192-.384.384l-.096.576zm-3.84 2.016v-.48c0-.192.032-.352.096-.48-.064-.064-.192 0-.384.192l.288.768zm.096 2.112c.064-.128.032-.256-.096-.384s-.288-.128-.48 0c.064.128.256.256.576.384zm-.96 5.28c.192-.256.224-.512.096-.768h-.384l-.192.576a.651.651 0 0 0 .48.192zm14.304 4.032c0-.128-.064-.256-.192-.384-.064-.064-.192-.032-.384.096 0 .192.192.288.576.288zm.288 2.112 1.728-.288-.288-.672c-.128-.32-.384-.48-.768-.48l-.864.288v.576l.192.576zm40.658 1.344-1.248-.576c-.32-.128-.736-.224-1.248-.288.064.064-.384.192-1.344.384h-.864l-.672-.192-.768-.192-.384.096a.852.852 0 0 1-.384.096l-.672-.192a.852.852 0 0 0-.384.096.852.852 0 0 0-.384.096 3.364 3.364 0 0 1-1.056.192c-.832-.128-1.216-.608-1.152-1.44l.576-2.976a2.82 2.82 0 0 1-.096-.672v-.576c0-.128.192-.384.576-.768-.256-.576-.384-1.024-.384-1.344l.192-.384c.064-.128.128-.32.192-.576-.064-.192-.096-.576-.096-1.152.192-.192.32-.384.384-.576l-.192-.864c.128-.128.224-.32.288-.576v-.576c.128-.192.224-.384.288-.576l.384-.768-.384-1.44c-.064 0-.16-.096-.288-.288l-.192-.384c.128-.384.416-.672.864-.864l.192.96c.256.448.512.672.768.672.192 0 .416-.096.672-.288v-.384l-.576-.48c0-.512-.032-.832-.096-.96-.064-.448-.32-.672-.768-.672-.192-.128-.384-.032-.576.288.192-.32.352-.736.48-1.248V62.8a2.82 2.82 0 0 0-.096-.672v-.288c0-.128.064-.384.192-.768l.096-.192-.192-.672c.192-.192.384-.32.576-.384l-.48-2.592a1.812 1.812 0 0 1-.096-.576v-.576c0-.32.032-.704.096-1.152a9.4 9.4 0 0 0 .288-1.536l.384-2.688a1.45 1.45 0 0 0 .48-.576l-.288-1.536.288-3.168.192-.96c.064-.32.16-.608.288-.864a1.16 1.16 0 0 0 .672-.672c-.064-.256-.352-.384-.864-.384.064-.064.096-.16.096-.288l-.096-.384.096-1.152-.096-.192c0-.256.288-.416.864-.48l.864-.096c.896-.896 1.344-1.44 1.344-1.632 0-.32-.16-.48-.48-.48h-.192c-.32 0-.736.128-1.248.384-.064 0-.16-.096-.288-.288l.096-1.632c.064-.128.096-.448.096-.96l-.192-.384a1.504 1.504 0 0 0-.288-.384h-.672l-.96-.672c-.064-.064-.16-.096-.288-.096a.852.852 0 0 1-.384-.096l-1.824.384a1.069 1.069 0 0 0-.48-.096 2.975 2.975 0 0 0-.576-.192c-.192.064-.576.096-1.152.096l-.864-.192-1.248.288c-.64-.064-.928-.384-.864-.96a.628.628 0 0 0 .288-.288l.384-.384-.096-.672.192-.768v-.288c0-.256-.032-.512-.096-.768l.48-.384.192-2.592c0-.064-.128-.224-.384-.48-.128-.128-.064-.352.192-.672 0-.064-.064-.224-.192-.48.128-1.152.352-1.728.672-1.728.128 0 .32.096.576.288l.48.288c.384-.256.704-.416.96-.48l1.248.48v.768c0 .256.032.544.096.864l.576.672c.384-.192.576-.384.576-.576l-.192-.384c-.064-.064-.096-.16-.096-.288 0-.128.064-.224.192-.288.128-.128.224-.288.288-.48l.48-.96.576.576c.256.256.512.544.768.864h.192c.32 0 .512-.096.576-.288.064-.256.16-.384.288-.384.192-.064.416-.096.672-.096a1.56 1.56 0 0 1 .768 0l.672.288c.256.064.416.16.48.288a.737.737 0 0 0 .288.096c.064 0 .288-.256.672-.768.32.128.416.352.288.672-.064.256 0 .512.192.768l.672-.288c.064.064.128.096.192.096s.128.032.192.096c.128.192.352.512.672.96h.288l.288-.96c.128-.384.288-.576.48-.576.256 0 .576.096.96.288l.288.576.384.096v-.768l.864.096c.384 0 .8.128 1.248.384l.48.576 1.632-.768c.192.128.416.256.672.384.064-.064.288-.16.672-.288.192 0 .576.192 1.152.576l.768-.48h.384c0 .064.064.16.192.288v.192c0 .256.128.512.384.768.32.064.512-.032.576-.288l.288-.672c.32-.192.672-.288 1.056-.288.32.064.544.16.672.288l.192.288h.768c.256-.064.544-.128.864-.192a.651.651 0 0 1 .192.48c-.128.512-.256.96-.384 1.344.128.448.128.832 0 1.152-.32.32-.448.672-.384 1.056l.096.48c.064.192.096.384.096.576 0 .384-.224.704-.672.96v.096c0 .32-.16.64-.48.96.192.448.288.928.288 1.44l.384.192c.128.064.256.16.384.288l-.096 1.056c-.448.32-.832.48-1.152.48l-.48-.384a1.069 1.069 0 0 0-.48-.096 1.58 1.58 0 0 1-.48-.096h-.48c-.128 0-.224.032-.288.096h-.192c-.32 0-.512-.128-.576-.384-.128-.128-.288-.032-.48.288l-1.152-.096a4.45 4.45 0 0 0-.864-.096c-.192 0-.32-.032-.384-.096-.256-.064-.48-.512-.672-1.344l-.288-.096v.48l-.768.768a3.725 3.725 0 0 1-.48.192l-.576.288-.192 1.92h-.288c-.448 0-.768.224-.96.672.192.128.384.32.576.576.256.192.512.448.768.768.128.256.16.512.096.768-.064.064-.096.192-.096.384s-.032.448-.096.768a1.45 1.45 0 0 0-.576.48l.288 1.248v.864c-.128.448-.32.896-.576 1.344-.064-.128-.288-.32-.672-.576-.448 0-.896.128-1.344.384-.448 1.024-.48 1.536-.096 1.536l2.016-.096c0 .192.032.416.096.672.064.064.032.224-.096.48l.192.384c.064.192.064.32 0 .384l-.192.48a1.117 1.117 0 0 1-.192.288c-.064.064-.096.128-.096.192 0 .384.128.576.384.576v.576c0 .704-.128 1.344-.384 1.92l.096 1.44-.192.192c-.064.064-.128.16-.192.288l.096.288v.192c.064 0 .096.032.096.096l.096 1.056-.576 1.44c-.064.192-.224.288-.48.288a4.045 4.045 0 0 0-.672-.096c-.064.064-.128.224-.192.48 0 .256.224.416.672.48l.96.288v.384l-.48.576c-.064.064-.16.416-.288 1.056-.256.064-.384.256-.384.576 0 .64-.032.992-.096 1.056l.48.288c.064.192.096.448.096.768 0 .64-.16 1.12-.48 1.44-.32.32-.48.512-.48.576l.192.672c.128.256.096.512-.096.768.192.768.256 1.312.192 1.632a49.123 49.123 0 0 0-.288 1.92 7.794 7.794 0 0 0-.096.96l.192.384c.128.256.128.448 0 .576 0 .256-.128.512-.384.768l-.384.384a1.117 1.117 0 0 1-.192.288l.192.384c-.064.064-.096.256-.096.576.192.704.32 1.056.384 1.056.128 0-.032.288-.48.864-.192-.192-.48-.288-.864-.288-.256 0-.736.096-1.44.288 0-.448-.16-.672-.48-.672-.256 0-.416.224-.48.672v.096c0 .832.64 1.312 1.92 1.44a.651.651 0 0 0 .48-.192c.256-.192.288-.416.096-.672l.384.576c.192.192.416.384.672.576.064.064.096.224.096.48s-.032.64-.096 1.152c-.064.512-.16 1.152-.288 1.92-.128.128-.256.192-.384.192zm-10.464-54.72c.064-.128.032-.256-.096-.384-.064-.064-.192-.064-.384 0 0 .128.16.256.48.384zm20.832 1.344.192-.384c.128-.192.224-.416.288-.672.064-.448-.096-.672-.48-.672-.128 0-.384.064-.768.192l.768 1.536zm-2.496.576c.064-.064.224-.16.48-.288-.064-.064-.224-.064-.48 0v.288zm-17.088 1.056h.096c.192 0 .48-.096.864-.288l.096-.384a1.205 1.205 0 0 0-.48-.288c-.192 0-.32.128-.384.384l-.192.576zm18.24-.288c.192.064.384-.032.576-.288-.064-.064-.16-.096-.288-.096-.192 0-.288.128-.288.384zm-13.536.768c.192.064.384-.032.576-.288-.128-.128-.224-.192-.288-.192-.192 0-.288.16-.288.48zm-.192 16.512v-.384c-.064-.064-.16-.096-.288-.096l.288.48zm.288 4.8c.064-.064.096-.16.096-.288 0-.192-.128-.288-.384-.288-.064.192.032.384.288.576zm2.88 6.144c.064-.128.032-.256-.096-.384s-.288-.128-.48 0c0 .128.192.256.576.384zm-3.84 1.248c.128.128.32.064.576-.192-.128-.128-.224-.192-.288-.192-.192 0-.288.128-.288.384zm4.224 5.568c.128.064.32-.032.576-.288-.064-.064-.192-.096-.384-.096s-.256.128-.192.384zm-1.44 9.12c.32 0 .512-.192.576-.576 0-.192-.032-.32-.096-.384l-.576-.096c-.128-.256-.224-.416-.288-.48l-.384-.096-.288.672c0 .512.352.832 1.056.96zm-5.376 5.184c.064 0 0-.128-.192-.384-.064 0-.16.064-.288.192l.48.192zm28.319 3.936c-.384 0-.864-.128-1.44-.384l.096-.672c-.064.128-.128-.288-.192-1.248 0-.192.096-.384.288-.576a1.58 1.58 0 0 0-.096-.48 2.82 2.82 0 0 0-.096-.672l-.288-.96c.064-.448.096-.928.096-1.44l.192-1.536-.288-.576V74.8a5.044 5.044 0 0 0-.48-.768l-.384-.768v-.288c0-.32.096-.576.288-.768l.96-.768c-.128-.128-.256-.192-.384-.192h-.096l-.096.096-.768-.576c.576-.576.608-1.024.096-1.344.32-.192.512-.416.576-.672.064-.064.032-.288-.096-.672-.192-.512-.288-.8-.288-.864-.064-.448-.128-.8-.192-1.056 0-.32.032-.544.096-.672l.288-.576v-.576l.096-.288-.288-.288h-.48c-.128-.128-.192-.32-.192-.576l.288-1.824.288-.288c.064-.064-.064-.224-.384-.48v.096l-.096-.48c0-.384-.032-.928-.096-1.632.064-.192.096-.608.096-1.248l-.192-.192a1.117 1.117 0 0 1-.192-.288l-.192-2.592c0-.128.096-.288.288-.48-.064-.128-.096-.352-.096-.672l.288-.576v-1.056c0-.448-.032-.896-.096-1.344 0-.256-.224-.48-.672-.672l-.096-.672c.256-1.216.288-1.824.096-1.824h-.192v-.096c0-.064-.032-.128-.096-.192l.288-.768c.192-.384.288-.64.288-.768-.192-.128-.384-.416-.576-.864v-1.44c-.064-.064-.096-.128-.096-.192 0-.128-.032-.224-.096-.288-.064-.064-.032-.224.096-.48a33.478 33.478 0 0 0-.192-1.056v-.864l.096-.384a.852.852 0 0 0 .096-.384l-.192-3.072-.192-.864c-.064-.256-.128-.416-.192-.48a.737.737 0 0 1-.096-.288l.192-2.496-.192-.384a5.268 5.268 0 0 0-.288-.672l.192-.672c.128-.32.16-.48.096-.48l-.288-1.344c.064-.256.064-.576 0-.96a2.423 2.423 0 0 0-.288-.576 9.223 9.223 0 0 1-.192-.672l.192-.192c.064.064.16.096.288.096.32 0 .544-.16.672-.48h.288l.864.192.576-.192.576-.096c.384 0 .8.224 1.248.672.256-.064.512-.32.768-.768.704.384 1.056.608 1.056.672l1.152-.48c.064 0 .256.16.576.48h.288c.064-.064.128-.16.192-.288l.384-.384c.256-.128.48-.192.672-.192h.096c.512 0 .768.32.768.96.128.512.128 1.12 0 1.824l-.288.672c.064.128.096.352.096.672-.128.384-.192.64-.192.768l.672 1.632c0 .32-.032.576-.096.768l.096 2.4a3.569 3.569 0 0 0-.096.864c0 .32-.032.64-.096.96l.288.48c-.064.192-.096.576-.096 1.152.064.128.128.288.192.48.064.128.128.32.192.576l-.096 1.248-.192.192c0 .064-.064.128-.192.192 0 .064.032.096.096.096.128.128.192.256.192.384 0 .32-.032.608-.096.864s-.032.48.096.672c.128.064.256.192.384.384.128.128.256.288.384.48v.096c0 .064-.032.128-.096.192l-.096.48c.064.128.096.448.096.96 0 .192-.128.416-.384.672.128.512.16.864.096 1.056l-.096.384c0 .512.256.704.768.576l2.976-.48c.064 0 .224.096.48.288.256.192.416.256.48.192a5.285 5.285 0 0 0 2.4-.96c.448.064.736-.064.864-.384v-.096c0-.256-.16-.48-.48-.672a1.504 1.504 0 0 0-.288-.384 2.423 2.423 0 0 0-.288-.576l.192-1.344-.096-.096c0-.128-.032-.32-.096-.576-.128-.32-.128-.576 0-.768l.384.096c.064 0 .096.032.096.096h.192c.32 0 .48-.128.48-.384 0-.448-.16-.672-.48-.672l-.672.48v-.48l.288-1.248-.192-.672c.768-.128 1.152-.288 1.152-.48 0-.128-.192-.224-.576-.288-.32 0-.736-.096-1.248-.288l.096-.672.192-.576-.288-1.152c.192-.96.256-1.472.192-1.536a6.642 6.642 0 0 0-.192-.768c0-.256.032-.512.096-.768a3.569 3.569 0 0 1-.096-.864v-1.152c-.256-.256-.384-.608-.384-1.056 0-.448.16-1.088.48-1.92l-.384-.384a3.146 3.146 0 0 1-.384-.48l.384-1.248c0-.128-.192-.48-.576-1.056.192-.192.48-.32.864-.384.32 0 .608.064.864.192.128.192.288.288.48.288l.96-.384c.32-.128.672-.256 1.056-.384.256 0 .416.096.48.288.064.256.288.384.672.384.32 0 .8-.224 1.44-.672.128 0 .256.064.384.192v.288c-.192.064-.352.224-.48.48l.096.48.288.096c.256 0 .352-.128.288-.384v-.48c.448-.128.896-.288 1.344-.48.448-.192.896-.352 1.344-.48.064 0 .288.064.672.192-.064.128-.096.448-.096.96.064.128.128.288.192.48.064.128.128.32.192.576-.064.256-.096.864-.096 1.824l-.576.384c-.256.192-.384.352-.384.48.128.064.32.032.576-.096.256.064.384.224.384.48-.064.064-.128.192-.192.384a3.725 3.725 0 0 0-.192.48l.288.384c.128.192.128.512 0 .96-.064 0-.064.032 0 .096.192.384.288.768.288 1.152 0 .64-.192 1.216-.576 1.728-.32.448-.736.704-1.248.768l-.288-.096h-.192c0-.064-.032-.096-.096-.096-.128.128-.192.256-.192.384.064.192.16.352.288.48l1.344.192a.651.651 0 0 0 .48-.192l-.192.672.192.096.576-.288c.192.256.32.512.384.768 0 .256-.032.512-.096.768 0 .256-.032.544-.096.864.128.256.192.544.192.864-.064.384-.416.992-1.056 1.824.32.128.704.448 1.152.96v.672c.064.128.128.288.192.48.128.128.224.32.288.576l-.192.576-.192.576.384 1.152v.672c.128.128.224.288.288.48l-.096.576c.064.32.096.736.096 1.248v1.536l-.192.096-.288-.48v-.096h-.096l-.096.096c-.384 0-.576.224-.576.672.128.384.576.672 1.344.864l-.192.576.48 1.344a1.714 1.714 0 0 0-.48.48c.192.448.288.864.288 1.248 0 .448-.192.864-.576 1.248l.384.192v.48c.064.192.128.416.192.672l.192.768v.96c.064.256.096.512.096.768 0 .96-.096 1.44-.288 1.44h-.384c-.064-.064-.128-.096-.192-.096-.32 0-.48.064-.48.192 0 .256.416.672 1.248 1.248.064.128-.064.256-.384.384l-.096.192.192.576c.32.704.416 1.12.288 1.248-.128.064-.32.096-.576.096l.192.384c.32.192.704.544 1.152 1.056l-.288.384c-.064.128-.096.32-.096.576 0 .256-.032.544-.096.864l.192.672c.128.32.064.544-.192.672l-.096.192c.512.064.8.448.864 1.152.128.32.096.608-.096.864l-.288.384c0 .256-.096.64-.288 1.152.256.192.512.544.768 1.056 0 .384-.16.832-.48 1.344l.576.48c-.064.192-.096.544-.096 1.056l.288.864v.192c0 .32-.128.608-.384.864a.921.921 0 0 0 .672.288c0 .064-.032.192-.096.384 0 .128-.032.288-.096.48-.256.384-.704.576-1.344.576-.256-.256-.48-.608-.672-1.056l.288-.384a1.504 1.504 0 0 0-.288-.384 2.234 2.234 0 0 1-.384-.576h-.576v.288c.064.192.32.512.768.96l-.672.96c-.256.064-.576.128-.96.192l-.96.192c-.064-.064-.192-.128-.384-.192a3.725 3.725 0 0 0-.48-.192c-.064.064-.192.128-.384.192a1.069 1.069 0 0 1-.48.096h-.96l-2.112.576c-.576 0-.832-.192-.768-.576l.096-.48a1.58 1.58 0 0 0 .096-.48 1.069 1.069 0 0 1-.096-.48v-.768c0-.128.128-.32.384-.576-.064-.256-.32-.48-.768-.672v-.672c.32-.192.576-.8.768-1.824h-.096c-.32 0-.64-.128-.96-.384l-.096-.672a1.117 1.117 0 0 0-.192-.288V74.8l.192-.96a4.45 4.45 0 0 0 .096-.864v-.672l-.096-.192c.064-.064.096-.448.096-1.152l-.192-3.648c.128-.064.352-.256.672-.576l-.672-.384c-.064-.32-.128-.608-.192-.864-.064-.32-.128-.608-.192-.864l.192-.384.192-.384a1.673 1.673 0 0 1-.48-.864l.288-.672h.096c.192 0 .224-.384.096-1.152-.064-.704-.192-1.12-.384-1.248-.256-.256-.384-.608-.384-1.056v-.192c0-.32.096-.608.288-.864-.384 0-.896-.224-1.536-.672-.064.192-.32.448-.768.768h-.768a4.45 4.45 0 0 1-.864-.096l-.576-.384c-.192.192-.48.384-.864.576l-.192-.096h-.384l-.48.288c-.256.192-.448.288-.576.288l-.096-.096h-.096c-.192 0-.352.096-.48.288l.576.864c.128.064.128.352 0 .864 0 .192.096.384.288.576-.064-.064-.096.224-.096.864l-.384.48c.192.192.288.512.288.96v1.152c.128.32.256.512.384.576-.32.32-.48.544-.48.672l.576 1.632c0 .128-.032.288-.096.48 0 .128-.032.32-.096.576v.192c0 .192.096.448.288.768.064.064.096.224.096.48l-.096 1.44c-1.024.768-1.536 1.28-1.536 1.536 0 .192.192.352.576.48l1.344.384v.768c0 .384.032.992.096 1.824h-1.152c-.128.256-.16.512-.096.768v.096c0 .192.128.416.384.672.192-.128.288-.256.288-.384h.384c.448.96.672 1.6.672 1.92l-.48.672.288.384c.128.192.192.416.192.672 0 .256-.192.448-.576.576.192.192.384.48.576.864 0 .064-.096.256-.288.576-.192.256-.352.384-.48.384l-1.344-.288c-.192.128-.512.224-.96.288l-.864-.096-.96-.192-1.632.48-.864-.288c-.256 0-.416.128-.48.384a.921.921 0 0 1-.672.288zm-1.824-55.008c.192.064.384-.032.576-.288-.064-.064-.192-.096-.384-.096s-.256.128-.192.384zm3.744 2.016c.064-.128 0-.256-.192-.384-.064-.128-.192-.096-.384.096.128.192.32.288.576.288zm12.384 3.456.192-.288c0-.32.16-.544.48-.672.32-.128.48-.288.48-.48l-.096-.288v-.096c-.128-.128-.384-.128-.768 0 .128.384.128.64 0 .768-.32 0-.576.096-.768.288l.48.768zm-12.576 8.256c0-.128-.064-.256-.192-.384 0-.064-.064-.032-.192.096l.384.288zm2.592 4.032v-.096l.096-.096c0-.384-.192-.448-.576-.192 0 .128.16.256.48.384zm8.832 2.88c-.064 0 .032.096.288.288v-.288c-.064-.128-.16-.128-.288 0zm1.344 5.088c.064-.064.096-.16.096-.288 0-.192-.128-.256-.384-.192-.128.128-.032.288.288.48zm-15.072 4.704c.192 0 .288-.064.288-.192v-.288l-.672-.096-.096.288c0 .064.064.16.192.288h.288zm16.512 12.096c.832-.32 1.184-.64 1.056-.96 0-.256-.192-.32-.576-.192l-.48 1.152zm-1.344.48v.096-.096zm-11.808 6.144c.448-.064.672-.288.672-.672 0-.704-.192-1.056-.576-1.056-.704.128-1.056.352-1.056.672v.288c.064.128.16.256.288.384.256.256.48.384.672.384zm17.664 2.016c.128 0 .256-.16.384-.48-.128-.064-.256-.032-.384.096s-.128.256 0 .384zm9.136 3.072c-.448 0-.8-.064-1.056-.192 0-.768.096-1.856.288-3.264.32-.128.512-.384.576-.768V76.72c.064-.576.096-1.184.096-1.824.32-.128.48-.352.48-.672v-.96l-.192-.384v-1.824a1.937 1.937 0 0 1-.096-1.056l.096-.672v-.384a.737.737 0 0 0 .096-.288l.192-.192c.064-.064.128-.16.192-.288.128-.384.192-.704.192-.96 0-.064-.096-.224-.288-.48-.192-.192-.288-.352-.288-.48 0 .064.128-.16.384-.672.192-.32.288-.672.288-1.056l1.728-1.536a1.511 1.511 0 0 1-.576-.384l-.096-.672c0-.192-.096-.384-.288-.576-.256-.192-.384-.384-.384-.576v-1.056c0-.32.032-.64.096-.96.064-.064.096-.16.096-.288 0-.128.032-.288.096-.48l-.288-.96c.128-.128.224-.32.288-.576l.384-.96v-.192c0-.128-.064-.448-.192-.96v-.48c.064-.192.096-.416.096-.672l.096-1.056a19.08 19.08 0 0 0 .096-1.536c.064-.32.096-.416.096-.288 0-.832-.032-1.216-.096-1.152l.192-.384c.064-.128.128-.32.192-.576l.096-1.248c.192-.192.384-.576.576-1.152-.128-.32-.256-.8-.384-1.44 0-.064.096-.192.288-.384.192-.192.288-.32.288-.384l-.48-.576v-.48a2.364 2.364 0 0 1 .096-1.152.86.86 0 0 0 .48-.576V39.76c0-.32-.032-.704-.096-1.152l-.192-.576c-.064-.32 0-.576.192-.768l.576-.384c-.064-.128-.096-.32-.096-.576v-.96c0-.128.032-.256.096-.384s.128-.32.192-.576l.192-.768-.192-.384c-.192-.192-.288-.32-.288-.384 0-.448.128-.832.384-1.152.256-.32.384-.64.384-.96l-.48-.864v-.384c0-.128.032-.288.096-.48l.192-.384c.064-.128.128-.32.192-.576l-.192-2.304c0-.512.192-.8.576-.864.32 0 .608.096.864.288.256.256.416.384.48.384l2.496-.864.768.096.672.192.48-.192.384-.192h1.44c0 .064.096.128.288.192.192.064.352.096.48.096l1.344-.288c.128-.128.288-.128.48 0l.384.096c.128 0 .448-.16.96-.48l.48.096.096 1.92c-.128.384-.256.672-.384.864-.128.256-.192.448-.192.576v.384c-.256.064-.384.352-.384.864l-.384.096c-.384-.448-.736-.736-1.056-.864v.192c0 .128.128.352.384.672.256.32.384.576.384.768l-.096.096c-.128.128-.192.32-.192.576l1.152-.096v-.384c.064-.192.128-.416.192-.672h.288c.128.256.416.64.864 1.152l.096.576.192.192c.064.064.128.16.192.288 0 .064-.064.16-.192.288-.128.256-.192.416-.192.48l.768 1.056c.448.64.672 1.024.672 1.152 0 .192-.192.384-.576.576l-.672.384v.192l1.056.48c.064.192.16.544.288 1.056.128.064.32.288.576.672l-.288.672c-.192.448-.288.704-.288.768l1.152 1.536-.48.672c.064.064.288.224.672.48v1.056c.128.192.224.48.288.864v.192c0 .384-.096.768-.288 1.152l.672.384.576 1.92-.288.768c.128.128.224.288.288.48v.48c0 .448.288.864.864 1.248l-1.056 1.056c-.512.512-.768.864-.768 1.056 0 .32.448.544 1.344.672.896.128 1.376.448 1.44.96 0 .192-.096.384-.288.576.192.64.288 1.152.288 1.536l-.192.288c-.064.192-.096.32-.096.384l.864 1.728c0 .128-.096.352-.288.672l.576.576c0 .384.032.704.096.96.128.128.288.32.48.576.192.256.288.608.288 1.056.064.064 0 .288-.192.672-.192.448-.288.736-.288.864 0 .064.224.416.672 1.056v.384c.064.128.128.288.192.48.128.064.256.192.384.384.128.128.256.288.384.48 0 .256-.128.416-.384.48l-.576.288v.768l.384.192c.192.064.416.16.672.288.128.128.192.544.192 1.248l-.192.288c0 .448.192.832.576 1.152l.768.288-.48.672.192.192c.064.064.128.16.192.288v.576h-.672l-.096.096c.064 0 .064.032 0 .096l-.192.192c.384.32.8.768 1.248 1.344l.48 1.824v1.344c.256.384.48.96.672 1.728l-.096.288c-.576.384-1.12.576-1.632.576l-.768-.288-1.248.192c-.32.064-.576.128-.768.192-.192.064-.32.096-.384.096l-.48-.096c-.192-.064-.32-.064-.384 0h-.192c-.128.064-.32.128-.576.192a2.127 2.127 0 0 1-.672.096h-1.056a1.58 1.58 0 0 0-.48.096c-.128.128-.352.256-.672.384-.576 0-.896-.416-.96-1.248 0-.064.256-.544.768-1.44.256-.448.448-.8.576-1.056l.288-.576-.864.288c-.448.192-.8.288-1.056.288h-.096l-.288-1.632-.48-1.056c0-.448.256-.864.768-1.248-.064 0-.224-.16-.48-.48a1.673 1.673 0 0 1-.48-.864c-.064-.128-.16-.512-.288-1.152l-.288-.288v-.672l.192-.384c-.384-.704-.992-1.056-1.824-1.056l-.48.192-.576-.096a1.812 1.812 0 0 0-.576-.096l-1.152.192a6.12 6.12 0 0 0-.864.192.737.737 0 0 1-.288.096c-.064.064-.224.032-.48-.096s-.416-.192-.48-.192l-.384.192c-.384.128-.608.192-.672.192l-.096.288c.064 0 .128.032.192.096.064 0 .16.032.288.096v.384l-.48-.192c-.192.192-.288.352-.288.48.256.192.48.512.672.96l-.288.768-.192.768a3.725 3.725 0 0 1-.192.48c.064.192.096.64.096 1.344-.384 1.6-.576 2.336-.576 2.208 0 .064.032.192.096.384.064.128.128.32.192.576l.192.96-.288.48c-.192.256-.288.48-.288.672v.192c0 .256.096.576.288.96v.192c0 .32-.32.48-.96.48l-.768-.096-.864-.192a3.725 3.725 0 0 1-.48.192 2.127 2.127 0 0 1-.672.096h-.768l-3.264.576a1.812 1.812 0 0 1-.576.096h-.48zm12.96-55.392c.064-.128.032-.256-.096-.384-.064-.064-.224-.032-.48.096.128.192.32.288.576.288zm4.608 9.984c.448 0 .736-.16.864-.48-.064.064-.128-.128-.192-.576l-.576.096c-.192 0-.352.096-.48.288-.064.064-.032.224.096.48.128.128.224.192.288.192zm-11.232 7.392c0-.064-.096-.192-.288-.384l-.192.192c.064.064.128.096.192.096.128 0 .224.032.288.096zm6.72 15.744 1.344-.48c.192-.064.416-.288.672-.672l-.192-2.784c-.512-.32-.704-1.248-.576-2.784l-.288-.288-.384-1.728c0 .064.096-.192.288-.768l-.576-.48.864-.384-.768-.384c0-.32-.096-.704-.288-1.152-.128-.32-.224-.576-.288-.768a9.223 9.223 0 0 0-.192-.672c0-.768.192-1.344.576-1.728l-.864-.192-.864.288v.192c0 .256-.192.48-.576.672 0 .512-.128.8-.384.864v.864c.064.32.128.704.192 1.152 0 .064-.096.256-.288.576l.096.48v.288c.064.064.096.16.096.288 0 .192-.032.384-.096.576v.672a6.463 6.463 0 0 0-.096 1.056v.672l.096 1.536c-.064.448-.352.832-.864 1.152l-1.152.768a2.444 2.444 0 0 0-.576.576 1.504 1.504 0 0 0-.288.384h.96a2.86 2.86 0 0 1 .384-.288c.256-.192.416-.288.48-.288h.096c.256 0 .448.256.576.768.064.704.16 1.12.288 1.248 1.664.512 2.528.768 2.592.768zm-6.528-14.304c.064-.128.032-.256-.096-.384-.064 0-.224.064-.48.192.128.192.32.256.576.192zm-1.248 10.272 1.056-.096v-.48l-.288-.384-.576.192-.96-.192c.128.128-.032.256-.48.384-.448.064-.544.16-.288.288h.576c.32.192.64.288.96.288zm16.224 7.296.192-.096h.096c0-.064.032-.096.096-.096l-.192-.288a.651.651 0 0 1-.192.48zm.192 2.784c-.064-.128-.096-.352-.096-.672.256-.064.48-.288.672-.672h-.576a6.642 6.642 0 0 0-.768-.192c-.256.512-.448.8-.576.864-.064.064-.096.16-.096.288v.288l.672-.48.192.192.096.384h.48zm-3.648.576c.128 0 .256-.064.384-.192s.096-.256-.096-.384c-.192 0-.288.192-.288.576zm5.088 5.568c0-.128-.064-.256-.192-.384s-.256-.064-.384.192c0 .192.192.256.576.192zm-21.888 6.144.768-.288c.576-.192.672-.416.288-.672h-.288c-.256 0-.512.128-.768.384v.576zm2.016 1.92c.064-.128.032-.256-.096-.384-.064-.064-.224-.032-.48.096.128.192.32.288.576.288zm55.509 1.344-2.208-.096a1.58 1.58 0 0 1-.48-.096c-.128 0-.32-.032-.576-.096l-.864-.192c-.32.064-.704.096-1.152.096-.384 0-.8.032-1.248.096-.256 0-.576-.256-.96-.768l-.384-.48c-.064-.128-.096-.32-.096-.576 0-.256-.032-.512-.096-.768l-.48-1.536v-1.056l-.384-.384a.921.921 0 0 1-.288-.672c.064-.128.128-.288.192-.48s.16-.416.288-.672l-.672-.384c-.064-.192-.096-.448-.096-.768 0-.448.128-.832.384-1.152-.192-.128-.416-.384-.672-.768l-.48-.384c.064-.128.096-.352.096-.672 0-.512-.352-1.216-1.056-2.112 0-.128.032-.384.096-.768s.096-.672.096-.864c-.448-.064-.8-.672-1.056-1.824-.192-.64-.384-1.44-.576-2.4l.288-1.152c-.768-.896-1.152-1.568-1.152-2.016 0-.192.192-.704.576-1.536-.064-.192-.224-.32-.48-.384l-.192-.384a1.117 1.117 0 0 0-.288-.192l-.288-.288c0-.64-.256-.96-.768-.96-.448-.064-.8-.032-1.056.096l-.576.384v.48c.448.448.672.64.672.576 0 .064-.064.16-.192.288v.672a1.504 1.504 0 0 0-.288.384l-.192.192c.32.32.48.64.48.96l-.384.96v.96c-.32.192-.48.384-.48.576 0 .064.064.16.192.288l.192.384c-.064.256-.128.64-.192 1.152-.064.448-.128.992-.192 1.632.128.256.224.544.288.864.064.256.128.576.192.96l-.288.672v2.304l-.192.384c0 .128-.032.32-.096.576 0 .256-.032.544-.096.864-.192.384-.384.864-.576 1.44 0 .064.096.192.288.384a.737.737 0 0 1 .096.288c.064.064.096.128.096.192l-.192 3.936a.852.852 0 0 0-.096.384v.096l.096 2.304c-.064.192-.256.288-.576.288l-.96-.288-.768.096a2.626 2.626 0 0 1-.576.096H262.783c-.384 0-.704-.064-.96-.192l-.768-.288c-.064 0-.16.096-.288.288h-.672c-.192 0-.352.032-.48.096h-.192l-1.824-.096c-.512 0-.768-.256-.768-.768 0-.256.032-.544.096-.864.128-.384.224-.8.288-1.248V77.2c0-.512-.032-1.024-.096-1.536l.864-.864a1.511 1.511 0 0 1-.384-.576 1.905 1.905 0 0 1-.192-.864c0-.832.256-1.504.768-2.016-.512-.512-.768-.896-.768-1.152.128-.512.288-.832.48-.96.192-.064.352-.32.48-.768l-.288-.576c0-.448.096-1.088.288-1.92-.128-.192-.192-.672-.192-1.44v-.768c0-.32.032-.64.096-.96-.064-.064-.096-.16-.096-.288a1.58 1.58 0 0 0-.096-.48l.48-3.36v-.96c0-.384-.032-.8-.096-1.248l.288-.384a5.394 5.394 0 0 1-.096-1.056V53.68c0-.32.096-.512.288-.576l.576-.192a1.117 1.117 0 0 1-.192-.288 9.223 9.223 0 0 1-.192-.672 1.58 1.58 0 0 0-.096-.48 2.82 2.82 0 0 0-.096-.672l-.384-.768.768-2.592-.096-1.632a7.794 7.794 0 0 1-.096-.96v-.48l.576-2.688c.128-.128-.032-.384-.48-.768.32-.384.48-.96.48-1.728l-.096-1.44c.064-.128.128-.224.192-.288l.192-.384.288-1.248.096-1.44-.384-1.44.576-3.072c0-.384-.032-.608-.096-.672-.32-.64-.48-1.376-.48-2.208 0-.512.032-.96.096-1.344.128-.448.224-.8.288-1.056.064-.256.32-.384.768-.384.32 0 .576.096.768.288.064.256.224.384.48.384l.672-.576c.768.32 1.248.48 1.44.48l.96-.192c.128 0 .288.032.48.096l.864-.096c.256-.064.416-.096.48-.096h.288c.896 0 1.504.256 1.824.768 0 .704.32 1.696.96 2.976a3.725 3.725 0 0 1-.48.192c-.192.064-.384.16-.576.288-.064.128.032.352.288.672.32.32.608.544.864.672-.192.192-.32.416-.384.672.064-.128.448.608 1.152 2.208.064 0 .128.544.192 1.632l-.192 1.056.768.576.576 2.208v1.056l.576.672c-.064.064-.064.256 0 .576l.48.864a1.812 1.812 0 0 0-.096.576v.48c0 .448.032.736.096.864l.096.576.48.768v.192c0 .384.128.832.384 1.344a7.58 7.58 0 0 0-.288 1.152c0 .384.032.768.096 1.152l.768.864c.064.192.128.448.192.768.064.256.16.544.288.864.192.192.384.512.576.96.128.384.288.672.48.864-.064.064-.096.256-.096.576v.768c.064.32.128.704.192 1.152.192 1.6.512 2.592.96 2.976.064.064.096.192.096.384 0 .256-.16.864-.48 1.824-.384.832-.576 1.376-.576 1.632 0 .128.064.192.192.192h.096c.576-.192 1.024-1.12 1.344-2.784l.48-2.592c.064-.192.096-.544.096-1.056 0-.448-.032-.96-.096-1.536a28.29 28.29 0 0 0-.288-1.92l-.288-.48.48-.672-.192-.384c-.192-.192-.288-.352-.288-.48.064-.192.096-.416.096-.672.064-.32.064-.64 0-.96l-.096-.864c0-.192-.032-.32-.096-.384v-.288c.128-.704.832-1.376 2.112-2.016.064-.064-.16-.288-.672-.672l-.864-.672v-1.728l.48-.672c-.064-.064-.224-.288-.48-.672l.192-.384a.852.852 0 0 0 .096-.384c.064-.384.064-.992 0-1.824l-.192-1.344c0-.32.192-.704.576-1.152.256-.448.48-.672.672-.672a.651.651 0 0 0-.48-.192c-.256-.384-.288-.864-.096-1.44-.384-.512-.544-.864-.48-1.056l.48-.864a7.603 7.603 0 0 1-.096-1.248v-1.344l.096-3.168c0-.768.288-1.088.864-.96l.768.48.768.48c.128 0 .416-.096.864-.288l.768-.288c.064 0 .32.128.768.384.32.256.544.384.672.384s.48-.096 1.056-.288l.864-.288c.192 0 .32.032.384.096l.192.192.384-.192a.852.852 0 0 1 .384-.096c.192 0 .448.256.768.768l-.48.576c0 .064.032.16.096.288.064.064.128.16.192.288l.192.576c0 .064-.096.192-.288.384-.256.256-.384.448-.384.576l.096.768c.064.192.096.352.096.48v.288c0 .128-.032.32-.096.576a6.642 6.642 0 0 0-.192.768l-.192.864c.064.128.128.288.192.48l.192.384c0 .064-.128.224-.384.48-.064.192-.096.48-.096.864-.064.384-.352.672-.864.864 0 .064.128.128.384.192.128.064.224.128.288.192l.192.192c0 .064-.096.16-.288.288l-.384.288c.32.32.608.736.864 1.248.128.448.128.928 0 1.44.064.064.096.192.096.384l-.48 1.344c-.128.448-.256.768-.384.96-.128.192-.192.32-.192.384 0 .192.256.544.768 1.056l-.192.96c-.32.128-.736.224-1.248.288l-.672.576-.288.96c.064.064.096.192.096.384l.288.192c.128 0 .32-.128.576-.384.32-.192.512-.288.576-.288l.288.192c.064.32.128.704.192 1.152.064.384.128.8.192 1.248a207.212 207.212 0 0 1-.288 2.496c-.064.064-.128.192-.192.384s-.16.448-.288.768l.192 1.152c-.192.064-.288.384-.288.96v1.152c-.064.064-.096.16-.096.288 0 .064-.032.16-.096.288l-.768.384.288.288c.128.064.256.16.384.288-.064.192-.064.48 0 .864 0 .064.096.16.288.288.192.064.288.192.288.384 0 .128-.224.384-.672.768.064.384.064.704 0 .96-.192.384-.288.544-.288.48.064.64.16.864.288.672-.128.192-.352.384-.672.576l-.192.864.48.768c.256.448.384.736.384.864s-.096.32-.288.576l-.384.384.288 1.152c.192.768.256 1.184.192 1.248 0 .96-.288 1.44-.864 1.44l-.288-.192c-.064 0-.096.096-.096.288 0 .32.064.608.192.864.192.192.384.32.576.384l.192.384-.192.672c-.192.384-.288.64-.288.768l.096.288v.192c0 .64.032 1.056.096 1.248l.192.384-.192 2.784c0 .064-.096.192-.288.384v1.248c-.064.064-.16.288-.288.672v.096c0 .32.224 1.024.672 2.112l-.096.192h-.672c-.32.064-.8.064-1.44 0zm1.632-53.76c.128-.128.256-.192.384-.192 0-.064-.064-.16-.192-.288l-.192.48zm-22.272 1.056c.192.064.384-.032.576-.288-.128-.128-.224-.192-.288-.192-.192 0-.288.16-.288.48zm3.744 1.344c.192.064.384-.032.576-.288-.064-.064-.16-.096-.288-.096-.192 0-.288.128-.288.384zm14.688.48c.128.064.256.032.384-.096.064-.064.032-.224-.096-.48-.192 0-.288.192-.288.576zm4.32 6.144c.064-.128.032-.256-.096-.384-.064-.128-.192-.096-.384.096 0 .192.16.288.48.288zm-20.352 6.816c.064-.064.096-.16.096-.288 0-.192-.128-.288-.384-.288-.064.192.032.384.288.576zm2.88 4.704c.064-.128.032-.256-.096-.384s-.256-.128-.384 0c0 .128.16.256.48.384zm17.088.672c.064-.128.032-.256-.096-.384s-.256-.128-.384 0c0 .128.16.256.48.384zm-21.888 1.44h1.344c.448 0 .8-.064 1.056-.192l-.384-.864a2.423 2.423 0 0 0-.576-.288l-.384-.192c-.32 0-.64.096-.96.288l-.288.864.192.384zm18.144 0c.192.064.384-.032.576-.288-.064-.064-.16-.096-.288-.096-.192 0-.288.128-.288.384zm-20.448 5.088.192-.192.192-.192c0-.192-.032-.288-.096-.288h-.48l-.288.288-.096.384h.576zm18.432 9.216.48-.384c0-.064-.128-.064-.384 0-.064.064-.096.192-.096.384zm1.248.672c.128.064.32-.032.576-.288-.064-.064-.192-.096-.384-.096s-.256.128-.192.384zm-4.8 8.16c.576 0 .896-.032.96-.096l-.768-.384-.192.48zm-15.36 2.304-.192-.288c-.128 0-.224.032-.288.096l.48.192zm0 1.536c.064-.128.032-.256-.096-.384-.064-.128-.192-.096-.384.096 0 .192.16.288.48.288zm2.4-.384h-.288c.064.064.16.224.288.48v-.48zm3.168 3.36-.096.096c.064 0 .096-.032.096-.096zM13.478 210.423c-.652 0-1.467-.217-2.445-.652l.163-1.141c-.109.217-.217-.489-.326-2.119 0-.326.163-.652.489-.978 0-.217-.054-.489-.163-.815a4.79 4.79 0 0 0-.163-1.141l-.49-1.63c.11-.761.164-1.576.164-2.445l.326-2.608-.49-.978v-1.141a8.562 8.562 0 0 0-.814-1.304l-.652-1.304v-.489c0-.543.163-.978.489-1.304l1.63-1.304c-.217-.217-.435-.326-.652-.326h-.163l-.163.163-1.304-.978c.978-.978 1.032-1.739.163-2.282.543-.326.87-.706.978-1.141.109-.109.054-.489-.163-1.141-.326-.869-.49-1.358-.49-1.467a18.66 18.66 0 0 0-.325-1.793c0-.543.054-.924.163-1.141l.489-.978v-.978l.163-.489-.49-.489h-.814c-.217-.217-.326-.543-.326-.978l.489-3.097.489-.489c.109-.109-.109-.38-.652-.815v.163l-.163-.815c0-.652-.054-1.576-.163-2.771.109-.326.163-1.032.163-2.119l-.326-.326a1.908 1.908 0 0 1-.326-.489l-.326-4.401c0-.217.163-.489.489-.815-.109-.217-.163-.598-.163-1.141l.489-.978v-1.793c0-.761-.054-1.521-.163-2.282 0-.435-.38-.815-1.141-1.141l-.163-1.141c.435-2.065.489-3.097.163-3.097h-.326v-.163c0-.109-.054-.217-.163-.326l.489-1.304c.326-.652.489-1.087.489-1.304-.326-.217-.652-.706-.978-1.467v-2.445c-.109-.109-.163-.217-.163-.326 0-.217-.054-.38-.163-.489-.109-.109-.054-.38.163-.815a56.64 56.64 0 0 0-.326-1.793v-1.467l.163-.652c.109-.217.163-.435.163-.652l-.326-5.216-.326-1.467c-.109-.435-.217-.706-.326-.815-.109-.217-.163-.38-.163-.489l.326-4.238-.326-.652a8.962 8.962 0 0 0-.49-1.141l.327-1.141c.217-.543.272-.815.163-.815l-.49-2.282c.11-.435.11-.978 0-1.63a4.114 4.114 0 0 0-.488-.978 15.617 15.617 0 0 1-.326-1.141l.326-.326c.109.109.272.163.489.163.543 0 .924-.272 1.14-.815h.49l1.467.326.978-.326.978-.163c.652 0 1.358.38 2.119 1.141.435-.109.87-.543 1.304-1.304 1.195.652 1.793 1.032 1.793 1.141l1.956-.815c.109 0 .435.272.978.815h.489c.109-.109.217-.272.326-.489l.652-.652c.435-.217.815-.326 1.14-.326h.164c.87 0 1.304.543 1.304 1.63.217.869.217 1.902 0 3.097l-.49 1.141c.11.217.164.598.164 1.141-.217.652-.326 1.087-.326 1.304l1.14 2.771c0 .543-.053.978-.162 1.304l.163 4.075a6.062 6.062 0 0 0-.163 1.467 8.29 8.29 0 0 1-.163 1.63l.489.815c-.109.326-.163.978-.163 1.956.109.217.217.489.326.815.109.217.217.543.326.978l-.163 2.119-.326.326c0 .109-.109.217-.326.326 0 .109.054.163.163.163.217.217.326.435.326.652 0 .543-.054 1.032-.163 1.467-.109.435-.054.815.163 1.141.217.109.435.326.652.652.217.217.435.489.652.815v.163c0 .109-.054.217-.163.326l-.163.815c.109.217.163.761.163 1.63 0 .326-.217.706-.652 1.141.217.869.272 1.467.163 1.793l-.163.652c0 .869.435 1.195 1.304.978l5.053-.815c.109 0 .38.163.815.489.435.326.706.435.815.326 1.521-.217 2.88-.761 4.075-1.63.76.109 1.25-.109 1.467-.652v-.163c0-.435-.272-.815-.815-1.141a2.556 2.556 0 0 0-.49-.652 4.117 4.117 0 0 0-.488-.978l.326-2.282-.163-.163c0-.217-.054-.543-.163-.978-.217-.543-.217-.978 0-1.304l.652.163c.109 0 .163.054.163.163h.326c.543 0 .815-.217.815-.652 0-.761-.272-1.141-.815-1.141l-1.141.815v-.815l.489-2.119-.326-1.141c1.304-.217 1.956-.489 1.956-.815 0-.217-.326-.38-.978-.489-.543 0-1.25-.163-2.12-.489l.164-1.141.326-.978-.49-1.956c.327-1.63.436-2.499.327-2.608a11.295 11.295 0 0 0-.326-1.304c0-.435.054-.869.163-1.304a6.062 6.062 0 0 1-.163-1.467v-1.956c-.435-.435-.652-1.032-.652-1.793 0-.761.272-1.847.815-3.26l-.652-.652a5.326 5.326 0 0 1-.652-.815l.652-2.119c0-.217-.326-.815-.978-1.793.326-.326.815-.543 1.467-.652a3.24 3.24 0 0 1 1.467.326c.217.326.489.489.815.489l1.63-.652a32.617 32.617 0 0 1 1.793-.652c.435 0 .706.163.815.489.109.435.489.652 1.14.652.544 0 1.36-.38 2.446-1.141.217 0 .435.109.652.326v.489c-.326.109-.598.38-.815.815l.163.815.489.163c.435 0 .598-.217.489-.652v-.815c.76-.217 1.521-.489 2.282-.815.76-.326 1.521-.598 2.282-.815.109 0 .489.109 1.14.326-.108.217-.162.761-.162 1.63.109.217.217.489.326.815.109.217.217.543.326.978-.109.435-.163 1.467-.163 3.097l-.978.652c-.435.326-.652.598-.652.815.217.109.543.054.978-.163.435.109.652.38.652.815-.109.109-.217.326-.326.652a6.305 6.305 0 0 0-.326.815l.489.652c.217.326.217.869 0 1.63-.109 0-.109.054 0 .163.326.652.489 1.304.489 1.956a4.767 4.767 0 0 1-.978 2.934c-.543.761-1.25 1.195-2.12 1.304l-.488-.163h-.326c0-.109-.054-.163-.163-.163-.217.217-.326.435-.326.652.109.326.272.598.489.815l2.282.326c.326 0 .598-.109.815-.326l-.326 1.141.326.163.978-.489c.326.435.543.869.652 1.304 0 .435-.054.869-.163 1.304 0 .435-.054.924-.163 1.467.217.435.326.924.326 1.467-.109.652-.706 1.684-1.793 3.097.543.217 1.195.761 1.956 1.63v1.141c.109.217.217.489.326.815.217.217.38.543.489.978l-.326.978-.326.978.652 1.956v1.141c.217.217.38.489.489.815l-.163.978c.109.543.163 1.25.163 2.119v2.608l-.326.163-.49-.815v-.163h-.162l-.163.163c-.652 0-.978.38-.978 1.141.217.652.978 1.141 2.282 1.467l-.326.978.815 2.282a2.905 2.905 0 0 0-.815.815c.326.761.489 1.467.489 2.119 0 .761-.326 1.467-.978 2.119l.652.326v.815c.109.326.217.706.326 1.141l.326 1.304v1.63c.109.435.163.869.163 1.304 0 1.63-.163 2.445-.49 2.445h-.652c-.108-.109-.216-.163-.325-.163-.543 0-.815.109-.815.326 0 .435.706 1.141 2.119 2.119.109.217-.109.435-.652.652l-.163.326.326.978c.543 1.195.706 1.902.489 2.119-.217.109-.543.163-.978.163l.326.652c.543.326 1.195.924 1.956 1.793l-.49.652c-.108.217-.162.543-.162.978 0 .435-.054.924-.163 1.467l.326 1.141c.217.543.109.924-.326 1.141l-.163.326c.87.109 1.358.761 1.467 1.956.217.543.163 1.032-.163 1.467l-.49.652c0 .435-.162 1.087-.488 1.956.435.326.87.924 1.304 1.793 0 .652-.272 1.413-.815 2.282l.978.815c-.109.326-.163.924-.163 1.793l.489 1.467v.326c0 .543-.217 1.032-.652 1.467.326.326.706.489 1.14.489 0 .109-.053.326-.162.652 0 .217-.054.489-.163.815-.435.652-1.195.978-2.282.978-.435-.435-.815-1.032-1.141-1.793l.489-.652a2.556 2.556 0 0 0-.49-.652c-.216-.217-.434-.543-.651-.978h-.978v.489c.109.326.543.869 1.304 1.63L52.109 207c-.435.109-.978.217-1.63.326l-1.63.326c-.109-.109-.326-.217-.652-.326a6.322 6.322 0 0 0-.815-.326c-.109.109-.326.217-.652.326-.217.109-.49.163-.815.163h-1.63l-3.586.978c-.978 0-1.413-.326-1.304-.978l.163-.815c.109-.326.163-.598.163-.815-.109-.217-.163-.489-.163-.815v-1.304c0-.217.217-.543.652-.978-.109-.435-.543-.815-1.304-1.141v-1.141c.543-.326.978-1.358 1.304-3.097h-.163c-.543 0-1.087-.217-1.63-.652l-.163-1.141a1.908 1.908 0 0 0-.326-.489v-.326l.326-1.63a7.547 7.547 0 0 0 .163-1.467v-1.141l-.163-.326c.109-.109.163-.761.163-1.956l-.326-6.194c.217-.109.598-.435 1.14-.978l-1.14-.652a32.047 32.047 0 0 0-.326-1.467 32.047 32.047 0 0 0-.326-1.467l.326-.652.326-.652c-.435-.435-.706-.924-.815-1.467l.489-1.141h.163c.326 0 .38-.652.163-1.956-.109-1.195-.326-1.902-.652-2.119-.435-.435-.652-1.032-.652-1.793v-.326c0-.543.163-1.032.489-1.467-.652 0-1.521-.38-2.608-1.141-.109.326-.543.761-1.304 1.304H32.06c-.435 0-.924-.054-1.467-.163l-.978-.652c-.326.326-.815.652-1.467.978l-.326-.163h-.652l-.815.489c-.435.326-.76.489-.978.489l-.163-.163h-.163c-.326 0-.598.163-.815.489l.978 1.467c.217.109.217.598 0 1.467 0 .326.163.652.489.978-.109-.109-.163.38-.163 1.467l-.652.815c.326.326.489.869.489 1.63v1.956c.217.543.435.869.652.978-.543.543-.815.924-.815 1.141l.978 2.771c0 .217-.054.489-.163.815 0 .217-.054.543-.163.978v.326c0 .326.163.761.489 1.304.109.109.163.38.163.815l-.163 2.445c-1.739 1.304-2.608 2.173-2.608 2.608 0 .326.326.598.978.815l2.282.652v1.304c0 .652.054 1.684.163 3.097h-1.956c-.217.435-.272.869-.163 1.304v.163c0 .326.217.706.652 1.141.326-.217.489-.435.489-.652h.652c.76 1.63 1.14 2.717 1.14 3.26l-.814 1.141.489.652c.217.326.326.706.326 1.141 0 .435-.326.761-.978.978.326.326.652.815.978 1.467 0 .109-.163.435-.49.978-.325.435-.597.652-.814.652l-2.282-.489c-.326.217-.87.38-1.63.489l-1.467-.163-1.63-.326-2.771.815-1.467-.489c-.435 0-.706.217-.815.652-.326.326-.706.489-1.141.489zm-3.097-93.399c.326.109.652-.054.978-.489-.109-.109-.326-.163-.652-.163s-.435.217-.326.652zm6.357 3.423c.109-.217 0-.435-.326-.652-.109-.217-.326-.163-.652.163.217.326.543.489.978.489zm21.027 5.868.326-.489c0-.543.272-.924.815-1.141.543-.217.815-.489.815-.815l-.163-.489v-.163c-.217-.217-.652-.217-1.304 0 .217.652.217 1.087 0 1.304-.543 0-.978.163-1.304.489l.815 1.304zm-21.353 14.018c0-.217-.109-.435-.326-.652 0-.109-.109-.054-.326.163l.652.489zm4.4 6.846v-.163l.164-.163c0-.652-.326-.761-.978-.326 0 .217.272.435.815.652zm14.997 4.89c-.109 0 .054.163.489.489v-.489c-.109-.217-.272-.217-.49 0zm2.282 8.639c.109-.109.163-.272.163-.489 0-.326-.217-.435-.652-.326-.217.217-.054.489.489.815zM12.5 168.695c.326 0 .489-.109.489-.326v-.489l-1.141-.163-.163.489c0 .109.109.272.326.489h.489zm28.036 20.538c1.413-.543 2.01-1.087 1.793-1.63 0-.435-.326-.543-.978-.326l-.815 1.956zm-2.282.815v.163-.163zm-20.05 10.432c.762-.109 1.142-.489 1.142-1.141 0-1.195-.326-1.793-.978-1.793-1.195.217-1.793.598-1.793 1.141v.489c.109.217.272.435.489.652.435.435.815.652 1.14.652zm29.993 3.423c.217 0 .435-.272.652-.815-.217-.109-.435-.054-.652.163-.217.217-.217.435 0 .652zm44.852 5.053-2.608-.489-1.63.326h-1.63a8.268 8.268 0 0 1-1.63-.163l-1.467-.652h-1.63c-.652-.761-1.685-1.304-3.097-1.63-1.413-.109-2.391-.652-2.934-1.63l-.49-.489c-.325.109-.869.054-1.63-.163a22.264 22.264 0 0 0-1.63-1.793l-2.281-2.282c0-.217-.055-.489-.163-.815a4.79 4.79 0 0 0-.163-1.141l-1.141-1.141c-.326-.543-.707-1.195-1.141-1.956.217-.652.217-1.63 0-2.934l-.49-.815v-3.586c0-.761-.054-1.521-.162-2.282-.326-.326-.652-.815-.978-1.467l-.326-3.097.326-1.956.163-1.956c0-.109-.109-.38-.326-.815v-1.793l-.49-1.467.49-4.727-.978-6.846.489-1.141c.217-.761.271-1.304.163-1.63l-.49-1.467v-2.445c0-1.087-.054-2.336-.162-3.749-.435-.543-.652-1.467-.652-2.771-.109-.761-.109-1.304 0-1.63.326-.761.543-1.195.652-1.304l-.815-.815a28.556 28.556 0 0 1-.163-2.771v-4.401c0-.652.054-1.195.163-1.63.434-.978.76-1.521.978-1.63.543-.109 1.086-.706 1.63-1.793l.163-.163c0-.217-.435-.598-1.304-1.141-.87-.543-1.304-.978-1.304-1.304l.326-.652c.108-.217.217-.543.326-.978a11.391 11.391 0 0 1-.326-2.771c.434-.543.923-1.304 1.467-2.282a184.82 184.82 0 0 0 2.119-3.26v-.978c.108-.326.271-.706.489-1.141l.652-1.304.978-.652c.543-.326 1.358-.978 2.445-1.956l1.956-1.793h.326c.217 0 .543-.054.978-.163.217-.217.326-.489.326-.815.326.109.597.217.815.326.326.109.597.109.815 0l.652-.163c1.847-1.304 2.934-1.956 3.26-1.956l.815.326v.163h.326c1.521 0 2.227-.38 2.119-1.141.543-.326.978-.489 1.304-.489.434.217.706.543.815.978 0 .109.271.163.815.163.217-.217.489-.38.815-.489.434-.217.869-.38 1.304-.489.434.109.869.272 1.304.489.434.109.923.217 1.467.326l1.304-.163h.489c.326 0 .597.054.815.163.326 0 .652.054.978.163.108.543.489 1.032 1.14 1.467h.49c.652 0 1.467.163 2.445.489.108.109.217.326.326.652.108.217.217.489.326.815v.978l.326.163c.434-.435.923-.652 1.467-.652h.163c.652 0 1.467.652 2.445 1.956.108.109.217.38.326.815.108.326.217.761.326 1.304l.815.489c.108 0 .217.272.326.815.217.109.652.489 1.304 1.141l1.141.489c0 .543-.218 1.087-.652 1.63-.435.761-.652 1.358-.652 1.793v.489c.217.869 1.141 1.902 2.771 3.097l.978 2.282-.163.652c-.109.326-.272.869-.489 1.63 0 .326.054.543.163.652-.326 1.739-.489 2.88-.489 3.423l.815 1.793c0 .326-.381.706-1.141 1.141-.761.435-1.141.761-1.141.978v.163a4.339 4.339 0 0 1 1.467.978 7.585 7.585 0 0 1 1.467 1.141c0 .109-.109.38-.326.815l-.326.652c.108.326.163 1.032.163 2.119-.109.543-.163.761-.163.652v.163l.163 2.934v.163l-.163.652c.434.652.815 1.63 1.141 2.934v.326c0 .326-.163.761-.489 1.304l-.489.978v.489c0 .869.163 2.282.489 4.238l-.652.163c-.326 0-.489.109-.489.326l.815.815c0 1.087.271 1.739.815 1.956.434.326.652.815.652 1.467-.218.543-.218 1.413 0 2.608-.109.652-.489.978-1.141.978-.218 0-.381-.054-.489-.163-.109-.109-.272-.163-.489-.163a4.338 4.338 0 0 0-1.141.815c.543.326.923.489 1.141.489.326 0 .706-.163 1.141-.489.326.109.489.543.489 1.304l.163 1.63c.326.217.543.598.652 1.141 0 .543-.218 1.032-.652 1.467l.326.326.489.652-.326.815c-.109.326-.163.598-.163.815v.489l-.652.489c.869 1.521 1.304 2.554 1.304 3.097l-.163.489c0 .109-.055.217-.163.326-.109 0-.163.054-.163.163.108.217.163.543.163.978v1.141c-.218.109-.544.489-.978 1.141l.326 3.423v.652c0 .869-.163 1.467-.489 1.793l-.489.489-.163 1.63c-.87 1.195-1.304 1.739-1.304 1.63 0 .109.163.272.489.489l-.326.326c-.109 0-.218.109-.326.326l-.163 1.793c-.109.109-.815.761-2.119 1.956-.652.435-1.033 1.087-1.141 1.956-.87.543-1.576.924-2.119 1.141.108-.109 0-.163-.326-.163l-2.119 3.097c-.218.109-.489.163-.815.163-.218 0-.544.054-.978.163l-1.304.815h-.815c-.218.109-.544.217-.978.326l-2.934 1.467c-.218 0-.38-.054-.49-.163-.108-.109-.325-.163-.651-.163l-1.141.489zm3.26-91.443.652-.489c0-.109-.218-.109-.652 0v.489zm2.119.978c.326.109.652-.054.978-.489-.109-.109-.326-.163-.652-.163-.218 0-.326.217-.326.652zm-8.64 3.749.816-.163-.326-.652c-.544.217-.707.489-.49.815zm-.814 72.046c.217 0 .869-.326 1.956-.978.543.543.923.815 1.14.815.761-.109 1.142-.326 1.142-.652v-1.141c.108-.326.652-.761 1.63-1.304.217.109.38.598.489 1.467h.815l.326-.326.978-2.282-.49-1.304-.488-1.304.163-.815v-.163c.108-.109.163-.217.163-.326-.109-.326-.163-1.087-.163-2.282.108-1.304.217-1.902.326-1.793a29.74 29.74 0 0 1-.49-2.282c-.108-.761-.162-1.358-.162-1.793 0-.109.434-.598 1.304-1.467.76-.652 1.14-1.032 1.14-1.141l-1.14-1.304.326-3.097.652-1.304c-.109-.109-.544-.326-1.304-.652-.652-.326-.978-.598-.978-.815v-.163c-.544-1.413-.815-2.499-.815-3.26l.489-2.282.326-1.956-.49-.978c.11-.761.11-1.793 0-3.097-.434-.435-.706-.815-.814-1.141l.326-1.141.326-.978-.326-.652a6.32 6.32 0 0 1-.326-.815l.489-3.423.815-.326c.326-.217.489-.489.489-.815-.435-.109-.978-.435-1.63-.978-.544-.761-.815-1.358-.815-1.793l.652-1.304.489-1.304c-.218-.109-.544-.489-.978-1.141l.815-2.282a5.332 5.332 0 0 1-.652-.815l-.652-1.304c0-.217.217-.543.652-.978-.109-.326-.163-.869-.163-1.63l.326-.652c.217-.217.326-.435.326-.652l-.815-1.141-.163-2.771c0-.217-.163-.489-.49-.815a8.102 8.102 0 0 1-.814-.489c-.218-.217-.544-.435-.978-.652l-.978-1.793c.108.109-1.087.217-3.586.326h-.163c-.326 0-1.087-.435-2.282-1.304-1.522-.869-2.554-1.358-3.097-1.467-.326 0-.652.326-.978.978-.218.652-.272 1.032-.163 1.141 0 .326.38.869 1.14 1.63l1.142 1.141-.49 2.119-.651 1.304v.489c0 .217-.055.435-.163.652l-.326.326-.326.326c0 .109-.055.326-.163.652 0 .217-.055.543-.163.978l-.326 1.141c0 .217.163.489.489.815.326.326.489.598.489.815l-.163 1.956c.108.217.217.543.326.978.217.435.38.924.489 1.467v1.141c0 .326-.055.706-.163 1.141-.109.326-.055.598.163.815l.326.163c-.435.217-.544.598-.326 1.141.326 1.195.434 1.902.326 2.119l-.49 1.304c.11.435.164.924.164 1.467 0 .435.054.978.163 1.63-.326.326-.652.815-.978 1.467l1.63.978c.217.326.38.869.489 1.63 0 .761-.218 1.576-.652 2.445-.326.109-.652.435-.978.978.434.217.815.706 1.14 1.467l-.651 2.445c.108.217.217.489.326.815.108.326.217.706.326 1.141l-.163.489c-.218.217-.326.38-.326.489a21.5 21.5 0 0 0-.326 1.63v1.63c.217.109.38.435.489.978v1.304c.108.435.217.924.326 1.467l.978.978c.217.217.326.652.326 1.304l-1.467.652c-.544.217-.815.706-.815 1.467l2.119 2.119c.108.109.217.163.326.163h-.163l-.163-.163h-.652c.434 0 .652.326.652.978a6.363 6.363 0 0 1-.49 1.304c-.108.435-.271.924-.488 1.467l.815.815c.434.435.652.761.652.978l-.49.815c-.325.435-.488.761-.488.978l.815 1.304c.543.869.815 1.358.815 1.467 0 .435-.326.815-.978 1.141v.652c0 1.087.38 1.576 1.14 1.467l.653-.163h.326c.76 0 1.358.217 1.793.652.434.435.76.652.978.652zm-19.886-70.579c.326.109.652-.109.978-.652-.109-.109-.272-.163-.49-.163-.325 0-.488.272-.488.815zm6.683 1.63c.326.109.652-.109.978-.652-.326-.217-.598-.217-.815 0-.109.109-.163.326-.163.652zm-3.097 5.053h.652c.326 0 .76-.054 1.304-.163.543 0 .815-.217.815-.652l-.326-1.141h-.652l-1.793 1.956zm29.829 2.771c.108-.109.163-.326.163-.652a1.108 1.108 0 0 0-.815-.326l-.163.815.815.163zm-.652 10.758 2.119-1.467c-.326-.217-.489-.435-.489-.652 0-.761-.272-1.358-.815-1.793l-.652.163c-.109.109-.109.435 0 .978a9.062 9.062 0 0 1-.489 1.141c-.218.326-.435.761-.652 1.304.434.217.76.326.978.326zm-33.415 10.595c.108-.435.054-.978-.163-1.63l-1.141.489 1.304 1.141zm.163 4.401c.543-.217 1.086-.598 1.63-1.141-.435-.435-.815-.652-1.141-.652v.326c0 .217-.163.598-.49 1.141v.326zm39.446 4.238 1.63-.489v-.652l-.815-.163-.815 1.304zm3.097.815c.434.109.869-.054 1.304-.489l-.978-.163c-.218.217-.326.435-.326.652zm-2.608.652v-.326h-.489v.326h.489zm-37.327 7.335.163-.489-1.141-.163.978.652zm-1.793 4.238.815-.326-.815-.163v.489zm31.459 4.727c.217 0 .054-.163-.489-.489l-.326.326c.108.109.38.163.815.163zm-25.591 3.26c.543 0 1.195-.272 1.956-.815v-.652c-.544-.652-.978-1.087-1.304-1.304l-1.467 2.119c0 .217.108.435.326.652h.489zm29.992-.978-.163-.815c-.218 0-.381.054-.489.163l.163.326c.217.217.38.326.489.326zm-4.075.326c0-.217-.109-.435-.326-.652-.109-.217-.326-.163-.652.163.217.326.543.489.978.489zm-30.807.978c.652.435 1.14.217 1.467-.652-.652.217-1.141.435-1.467.652zm.163 6.52c-.326-.543-.49-.924-.49-1.141l-.651.163.163.652c.217.217.543.326.978.326zm.652-.163.815-.163c.108-.109.054-.38-.163-.815l-.652.326v.652zm33.415 3.26c.543-.869.76-1.413.652-1.63h-.815l-.652 1.141.815.489zm-19.56 3.423-.163-.489h-.326l.326.489h.163zm-.978 7.498c.326-.543.597-.815.815-.815.543 0 1.032.163 1.467.489l.326-.489-.815-1.63c-.109-.326-.326-.489-.652-.489-.218 0-.49.109-.815.326-.326.217-.761.706-1.304 1.467-.109.109-.163.326-.163.652s.108.489.326.489h.815zm84.033 2.934-3.749-.163c-.218 0-.489-.054-.815-.163-.218 0-.544-.054-.978-.163l-1.467-.326c-.544.109-1.196.163-1.956.163-.652 0-1.359.054-2.119.163-.435 0-.978-.435-1.63-1.304l-.652-.815c-.109-.217-.163-.543-.163-.978 0-.435-.055-.869-.163-1.304l-.815-2.608v-1.793l-.652-.652c-.326-.326-.489-.706-.489-1.141.108-.217.217-.489.326-.815.108-.326.271-.706.489-1.141l-1.141-.652c-.109-.326-.163-.761-.163-1.304 0-.761.217-1.413.652-1.956-.326-.217-.707-.652-1.141-1.304l-.815-.652c.108-.217.163-.598.163-1.141 0-.869-.598-2.065-1.793-3.586 0-.217.054-.652.163-1.304.108-.652.163-1.141.163-1.467-.761-.109-1.359-1.141-1.793-3.097-.326-1.087-.652-2.445-.978-4.075l.489-1.956c-1.304-1.521-1.956-2.662-1.956-3.423 0-.326.326-1.195.978-2.608-.109-.326-.381-.543-.815-.652l-.326-.652a1.908 1.908 0 0 0-.489-.326l-.489-.489c0-1.087-.435-1.63-1.304-1.63-.761-.109-1.359-.054-1.793.163l-.978.652v.815c.76.761 1.141 1.087 1.141.978 0 .109-.109.272-.326.489v1.141a2.523 2.523 0 0 0-.489.652l-.326.326c.543.543.815 1.087.815 1.63l-.652 1.63v1.63c-.544.326-.815.652-.815.978 0 .109.108.272.326.489l.326.652c-.109.435-.218 1.087-.326 1.956a65.899 65.899 0 0 0-.326 2.771c.217.435.38.924.489 1.467.108.435.217.978.326 1.63l-.489 1.141v3.912l-.326.652c0 .217-.055.543-.163.978 0 .435-.055.924-.163 1.467-.326.652-.652 1.467-.978 2.445 0 .109.163.326.489.652.108.217.163.38.163.489.108.109.163.217.163.326l-.326 6.683a1.442 1.442 0 0 0-.163.652v.163l.163 3.912c-.109.326-.435.489-.978.489l-1.63-.489-1.304.163c-.435.109-.761.163-.978.163h-.978c-.652 0-1.196-.109-1.63-.326l-1.304-.489c-.109 0-.272.163-.489.489h-1.141c-.326 0-.598.054-.815.163h-.326l-3.097-.163c-.87 0-1.304-.435-1.304-1.304 0-.435.054-.924.163-1.467.217-.652.38-1.358.489-2.119v-2.445c0-.869-.055-1.739-.163-2.608l1.467-1.467c-.326-.326-.544-.652-.652-.978a3.228 3.228 0 0 1-.326-1.467c0-1.413.434-2.554 1.304-3.423-.87-.869-1.304-1.521-1.304-1.956.217-.869.489-1.413.815-1.63.326-.109.597-.543.815-1.304l-.489-.978c0-.761.163-1.847.489-3.26-.218-.326-.326-1.141-.326-2.445v-1.304c0-.543.054-1.087.163-1.63-.109-.109-.163-.272-.163-.489 0-.217-.055-.489-.163-.815l.815-5.705v-1.63c0-.652-.055-1.358-.163-2.119l.489-.652a9.13 9.13 0 0 1-.163-1.793v-2.282c0-.543.163-.869.489-.978l.978-.326a1.883 1.883 0 0 1-.326-.489 15.127 15.127 0 0 1-.326-1.141c0-.217-.055-.489-.163-.815 0-.326-.055-.706-.163-1.141l-.652-1.304 1.304-4.401-.163-2.771c-.109-.761-.163-1.304-.163-1.63v-.815l.978-4.564c.217-.217-.055-.652-.815-1.304.543-.652.815-1.63.815-2.934l-.163-2.445c.108-.217.217-.38.326-.489l.326-.652.489-2.119.163-2.445-.652-2.445.978-5.216c0-.652-.055-1.032-.163-1.141-.544-1.087-.815-2.336-.815-3.749 0-.869.054-1.63.163-2.282.217-.761.38-1.358.489-1.793.108-.435.543-.652 1.304-.652.543 0 .978.163 1.304.489.108.435.38.652.815.652l1.141-.978c1.304.543 2.119.815 2.445.815l1.63-.326c.217 0 .489.054.815.163l1.467-.163c.434-.109.706-.163.815-.163h.489c1.521 0 2.553.435 3.097 1.304 0 1.195.543 2.88 1.63 5.053a6.364 6.364 0 0 1-.815.326 4.14 4.14 0 0 0-.978.489c-.109.217.054.598.489 1.141.543.543 1.032.924 1.467 1.141a2.411 2.411 0 0 0-.652 1.141c.108-.217.76 1.032 1.956 3.749.108 0 .217.924.326 2.771l-.326 1.793 1.304.978.978 3.749v1.793l.978 1.141c-.109.109-.109.435 0 .978l.815 1.467a3.067 3.067 0 0 0-.163.978v.815c0 .761.054 1.25.163 1.467l.163.978.815 1.304v.326c0 .652.217 1.413.652 2.282a12.716 12.716 0 0 0-.489 1.956c0 .652.054 1.304.163 1.956l1.304 1.467c.108.326.217.761.326 1.304.108.435.271.924.489 1.467.326.326.652.869.978 1.63.217.652.489 1.141.815 1.467-.109.109-.163.435-.163.978v1.304c.108.543.217 1.195.326 1.956.326 2.717.869 4.401 1.63 5.053.108.109.163.326.163.652 0 .435-.272 1.467-.815 3.097-.652 1.413-.978 2.336-.978 2.771 0 .217.108.326.326.326h.163c.978-.326 1.738-1.902 2.282-4.727l.815-4.401c.108-.326.163-.924.163-1.793 0-.761-.055-1.63-.163-2.608a48.426 48.426 0 0 0-.489-3.26l-.489-.815.815-1.141-.326-.652c-.326-.326-.489-.598-.489-.815a3.63 3.63 0 0 0 .163-1.141 4.14 4.14 0 0 0 0-1.63l-.163-1.467c0-.326-.055-.543-.163-.652v-.489c.217-1.195 1.412-2.336 3.586-3.423.108-.109-.272-.489-1.141-1.141l-1.467-1.141v-2.934l.815-1.141c-.109-.109-.381-.489-.815-1.141l.326-.652c.108-.217.163-.435.163-.652.108-.652.108-1.684 0-3.097l-.326-2.282c0-.543.326-1.195.978-1.956.434-.761.815-1.141 1.141-1.141a1.108 1.108 0 0 0-.815-.326c-.435-.652-.489-1.467-.163-2.445-.652-.869-.924-1.467-.815-1.793l.815-1.467a12.87 12.87 0 0 1-.163-2.119v-2.282l.163-5.379c0-1.304.489-1.847 1.467-1.63l1.304.815 1.304.815c.217 0 .706-.163 1.467-.489l1.304-.489c.108 0 .543.217 1.304.652.543.435.923.652 1.141.652.217 0 .815-.163 1.793-.489l1.467-.489c.326 0 .543.054.652.163l.326.326.652-.326a1.44 1.44 0 0 1 .652-.163c.326 0 .76.435 1.304 1.304l-.815.978c0 .109.054.272.163.489.108.109.217.272.326.489l.326.978c0 .109-.163.326-.489.652-.435.435-.652.761-.652.978l.163 1.304c.108.326.163.598.163.815v.489c0 .217-.055.543-.163.978-.109.326-.218.761-.326 1.304l-.326 1.467c.108.217.217.489.326.815l.326.652c0 .109-.218.38-.652.815-.109.326-.163.815-.163 1.467-.109.652-.598 1.141-1.467 1.467 0 .109.217.217.652.326.217.109.38.217.489.326l.326.326c0 .109-.163.272-.489.489l-.652.489c.543.543 1.032 1.25 1.467 2.119.217.761.217 1.576 0 2.445.108.109.163.326.163.652l-.815 2.282c-.218.761-.435 1.304-.652 1.63-.218.326-.326.543-.326.652 0 .326.434.924 1.304 1.793l-.326 1.63c-.544.217-1.25.38-2.119.489l-1.141.978-.489 1.63c.108.109.163.326.163.652l.489.326c.217 0 .543-.217.978-.652.543-.326.869-.489.978-.489l.489.326c.108.543.217 1.195.326 1.956.108.652.217 1.358.326 2.119a381.353 381.353 0 0 1-.489 4.238c-.109.109-.218.326-.326.652-.109.326-.272.761-.489 1.304l.326 1.956c-.326.109-.489.652-.489 1.63v1.956c-.109.109-.163.272-.163.489 0 .109-.055.272-.163.489l-1.304.652.489.489c.217.109.434.272.652.489-.109.326-.109.815 0 1.467 0 .109.163.272.489.489.326.109.489.326.489.652 0 .217-.381.652-1.141 1.304.108.652.108 1.195 0 1.63-.326.652-.489.924-.489.815.108 1.087.271 1.467.489 1.141-.218.326-.598.652-1.141.978l-.326 1.467.815 1.304c.434.761.652 1.25.652 1.467 0 .217-.163.543-.489.978l-.652.652.489 1.956c.326 1.304.434 2.01.326 2.119 0 1.63-.489 2.445-1.467 2.445l-.489-.326c-.109 0-.163.163-.163.489 0 .543.108 1.032.326 1.467.326.326.652.543.978.652l.326.652-.326 1.141c-.326.652-.489 1.087-.489 1.304l.163.489v.326c0 1.087.054 1.793.163 2.119l.326.652-.326 4.727c0 .109-.163.326-.489.652v2.119c-.109.109-.272.489-.489 1.141v.163c0 .543.38 1.739 1.141 3.586l-.163.326h-1.141c-.544.109-1.359.109-2.445 0zm2.771-91.28c.217-.217.434-.326.652-.326 0-.109-.109-.272-.326-.489l-.326.815zm-37.816 1.793c.326.109.652-.054.978-.489-.218-.217-.381-.326-.489-.326-.326 0-.489.272-.489.815zm6.357 2.282c.326.109.652-.054.978-.489-.109-.109-.272-.163-.489-.163-.326 0-.489.217-.489.652zm24.939.815c.217.109.434.054.652-.163.108-.109.054-.38-.163-.815-.326 0-.489.326-.489.978zm7.335 10.432c.108-.217.054-.435-.163-.652-.109-.217-.326-.163-.652.163 0 .326.271.489.815.489zm-34.556 11.573c.108-.109.163-.272.163-.489 0-.326-.218-.489-.652-.489-.109.326.054.652.489.978zm4.89 7.987c.108-.217.054-.435-.163-.652-.218-.217-.435-.217-.652 0 0 .217.271.435.815.652zm29.014 1.141c.108-.217.054-.435-.163-.652-.218-.217-.435-.217-.652 0 0 .217.271.435.815.652zm-37.164 2.445h2.282c.76 0 1.358-.109 1.793-.326l-.652-1.467a4.14 4.14 0 0 0-.978-.489l-.652-.326c-.544 0-1.087.163-1.63.489l-.489 1.467.326.652zm30.807 0c.326.109.652-.054.978-.489-.109-.109-.272-.163-.489-.163-.326 0-.489.217-.489.652zm-34.719 8.639.326-.326.326-.326c0-.326-.055-.489-.163-.489h-.815l-.489.489-.163.652h.978zm31.296 15.648.815-.652c0-.109-.218-.109-.652 0-.109.109-.163.326-.163.652zm2.119 1.141c.217.109.543-.054.978-.489-.109-.109-.326-.163-.652-.163s-.435.217-.326.652zm-8.15 13.855c.978 0 1.521-.054 1.63-.163l-1.304-.652-.326.815zm-26.08 3.912-.326-.489c-.218 0-.381.054-.489.163l.815.326zm0 2.608c.108-.217.054-.435-.163-.652-.109-.217-.326-.163-.652.163 0 .326.271.489.815.489zm4.075-.652h-.489c.108.109.271.38.489.815v-.815zm5.379 5.705-.163.163c.108 0 .163-.054.163-.163zm87.492 3.423-1.304-.489a64.354 64.354 0 0 0-3.912-.489c-1.086 0-2.064-.054-2.934-.163l-1.304.326-3.912-.978-1.467.489-4.564-.652-2.445.163c-.217 0-.434.054-.652.163l-.652.163-6.846-.978-1.141.326c-.217-.109-.543-.217-.978-.326a15.612 15.612 0 0 0-1.141-.326l-.489.326c-.217-.109-.76-.163-1.63-.163l-.326.163h-2.934c-1.63 0-2.282-.924-1.956-2.771l.326-2.119c.109-.761.163-1.358.163-1.793v-1.304c.109-.217.326-.489.652-.815.326-.435.87-.924 1.63-1.467v-.326l-1.63-.326-.163-.652c0-.761.218-1.358.652-1.793.652-.869 1.033-1.63 1.141-2.282-.543-.109-.923-.543-1.141-1.304l-.489-1.793.326-4.401 1.141.489c.109-.109.163-.435.163-.978v-.978a6.516 6.516 0 0 1-.815-.978l-.163-.326c0-.217.109-.652.326-1.304l.326-.978c0-.435-.217-.815-.652-1.141 0-.435.109-.978.326-1.63l-.326-.489c0-.326.055-.489.163-.489-.108-.543-.054-1.141.163-1.793l.489-.815-.326-1.63c-.108-.543-.217-.924-.326-1.141-.108-.326-.163-.543-.163-.652 0-.217.218-.543.652-.978.435-.435.652-.761.652-.978l-.326-.978c-.326-.326-.489-.543-.489-.652l.815-2.771c-.543-.217-.652-.869-.326-1.956l.489-1.956a11.091 11.091 0 0 0-.326-1.304v-.815l.326-2.282.815-1.141c-.108-.217-.271-.652-.489-1.304l.163-2.608c-.326-.652-.489-1.032-.489-1.141l1.304-2.771-.163-.163c0-.109-.054-.272-.163-.489v-1.141c.109-.543.218-1.195.326-1.956l-.326-1.956c.109.109.218-.706.326-2.445l-.326-.978a1.883 1.883 0 0 0-.326-.489v-.326l.326-.652c.109-.217.163-.489.163-.815l.326-5.053.489-12.225c.544-1.304.815-2.228.815-2.771l-.163-.815c0-.217-.054-.38-.163-.489-.108-.109-.163-.217-.163-.326l-.163-1.956c0-.217.218-.815.652-1.793.435.109.924.217 1.467.326.544 0 1.087.109 1.63.326.326.326.815.652 1.467.978.109 0 .326-.217.652-.652.326-.326.598-.489.815-.489l.978.652c.652.435 1.63.761 2.934.978.218-.435.435-.761.652-.978l1.304-.163a4.774 4.774 0 0 1 1.141-.163l.652.489c.218.217.544.272.978.163l1.63-.326c.435-.109.761-.163.978-.163h.489l2.934.815c.218-.109.435-.163.652-.163.326-.109.707-.217 1.141-.326l1.467.326c.109.435.435.652.978.652.109 0 .381-.163.815-.489.435-.435.707-.543.815-.326l.978.326c.218-.217.489-.38.815-.489l1.141.326c.218.109.381.217.489.326.218.109.381.163.489.163l.815-.163c0 .217.218.706.652 1.467.218-.326.218-.761 0-1.304l1.304-.489.978.489c.435.217.924.435 1.467.652 0 .217.163.489.489.815h.489l.978-1.141c.218-.109.489-.163.815-.163.435 0 .87-.054 1.304-.163l1.141.163-.326 6.194c-.543.435-.815.924-.815 1.467l.163 1.304-.326 7.824c0 .761-.597 1.141-1.793 1.141-.326-.326-.652-.543-.978-.652-.434-.109-1.032-.163-1.793-.163-.76-.109-1.63-.109-2.608 0h-.815c-.326-.109-.76-.217-1.304-.326l-1.467-.163-2.608.326-2.771-.163c-.217 0-.434-.054-.652-.163l-.652-.163c-.869-.109-1.575-.163-2.119-.163h-.815c-.434-.326-.869-.489-1.304-.489-.217 0-.597.217-1.141.652-.543.435-.923.652-1.141.652 0 .326-.054.543-.163.652l.163.815c.109.217.163.489.163.815 0 .217.055.543.163.978-1.086.435-1.684 2.01-1.793 4.727l.652.163h1.141c.109.109.163.38.163.815 0 .435-.217.869-.652 1.304l-.815.815c.435.978.707 2.01.815 3.097 0 .217-.217.706-.652 1.467-.434.761-.652 1.413-.652 1.956l-.326-.489-.489.326v.489c.218.217.652.326 1.304.326v.815c.109.217.218.489.326.815.544.869 1.033 1.304 1.467 1.304l1.141-.489.652.652c.435.217.707.326.815.326-.108-.109.326-.435 1.304-.978.978.109 1.685.054 2.119-.163.761.761 1.304 1.141 1.63 1.141h.652l1.141-.489c.109 0 .272-.054.489-.163l.652-.326.978-.326c.326 0 .707.217 1.141.652.544.543.87.815.978.815.326-.217.815-.38 1.467-.489v.326c.109.109.163.326.163.652 0 .435-.054 1.087-.163 1.956 0 .761-.054 1.739-.163 2.934l-.326.652c.109.326.163 1.087.163 2.282-.108.217-.217.598-.326 1.141-.108.543-.163.924-.163 1.141v.326c0 .217.109.761.326 1.63v.652c0 .761-.217 1.413-.652 1.956-1.086 1.087-1.738 1.63-1.956 1.63l-1.467-.489c-.217 0-.489.054-.815.163l-.978.163a2.051 2.051 0 0 0-.815-.489c-.217-.217-.543-.38-.978-.489a6.305 6.305 0 0 1-.815.326c-.217 0-.543.054-.978.163l-1.793-.489c-1.086-.326-1.793-.489-2.119-.489l-1.63.326c-.217 0-.489-.38-.815-1.141.435-.109.707-.38.815-.815h1.141c.435 0 .87.054 1.304.163l.163-.652v-.326c0-.326-.217-.706-.652-1.141h-.652c-.217-.109-.543-.217-.978-.326-.217.217-.326.652-.326 1.304-.326-.109-.652.163-.978.815-.217-.217-.597-.054-1.141.489v1.141c-.217.217-.434.598-.652 1.141-.76.326-1.141.761-1.141 1.304l.326.326c.109.109.163.272.163.489v1.63c0 .326-.054.761-.163 1.304l.489.652c-.217.652-1.032 2.01-2.445 4.075v.326c0 .435.163.815.489 1.141.218-.652.815-1.358 1.793-2.119.435.543.652 1.087.652 1.63 0 .109-.652.761-1.956 1.956l.652 1.141.652-.163c.435 0 .652.326.652.978-.217.217-.489.652-.815 1.304a2.898 2.898 0 0 0-.326 1.304l.489.489c0 .109-.326.815-.978 2.119l.489 1.304c0 .543-.38.869-1.141.978.109.109.381.163.815.163l.163.489c-.326.326-.543.652-.652.978.218.652.598 1.032 1.141 1.141.544 0 .978.054 1.304.163.87-.109 1.739-.163 2.608-.163h2.771c.109.435.381.652.815.652.218 0 .707-.489 1.467-1.467.652 0 1.087.598 1.304 1.793h.489c0-.326.055-.598.163-.815.761-.326 1.902-.435 3.423-.326l1.956.815c0 .109.435.163 1.304.163.435 0 .707.054.815.163l2.119-.489c.326 0 .598-.109.815-.326.109-.109.489-.163 1.141-.163.87.217 1.304.869 1.304 1.956 0 .435-.163 1.576-.489 3.423l-.326.326a1.455 1.455 0 0 0-.163.652v4.075l-.978.326c.761 1.521 1.141 2.771 1.141 3.749 0 .543-.326 1.087-.978 1.63l.489 2.119-.652.326zm.815-90.954h.163c.652 0 1.196-.38 1.63-1.141-.326-.435-.597-.652-.815-.652l-1.956 1.141c.326.435.652.652.978.652zm-2.934 3.423c0-.109-.163-.326-.489-.652l-.326.326.815.326zm-25.265 2.282.815-1.793-.815-.326-.652-.489c-.652.435-.978 1.032-.978 1.793.652.435 1.196.706 1.63.815zm-4.075 12.388c0-.217-.054-.435-.163-.652 0-.217-.054-.435-.163-.652h-1.141l-.163.652.652.489.978.163zm-6.031 11.736c0-.217.055-.272.163-.163l-.163.163zm8.802 3.586c.544-.869.435-1.521-.326-1.956-.108.109-.271.435-.489.978 0 .326.272.652.815.978zm-3.912 1.793.163-2.445-.489-.489h-1.141l-.163.489.489.978c.218.109.218.435 0 .978.326 0 .707.163 1.141.489zm2.119 4.238v-.815c0-.326.055-.652.163-.978-.108 0-.326.163-.652.489 0 .326.163.761.489 1.304zm19.56-.326h.163c.218 0 .761-.109 1.63-.326l-.815-.815c-.217-.326-.597-.217-1.141.326 0 .435.055.706.163.815zM199.374 174.4c.109-.109 0-.326-.326-.652-.217 0-.38.054-.489.163l.815.489zm-.489 5.216c.218 0 .652-.109 1.304-.326l-.489-1.304c-.434.109-.652.326-.652.652l-.163.978zm-6.52 3.423v-.815c0-.326.055-.598.163-.815-.108-.109-.326 0-.652.326l.489 1.304zm.163 3.586c.109-.217.055-.435-.163-.652-.217-.217-.489-.217-.815 0 .109.217.435.435.978.652zm-1.63 8.965c.326-.435.381-.869.163-1.304h-.652l-.326.978c.218.217.489.326.815.326zm24.287 6.846c0-.217-.108-.435-.326-.652-.108-.109-.326-.054-.652.163 0 .326.326.489.978.489zm.489 3.586 2.934-.489-.489-1.141c-.217-.543-.652-.815-1.304-.815l-1.467.489v.978l.326.978zm43.129 2.771c-.109-.217-.435-.38-.978-.489-.109-.109-.435-.163-.978-.163h-.978c-.217.109-.38.163-.489.163 0 .109-.054.163-.163.163l-.652-.163h-.652c-.217 0-.543-.054-.978-.163l-.978-.326-1.304.489-2.608-.163a5.326 5.326 0 0 0-.815-.652c-.217-.109-.543-.217-.978-.326-.217 0-.598.217-1.141.652-.761.435-1.195.652-1.304.652-.761 0-1.141-.326-1.141-.978l.489-1.467c-.109-.109-.163-.543-.163-1.304l.815-1.304c0-.217-.109-.435-.326-.652-.217-.217-.326-.543-.326-.978l.326-3.749c0-.217.272-.869.815-1.956-.217-1.739-.272-2.662-.163-2.771 1.087-.109 1.684-.652 1.793-1.63 0-1.195-.163-2.119-.489-2.771l-1.141-.652c-.326-.326-.489-.598-.489-.815 0-.326.163-.706.489-1.141l.652-1.141c.109-.978.163-1.847.163-2.608v-2.119c0-1.847-.109-2.88-.326-3.097l1.467-.163.652 1.304c-.109-.435-.326-.869-.652-1.304-.217-.435-.543-.869-.978-1.304-.217-1.195-.435-2.01-.652-2.445-.109-.543-.163-.706-.163-.489 1.087-1.847 1.63-3.369 1.63-4.564 0-.978-.272-1.576-.815-1.793l-.815-.489v-.652a9.728 9.728 0 0 0-.489-3.097c-.326-.435-.652-1.195-.978-2.282l.163-2.282-.978-1.467-.326-1.467-.815-2.119c.109-.543.272-1.467.489-2.771a99.073 99.073 0 0 1-1.304-1.793l-.815-.489.489-1.956h-.163c-.217 0-.489-.815-.815-2.445l-.652-2.934c0-.109-.326-.869-.978-2.282.217-.326.217-.761 0-1.304-.869-2.608-1.304-3.749-1.304-3.423 0-.326.163-.869.489-1.63.109 0 .272.109.489.326.326-.217.489-.435.489-.652l-.815-2.119c-.978 0-1.576-.272-1.793-.815 0-.978.163-1.793.489-2.445a35.11 35.11 0 0 1-.652-1.467c-.326-.761-.706-1.847-1.141-3.26-.869-2.934-1.304-4.564-1.304-4.89l-.326-.326a1.908 1.908 0 0 0-.489-.326v-.815c-.326-.543-.272-.978.163-1.304l-.489-.489-.652-3.423c.217-.978.706-1.467 1.467-1.467l1.141.326c.217.435.543.706.978.815l3.097-.815h2.282c.326 0 .652-.054.978-.163 2.065 1.195 3.26 1.793 3.586 1.793.435 0 .706-.163.815-.489.326-.543.652-.869.978-.978.217-.109.489-.163.815-.163a6.047 6.047 0 0 1 1.467-.163c1.195.217 1.793.978 1.793 2.282 0 .543-.054.978-.163 1.304-.109.652.054 3.477.489 8.476l.815 4.075.978.652v.652c-.217.217-.543.652-.978 1.304 0 .435.217.706.652.815.435.217.706.326.815.326 0 .435-.054.761-.163.978l-.163.489-.163 3.586h.815c.543 0 .815.38.815 1.141-.109 4.564.054 7.661.489 9.291-.217.326-.217.761 0 1.304.435.435.978 1.141 1.63 2.119a6.165 6.165 0 0 1 1.304-1.956c-.326-.869-.543-1.304-.652-1.304.109-.109.163-.38.163-.815.435 0 .815-.217 1.141-.652V141.637c.109-.217.217-.489.326-.815l.326-1.793c.217 0 .543-.163.978-.489-.109-.435-.435-.652-.978-.652v-.652c0-.109.326-.326.978-.652v-.489c-.217-.217-.435-.326-.652-.326.543-.217 1.032-.706 1.467-1.467.326-.978.652-2.499.978-4.564-.109-.435-.109-1.195 0-2.282l.978-1.63v-.978c0-.435.054-.869.163-1.304l.815-3.749c1.521-.326 2.391-1.902 2.608-4.727a10.624 10.624 0 0 1-.652-1.141c.217-1.304.38-2.173.489-2.608.109-.543.598-1.25 1.467-2.119l.489 1.141c.435.761.924 1.141 1.467 1.141-.217 0 1.141-.38 4.075-1.141l.163.978c0 .109.163.272.489.489h.163c.435 0 .869-.435 1.304-1.304l.815-.163c.217 0 .326.109.326.326l-.163.489c0 .109-.054.217-.163.326v.163c.217.217.38.326.489.326.217 0 .543-.163.978-.489l.978-.652c.435.109.652.435.652.978.217.435.326.706.326.815.109 0 .38.109.815.326.326.326.598.489.815.489.435 0 .869-.163 1.304-.489 0-.435-.109-.761-.326-.978-.217-.109-.326-.272-.326-.489 0-.869.924-1.195 2.771-.978.543 0 .706.272.489.815l-.326 1.141c-.109.326-.326.815-.652 1.467a31.37 31.37 0 0 0-.652 2.282c-.217.761-.489 1.25-.815 1.467l-.978.815.163.978c0 .217-.109.598-.326 1.141-.109.543-.217 1.358-.326 2.445l-1.141.978v.652c0 .217-.054.543-.163.978a6.457 6.457 0 0 0-.815.978l-.163 2.445-1.467-.163-.163.163v.489c.217.217.543.326.978.326.109.109.163.326.163.652a29.16 29.16 0 0 1-.978 2.119 50.855 50.855 0 0 1-1.304 3.097h-.326c-.326 0-.924.109-1.793.326l1.63 1.141-.652 1.304-.652 1.304-.489 1.63-1.141 1.63v2.771c-.652.435-1.195 1.141-1.63 2.119-.543 0-1.032.38-1.467 1.141l-.815 1.304c-.109 0-.272-.109-.489-.326-.217-.217-.326-.217-.326 0-.435.435-.652.924-.652 1.467s.217 1.087.652 1.63c.326.761.489 1.358.489 1.793 0 .326-.054.543-.163.652v1.467c-1.087.761-1.63 1.684-1.63 2.771 0 .435-.217 1.032-.652 1.793-.109.652-.109 1.195 0 1.63-.109.109-.163.326-.163.652-.543.435-1.032 1.087-1.467 1.956-.435.869-.706 2.065-.815 3.586l-.163 5.868c0 .435-.38 1.032-1.141 1.793h-.489c-.761 0-1.141.163-1.141.489 0 .543.272.978.815 1.304l1.141.815c.217 0 .38.054.489.163l.163 1.141v.652c.109.109.163.217.163.326a6.41 6.41 0 0 1-.489 1.304 11.63 11.63 0 0 1-.489 1.467l.652 2.119c-.109.109-.272.435-.489.978v.652c0 .652.054 1.141.163 1.467l-.326 1.141v1.956c-.109.109-.217.326-.326.652-.109.326-.217.706-.326 1.141l-.163 3.097c.109.978.217 1.413.326 1.304l-.815 1.793c.109.109.217.326.326.652.109.217.217.489.326.815l-.326 1.304v.978c0 .326-.054.706-.163 1.141-.543 1.847-1.304 2.771-2.282 2.771zm-18.582-96.985c.109-.217.054-.435-.163-.652-.217-.217-.489-.217-.815 0 .109.217.435.435.978.652zm-6.52 2.445c.326.109.652-.054.978-.489-.109-.109-.272-.163-.489-.163-.326 0-.489.217-.489.652zm12.225 3.097c.435 0 .706-.054.815-.163-.109-.435-.38-.598-.815-.489v.652zm28.362 1.141c.109-.109 0-.326-.326-.652l-.489.326c.109.109.217.163.326.163.217 0 .38.054.489.163zm-28.199.652c.217 0 .435-.109.652-.326 0-.217-.054-.38-.163-.489l-.652.489c.109.109.163.217.163.326zm35.534.326v.163-.163zm-3.423 1.63v-.815h-.489l.326.489.163.326zm-4.401.652c.109-.217.054-.435-.163-.652-.217-.217-.489-.217-.815 0 .109.217.435.435.978.652zm.652 5.542c.326 0 .869-.326 1.63-.978.978-.543 1.467-.978 1.467-1.304v-.163c0-.543-.435-1.141-1.304-1.793-.978.761-1.63 1.141-1.956 1.141.109.109.217.326.326.652a3.601 3.601 0 0 0-.163 1.141v1.304zm-26.243 2.934c.109-.217.217-.38.326-.489a2.57 2.57 0 0 0 .489-.652h-.652c-.109 0-.326.272-.652.815l.489.326zm1.304 2.282c0-.326-.109-.815-.326-1.467l-.652-.163v.652c.326.543.435.869.326.978h.652zm.489 14.344c.217 0 .435-.109.652-.326l-.163-.489c-.109.109-.272.38-.489.815zm-6.52 1.63.978-.163-.978-.326v.489zm0 3.26c.217.109.435.054.652-.163.217-.217.217-.489 0-.815-.217.109-.435.435-.652.978zm10.106 4.238c.543 0 .924-.054 1.141-.163v-.652l-2.282-1.793c-.326.217-.706.652-1.141 1.304.435.435.815.761 1.141.978.435.109.815.217 1.141.326zm8.639-.815c.109-.109.38-.272.815-.489-.109-.109-.38-.109-.815 0v.489zm1.956 1.304c.326.109.652-.054.978-.489-.109-.109-.272-.163-.489-.163-.326 0-.489.217-.489.652zm-13.203 5.868c0-.326-.054-.543-.163-.652-.217-.217-.489-.217-.815 0 0 .217.326.435.978.652zm3.097 3.586c.109-.109.163-.272.163-.489 0-.326-.217-.489-.652-.489-.109.326.054.652.489.978zm5.053 7.987c0-.217-.109-.435-.326-.652-.109-.109-.326-.054-.652.163 0 .326.326.489.978.489zm-4.564 7.009-.326-.326c0-.109-.109-.217-.326-.326l-.489.815c.543.326.924.489 1.141.489v-.652zm.163 20.538h.978l.326-.652c.109-.326.217-.706.326-1.141 0-1.087-.326-1.63-.978-1.63l-1.793.163-.163 2.282 1.304.978zm-6.031 1.141c.326.109.652-.054.978-.489-.109-.109-.272-.163-.489-.163-.326 0-.489.217-.489.652zm6.52 2.445c.217.109.543-.054.978-.489-.217-.217-.435-.326-.652-.326-.435 0-.543.272-.326.815z" fill="#fff"/></svg>