<svg width="33" height="32" fill="none" xmlns="http://www.w3.org/2000/svg"><path d="M28.654 6.147a7.582 7.582 0 0 0-2.453-1.59 7.768 7.768 0 0 0-5.79 0 7.583 7.583 0 0 0-2.454 1.59L16.499 7.56l-1.457-1.413a7.686 7.686 0 0 0-5.349-2.149c-2.006 0-3.93.773-5.349 2.149a7.224 7.224 0 0 0-2.215 5.186c0 1.946.797 3.811 2.215 5.187l1.458 1.413 10.697 10.374 10.698-10.374 1.457-1.413a7.324 7.324 0 0 0 1.64-2.38 7.141 7.141 0 0 0 0-5.614 7.324 7.324 0 0 0-1.64-2.38z" fill="#fff" stroke="#fff" stroke-width="2" stroke-linecap="round" stroke-linejoin="round"/></svg>