<svg width="32" height="32" fill="none" xmlns="http://www.w3.org/2000/svg"><path d="M4 24v-8a12 12 0 1 1 24 0v8" stroke="#fff" stroke-width="2" stroke-linecap="round" stroke-linejoin="round"/><path d="M28 25.333A2.667 2.667 0 0 1 25.333 28H24a2.667 2.667 0 0 1-2.667-2.667v-4A2.667 2.667 0 0 1 24 18.667h4v6.666zm-24 0A2.667 2.667 0 0 0 6.667 28H8a2.667 2.667 0 0 0 2.667-2.667v-4A2.667 2.667 0 0 0 8 18.667H4v6.666z" stroke="#fff" stroke-width="2" stroke-linecap="round" stroke-linejoin="round"/></svg>