<svg id="Loading" xmlns="http://www.w3.org/2000/svg" viewBox="0 0 1199.89 598.48"><defs><style>.cls-1{fill:#fff;}</style></defs><path class="cls-1" d="M1423.74,939.26c10.76-.35-3.62-.11-16.81-.07Z" transform="translate(-227.62 -342.91)"/><path class="cls-1" d="M1406.93,939.19l-11.89-.06C1398.19,939.19,1402.41,939.2,1406.93,939.19Z" transform="translate(-227.62 -342.91)"/><path class="cls-1" d="M1296.08,938.94c25.5-.28,55.88.11,71.8-.32C1342.18,938.36,1302.44,938.47,1296.08,938.94Z" transform="translate(-227.62 -342.91)"/><polygon class="cls-1" points="1106.75 596.31 1109.96 596.08 1087.6 596.44 1106.75 596.31"/><polygon class="cls-1" points="1122.73 596.52 1119.52 596.44 1084.57 596.68 1122.73 596.52"/><path class="cls-1" d="M1209.86,938.77l25.55-.06c23.94.32-15.81.43.18.64,31.91,0,11-.66,50.87-.56-3.18-.3-63.84,0-57.41-.47C1195.53,938.17,1227.41,938.6,1209.86,938.77Z" transform="translate(-227.62 -342.91)"/><path class="cls-1" d="M970.2,428.66c-1.22-.35-2.3-.52-3.42-.79C968.12,428.21,969.51,428.5,970.2,428.66Z" transform="translate(-227.62 -342.91)"/><path class="cls-1" d="M902.82,460.29c1.63,2.37,3.28,4.73,5,7s3.4,4.57,5.12,6.79c-1-1.4-2.34-3.11-4-5.46l-3.09-4.14Z" transform="translate(-227.62 -342.91)"/><path class="cls-1" d="M1016.43,526.7c3.42,5,6.33,9.64,8.84,14A160.88,160.88,0,0,0,1016.43,526.7Z" transform="translate(-227.62 -342.91)"/><path class="cls-1" d="M776,601.51c-1-.33-1.78-.6-2.11-.67l.71.3c1.48.52,2.94,1,4.43,1.5C778,602.28,777,601.9,776,601.51Z" transform="translate(-227.62 -342.91)"/><path class="cls-1" d="M1281.89,465.69a21.32,21.32,0,0,0-7.37-4.31,54.59,54.59,0,0,0-8.39-2.34,57.29,57.29,0,0,1,6.68,1.77,35,35,0,0,1,4.61,1.86A18,18,0,0,1,1281.89,465.69Z" transform="translate(-227.62 -342.91)"/><path class="cls-1" d="M1050.15,479.67c.52,2.27.93,4.25,1.34,6.23-.38-2-.93-4.68-1.64-7.7l.23,1.17Z" transform="translate(-227.62 -342.91)"/><path class="cls-1" d="M928.93,408A61.11,61.11,0,0,0,917,399.58,64.09,64.09,0,0,1,928.93,408Z" transform="translate(-227.62 -342.91)"/><path class="cls-1" d="M1027.75,712.34c.2-7.21.38-13.2.53-18.54C1028.08,698.39,1027.79,704.25,1027.75,712.34Z" transform="translate(-227.62 -342.91)"/><path class="cls-1" d="M1036.66,562c0,.29-.05.6-.08.88C1036.72,562,1036.75,561.56,1036.66,562Z" transform="translate(-227.62 -342.91)"/><path class="cls-1" d="M1037.55,465.64c.12.58.18,1.11.28,1.68A6,6,0,0,0,1037.55,465.64Z" transform="translate(-227.62 -342.91)"/><path class="cls-1" d="M1028.28,693.8c.68-12.46,1.44-16.16,1.6-32.26l-.25,3.2c.64-9.65,1.22-23.92,1.89-35.09-.14,1.14-.27,2.45-.41,4-.34,5.63-.79,13-1.49,24.49C1028.75,671.77,1028.65,680.62,1028.28,693.8Z" transform="translate(-227.62 -342.91)"/><path class="cls-1" d="M971.74,428.93c.66.23,3.33,1.06,4.46,1.51.58.21.79.28.2.05l-1.53-.59C974.1,429.66,973.09,429.31,971.74,428.93Z" transform="translate(-227.62 -342.91)"/><path class="cls-1" d="M949.13,475.38a96.15,96.15,0,0,0,8.81,9A104.3,104.3,0,0,1,949.13,475.38Z" transform="translate(-227.62 -342.91)"/><path class="cls-1" d="M961,389.51c-.64-.57-1.14-1.08-1.72-1.63S960.07,388.76,961,389.51Z" transform="translate(-227.62 -342.91)"/><path class="cls-1" d="M967.2,491.25a57.59,57.59,0,0,1-9.26-6.83A53.57,53.57,0,0,0,967.2,491.25Z" transform="translate(-227.62 -342.91)"/><path class="cls-1" d="M1029.34,425.26l1,1.77Z" transform="translate(-227.62 -342.91)"/><path class="cls-1" d="M536.86,759.67c3.2,3.62,5.9,6.4,8.55,9.12s5.33,5.34,8.71,8.51c7.82,6.83-.19-.3-7-6.94-3.4-3.32-6.45-6.53-7.37-7.57s.15.21,5.49,5.45c-3.24-3.23-6-6.19-8.5-9a60.06,60.06,0,0,1-6.19-8.09A67.23,67.23,0,0,0,538,761.38c3,3.29,4.15,4.31,4.06,4.21s-1.29-1.38-2.63-2.86C536.7,759.78,533.6,756,536.86,759.67Z" transform="translate(-227.62 -342.91)"/><path class="cls-1" d="M888.49,575q-1.41,1.6-2.9,3.15c1.08-1,1.15-1,2.38-2.29.59-.65,1.47-1.61,2.81-3.25a71.86,71.86,0,0,0,5.38-7.45,21.88,21.88,0,0,0,2.3-4.58c.07-.32-.31.23-.54.48s-.3.19.35-1.3c.17-.36.37-.83.6-1.42s.55-1.26.85-2.1a45.21,45.21,0,0,0,2-6.93,41,41,0,0,1-2.62,8.11,57.43,57.43,0,0,1-4.79,8.69c.7-1,1.23-1.81,1.6-2.37a10.81,10.81,0,0,1,.69-1c.2-.25,0,.35-.64,1.48A68.45,68.45,0,0,1,888.49,575Z" transform="translate(-227.62 -342.91)"/><path class="cls-1" d="M894.31,566.06l-.41.56c-.61.85-1.31,1.82-2.13,2.85a82.22,82.22,0,0,1-6.21,7.39A76.79,76.79,0,0,0,894.31,566.06Z" transform="translate(-227.62 -342.91)"/><path class="cls-1" d="M706.47,897.65c.12-4,.22-7.66.32-11C706.57,892,706.49,895.23,706.47,897.65Z" transform="translate(-227.62 -342.91)"/><path class="cls-1" d="M1280.42,492.23a80.2,80.2,0,0,1-9.31,9.9A68.64,68.64,0,0,0,1280.42,492.23Z" transform="translate(-227.62 -342.91)"/><path class="cls-1" d="M788.6,558.6c1.74.71,3.54,1.35,5.33,2.16l2.69,1.29,1.39.67c.45.23.9.5,1.35.75l3.11,1.73c1,.61,2.06,1.32,3.3,2.11A76.62,76.62,0,0,0,788.6,558.6Z" transform="translate(-227.62 -342.91)"/><path class="cls-1" d="M845.16,719.22c-.47-8.3,0,6.37-.23,22.91l.24,15.38C845.25,743.42,845.17,730.39,845.16,719.22Z" transform="translate(-227.62 -342.91)"/><path class="cls-1" d="M530.15,750.36s0,0-.1-.1c.16.31.29.51.51.9C530.43,750.89,530.27,750.62,530.15,750.36Z" transform="translate(-227.62 -342.91)"/><path class="cls-1" d="M706.84,800c0-2.61,0-4.93-.05-7.41C706.8,794.05,706.82,796.36,706.84,800Z" transform="translate(-227.62 -342.91)"/><path class="cls-1" d="M816.83,609c-1.23.07-2.46,0-3.69,0s-2.46-.06-3.68-.13c-2.45-.21-4.91-.35-7.34-.73a102.57,102.57,0,0,1-14.44-2.91,129.36,129.36,0,0,1-27.26-11A130.38,130.38,0,0,0,776,601.51c1.93.67,4.87,1.73,8.37,2.8a116.51,116.51,0,0,0,11.69,2.94l3.09.57c1,.19,2.06.3,3.06.44,2,.32,4,.46,5.8.61s3.53.17,5,.21l2.08,0C815.74,609.1,816.32,609.05,816.83,609Z" transform="translate(-227.62 -342.91)"/><path class="cls-1" d="M854,661.89c-1,1.41-1.93,2.81-2.94,4.18a100.87,100.87,0,0,1-9.2,12.44,47.65,47.65,0,0,1-5.41,5.33,18.19,18.19,0,0,1-2.84,1.94,5.4,5.4,0,0,1-1.2.48.76.76,0,0,1-.21,0h0s-.08,0-.12-.13a3.19,3.19,0,0,1-.27-.53c-.07-.26-.17-.48-.24-.78a20.18,20.18,0,0,1-.5-4,65.63,65.63,0,0,1,.37-8.9c.6-6,1.63-12.13,2.78-18.17,2.34-12.09,5.22-24,8.16-35.55s6-22.69,9-33.24,5.7-20.56,8.41-29.59a178.68,178.68,0,0,1,8.06-20.6c2.63-5.41,5.38-9.47,8.17-11.66a8.34,8.34,0,0,1,7.83-1.68,4.7,4.7,0,0,1,.9.28c.3.11.6.19.88.32a17.18,17.18,0,0,1,1.66.84l.8.46.76.52a15.46,15.46,0,0,1,1.45,1.11,26.17,26.17,0,0,1,5.06,5.68,27.41,27.41,0,0,1,2,3.82,22.44,22.44,0,0,1,.83,2.23c.13.39.21.8.31,1.22a10,10,0,0,1,.28,1.28,26.51,26.51,0,0,1-1.29,13,55.12,55.12,0,0,1-9.78,17c.48-.52,1-1.05,1.4-1.6a101.68,101.68,0,0,1-26.56,24.16c-2.54,1.64-5.17,3.13-7.85,4.52-1.33.71-2.69,1.35-4.06,2l-4.18,1.7c-.7.28-1.38.59-2.09.84l-2.16.68c-1.44.44-2.85,1-4.31,1.33l-4.4,1-1.1.26-1.12.18-2.23.36a94.46,94.46,0,0,1-36.13-1.56,118.39,118.39,0,0,1-17.47-5.52,130.31,130.31,0,0,1-16.5-8,76.77,76.77,0,0,1-14.62-10.62,20.29,20.29,0,0,1-4.82-6.58,4.82,4.82,0,0,1,1.13-5.73,19.7,19.7,0,0,1,7-4.1,51.58,51.58,0,0,1,8.6-2.32,69.11,69.11,0,0,1,9-1.07c.75,0,1.49-.07,2.24-.06l2.23.07,2.24.07c.74,0,1.48.16,2.22.24a60.26,60.26,0,0,1,17.31,4.6A78.85,78.85,0,0,1,807,573.08a93.43,93.43,0,0,1,24.34,26.74,85.08,85.08,0,0,1,7.52,16.41l.73,2.14c.23.72.4,1.45.59,2.18.37,1.46.81,2.9,1.13,4.38l.85,4.44c.16.73.25,1.48.34,2.23l.28,2.24a101.17,101.17,0,0,1-2.34,35.91l-.57,2.18-.3,1.08-.25.87a1.22,1.22,0,0,0-.06.54V675l0,4.64,0,9.27q0,9.25.07,18.49.07,18.45.15,36.77c.25,49,.49,97.26.72,144.16L859.62,935l-.35-.31c.92,2.22,1.83,4.44,2.73,6.62l156.29.11q1-26.65,2-53.24,1-25.11,2-50.16,2.1-50.12,4.55-100c1.65-33.29,3.46-66.54,5.63-99.73l1.72-24.88c.65-8.28,1.25-16.56,2-24.83s1.45-16.54,2.38-24.76l.66-6.18c.22-2,.51-4,.86-6a94.67,94.67,0,0,1,2.92-11.72c4.89-15.38,13.61-29.45,24.43-41.6a177.13,177.13,0,0,1,37.45-31.41,200.33,200.33,0,0,1,44.22-21.15,112.36,112.36,0,0,1,23.64-5.32,37,37,0,0,1,11.43.4,8.94,8.94,0,0,1,4.08,2c.1.11.19.22.3.32s.14.25.23.37a3.54,3.54,0,0,1,.41.85,8,8,0,0,1,.44,2.23,20.34,20.34,0,0,1-.45,5.34,42.69,42.69,0,0,1-1.64,5.55,64.5,64.5,0,0,1-5.24,10.69,67.5,67.5,0,0,1-15.49,18,33.47,33.47,0,0,1-9.95,5.5,17.2,17.2,0,0,1-10.59.15,22.85,22.85,0,0,1-5.13-2.09,21,21,0,0,1-4.41-3.16,8.78,8.78,0,0,1-2.55-3.78c0-.14-.07-.28-.11-.42s0-.24,0-.36.06-.46.07-.7a5.32,5.32,0,0,1,1-1.68,16.48,16.48,0,0,1,4-3.41,46.3,46.3,0,0,1,5.11-2.82,100.35,100.35,0,0,1,11.3-4.42,213,213,0,0,1,23.91-6.11c8.1-1.62,16.29-2.89,24.52-3.87s16.49-1.65,24.76-1.95c7.37-.32,11.78-.28,14.65-.3s4.2,0,5.41,0,2.29,0,4.64.09a92,92,0,0,1,12.18,1.44,56.15,56.15,0,0,1,9.6,2.73c3.44,1.33,6.9,3.41,8.53,6s1.41,5.67.86,7.87a18.32,18.32,0,0,1-.83,2.62,4.1,4.1,0,0,1-.45.95,18.84,18.84,0,0,0,1.42-5.69,9.44,9.44,0,0,0-.26-3.25,5.46,5.46,0,0,0-.61-1.49,1.94,1.94,0,0,0-.35-.54c-.16-.16-.12,0-.25-.17s-.35-.51-1.38-1.55a7.74,7.74,0,0,1,2.38,4.36,13.38,13.38,0,0,1-.52,5.72,37.89,37.89,0,0,1-6.4,11.85,76,76,0,0,1-21.64,19c-1,.62-2.13,1.12-3.18,1.69a29.84,29.84,0,0,1-3.23,1.54l-3.27,1.37-3.35,1.1a60,60,0,0,1-13.54,2.5,76,76,0,0,1-13.18-.18c-2.13-.15-4.21-.49-6.25-.75s-4-.67-6-1a115,115,0,0,0,12.94,2.1c2.16.29,4.33.3,6.49.44,2.16,0,4.33.06,6.48-.17a82,82,0,0,1-21.42-1.14c-7.62-1.31-15-3.31-20.44-4.8,2.31.55-.45-.34-2.61-1.06s-3.73-1.28,1,0c-8.14-2.18-15.09-4.13-21.15-5.62s-11.26-2.55-15.79-3.31a112,112,0,0,0-21.72-1.59,85,85,0,0,0-9.25.77c-1.59.28-3.24.55-5,.88s-3.53.86-5.46,1.38-4,1.24-6.1,2.09l-3.31,1.39c-.57.25-1.17.47-1.75.76l-1.77.91c-1.19.63-2.46,1.24-3.74,2l-3.89,2.47a21.7,21.7,0,0,0-2,1.44l-2,1.56a23.18,23.18,0,0,0-2,1.75l-2,1.89c-.94,1.17-2.69,3-4.62,5.61l-.76,1-.76,1.08-1.61,2.34-3.47,5.24a42,42,0,0,1-9.54,10.65,42.44,42.44,0,0,1-15.36,6.88,62.63,62.63,0,0,1-18.71,1.73,81.92,81.92,0,0,1-19.34-3.71l-2.36-.75-1.18-.38-1.15-.45-4.6-1.77c-3-1.36-6-2.6-8.8-4.13s-5.59-3-8.26-4.53c-1.35-.75-2.61-1.6-3.89-2.39s-2.54-1.55-3.73-2.39a208.06,208.06,0,0,1-19.28-15.11c3.06,2.69,5.46,4.56,7.25,6s3,2.32,3.89,2.94a14.9,14.9,0,0,0,2.24,1.48c.37.19.89.58,3.45,2.28l2.3,1.57,1.47,1,1.77,1.13c1.27.8,2.71,1.75,4.39,2.78l5.8,3.36a182.8,182.8,0,0,1-20.65-13.61,232.53,232.53,0,0,1-18.54-15.53q-8.79-8.16-16.83-16.95T912.93,474.1c1.82,2.51,2.51,3.43,1.66,2.55-.43-.45-1.19-1.38-2.36-2.82s-2.74-3.39-4.65-6c-5.79-7.92-8.65-12.43-11.63-17.26-.74-1.21-1.52-2.43-2.3-3.75s-1.61-2.73-2.52-4.29c-1.81-3.12-3.91-6.87-6.5-11.81,3.45,6.48,7.23,12.79,11.24,18.95-3.87-6.34-7.4-12.27-10.57-18.24a131.51,131.51,0,0,1-8.3-18.34c-.13-.53-.4-1.48-.76-2.73-.19-.62-.32-1.32-.51-2.08-.09-.38-.19-.77-.28-1.18l-.23-1.25c-.07-.43-.15-.87-.23-1.32s-.09-.9-.14-1.36a10.67,10.67,0,0,1-.1-1.38c0-.46,0-.94,0-1.39a9.55,9.55,0,0,1,1.16-4.77,8.18,8.18,0,0,1,3.38-2.7,14.87,14.87,0,0,1,3.68-1.13c2.1-.33,3-.32,1.69-.08a36.6,36.6,0,0,1,9.77.08,59.29,59.29,0,0,1,8.6,1.8,69.4,69.4,0,0,1,14.47,6,61.75,61.75,0,0,1,13,9.38A54.53,54.53,0,0,1,942,425.3a57.22,57.22,0,0,0-4.3-7.92c-1.1-1.68-1.73-2.56-2-2.89-.45-.66.83.82,2.43,3.2A60.65,60.65,0,0,1,942.8,426c1.2,2.58,1.86,4.37,1.6,3.48a59.53,59.53,0,0,0-9.08-16.1,55.85,55.85,0,0,0-13.87-12.15,56.57,56.57,0,0,1,11,9,40.92,40.92,0,0,1,3.31,3.93,57,57,0,0,0-5.26-5.76,58.34,58.34,0,0,0-6.56-5.3,68.66,68.66,0,0,0-7.24-4.37c-4.57-2.35-8-3.49-7.12-3-2.84-1.18-4.53-1.71-5.31-2s-.69-.28,0-.12a64.25,64.25,0,0,1,7.82,2.68c3,1.23,5.34,2.47,4.73,2.09-.31-.18-1.35-.79-3.53-1.82a69.8,69.8,0,0,0-10.5-3.91,71.59,71.59,0,0,1,15.6,6.45,62.48,62.48,0,0,1,11.52,8.17,54.94,54.94,0,0,1,13.58,19.28,83.83,83.83,0,0,1,6,23.36,126.87,126.87,0,0,1-.46,32c1-7.69,1.1-11.21,1.22-12.37s.1,0,0,1.68-.17,3.73-.18,4.37.17-.17.5-4.34c-.31,4.93-.83,8.76-1.27,11.72s-.86,5-1.17,6.5c-.62,2.9-.75,3.25-.68,2.78.12-1,.92-5.24-.53.67A107.23,107.23,0,0,1,943,506.24a63.09,63.09,0,0,1-4.64,10.06,28.07,28.07,0,0,1-2.93,4.2,12.42,12.42,0,0,1-1.78,1.71,4.69,4.69,0,0,1-1.94.94c-1.18.26-2.91-.67-4.42-1.94a30.5,30.5,0,0,1-4.49-4.91,60.55,60.55,0,0,1-5-8.31c-1-2-1.55-3.26-1.82-3.91-.53-1.3,0-.23.75,1.3s1.85,3.49,2.25,4.1,0-.07-1.87-4c.72,1.41,1.93,3.82,3.72,6.76a52.26,52.26,0,0,0,3.2,4.66,23.59,23.59,0,0,0,4.37,4.51,6.44,6.44,0,0,0,2.5,1.25,1.87,1.87,0,0,0,1-.07,4.48,4.48,0,0,0,1.2-.6,18.77,18.77,0,0,0,4.57-5.52A70.91,70.91,0,0,0,944,501.83a125.25,125.25,0,0,0,5.2-26.73c.52-6.69.3-10.13,0-7.79a103,103,0,0,0-3.07-29.5A70.35,70.35,0,0,0,940,422.16,52.88,52.88,0,0,0,928.93,408a51.84,51.84,0,0,1,10.88,14.14,71.22,71.22,0,0,1,6.71,19.2c2.88,13.91,2.51,29.14.38,42.88l.35,1.48c-.92,5.23-1.9,9.37-2.85,12.87s-1.87,6.36-2.85,9a58,58,0,0,1-3.33,7.53,31.37,31.37,0,0,1-2.31,3.72,16.33,16.33,0,0,1-1.48,1.77,8.12,8.12,0,0,1-1.72,1.43,5.83,5.83,0,0,0,1.22-1c.2-.21.2-.24,0-.11s-.51.41-1,.74a3.51,3.51,0,0,1-1.55.6,4.58,4.58,0,0,1-2.39-1.05,19.41,19.41,0,0,1-3.3-3.15,55.84,55.84,0,0,1-6.41-9.77,61.19,61.19,0,0,0,3.68,6.29c1.13,1.67,1.87,2.59,1.27,1.92a61.25,61.25,0,0,1-5.53-8.9c-1.47-2.83-2.65-5.48-3.66-8a97.7,97.7,0,0,1-4.55-14.24,77.67,77.67,0,0,1-2.13-15.87,55,55,0,0,1,.66-10.09,39,39,0,0,1,3.73-11.73,38.58,38.58,0,0,0-3.46,9.69,52,52,0,0,0-1.13,8.63,72.86,72.86,0,0,0,.82,14.51,92.51,92.51,0,0,0,3.25,13.88,89.15,89.15,0,0,0,7.19,16.87,67.79,67.79,0,0,1-6.57-13.9,95,95,0,0,1-5-21.82c.32,2.55.84,6.09.27,1.08a62,62,0,0,1,.21-18.15,39.28,39.28,0,0,1,3.4-10.32,30.43,30.43,0,0,1,2.61-4.31c1.13-1.44.71-.75.19.12s-1.07,1.94-.49,1.15c.3-.39.87-1.26,2-2.71a34.68,34.68,0,0,1,6.13-5.79,48.55,48.55,0,0,1,12.41-6.32,61.84,61.84,0,0,1,10.72-2.64,66.73,66.73,0,0,1,10.12-.79,58.63,58.63,0,0,1,11.24,1.07c-1.08-.22-2.21-.43-3.21-.6a60.38,60.38,0,0,1,8.17,1.66l-.26-.1a49,49,0,0,1,7.2,2.49,39.39,39.39,0,0,1,6.6,3.56,32.59,32.59,0,0,1,5.5,4.59,28.52,28.52,0,0,1,4,5.29,31.94,31.94,0,0,1,3.54,10.56,52.41,52.41,0,0,1,.57,7,59.75,59.75,0,0,1-1.43,10.43A47.83,47.83,0,0,1,995.1,480a36.49,36.49,0,0,1-2.86,5.58,26.16,26.16,0,0,1-2.92,3.91,18.67,18.67,0,0,1-4.54,3.79,12.29,12.29,0,0,1-6.33,1.76,19.24,19.24,0,0,1-7.19-1.51,46.6,46.6,0,0,1-13.08-8.57,83.91,83.91,0,0,1-9.88-10.51l.83,1a97.24,97.24,0,0,1-7.52-10q-.81-1.23-1.53-2.43l-.63-1.11-.4-.75a13.84,13.84,0,0,1-.66-1.49,4.79,4.79,0,0,1-.21-.74,1.07,1.07,0,0,1,.05-.73c.16-.21.46-.19.69-.17a4.18,4.18,0,0,1,.7.16,11.19,11.19,0,0,1,1.27.5c.4.18.78.37,1.13.56l1.59.86c2.15,1.21,3.89,2.32,5.17,3.15,2.56,1.68,3.32,2.28,1.75,1.31a262.34,262.34,0,0,1,32.72,26l-3.6-2.71c7.11,6.31,12,11.18,15.76,15.06s6.35,6.79,8.69,9.43,4.39,5,6.82,8.11,5.28,6.74,8.94,12.15a224.37,224.37,0,0,1,11.37,20c1.9,3.75,3.74,7.68,5.64,11.66,1,2,1.92,4,3.07,6,.28.5.61,1,.94,1.49.15.24.36.49.54.73a5.36,5.36,0,0,0,.68.78,4.61,4.61,0,0,0,.89.78c.16.11.32.23.48.32l.53.24a3.85,3.85,0,0,0,1.11.28,7.09,7.09,0,0,0,1.13-.11l.57-.2a5.21,5.21,0,0,0,.52-.28,4.13,4.13,0,0,0,1-.7,5.37,5.37,0,0,0,.81-.85,8.28,8.28,0,0,0,.58-.78,18.23,18.23,0,0,0,1.67-3.21,43,43,0,0,0,2-6.43,95.85,95.85,0,0,0,2.06-12.21,166.19,166.19,0,0,0,.92-18.94c0-3,0-7.71-.53-15.35q.48,8,.36,16.08c0-7.52-.3-12.92-.61-17.1s-.66-7.15-1-9.79c-.7-5.27-1.22-9.29-3.11-19a19.64,19.64,0,0,1,.44,2.47c-.14-.71-.58-3.29-1.78-8.7-.76-3.27-1.61-6.81-2.81-11,.31.95,1.53,5.23,2.51,9.56l-.73-3.54a172.59,172.59,0,0,0-9.62-29.11c-1.87-4.33-3.92-8.63-6.33-13.23s-5.21-9.49-8.68-14.9c1.35,2.06,3.56,5.55,4.85,7.84a165.3,165.3,0,0,0-13.09-19.87,101.14,101.14,0,0,0-11.67-13c-2.34-2.39-6.13-5.82-10-9q-4-3.48-8.24-6.74c3.45,2.67,6,4.83,8.12,6.64-5.1-4.2-10.21-7.83-10.83-8.4-4.93-3.69-10-7.18-15.27-10.38-2.63-1.6-5.32-3.13-8.09-4.52a49.25,49.25,0,0,0-8.7-3.54,15.28,15.28,0,0,0-2.89-.55,7.75,7.75,0,0,0-1.83.07,4,4,0,0,0-1.8.75,4.09,4.09,0,0,0-1.13,1.63c-.09.32-.18.65-.25,1s-.06.74-.08,1a14.89,14.89,0,0,0,.44,3.38,41,41,0,0,0,5.25,11.47,57.8,57.8,0,0,0,3.49,5.31,67.57,67.57,0,0,0,5.17,5.94c1.32,1.37,2.24,2.21,2.79,2.74,1.13,1,.82.81.19.29a57.09,57.09,0,0,0,13.94,9.56,55.73,55.73,0,0,0,29.32,5,56.82,56.82,0,0,0,13.84-3,55.15,55.15,0,0,0,12.79-6.52c1-.74,2-1.42,3-2.22l2.83-2.49,2.63-2.78c.85-1,1.67-2,2.43-3a55,55,0,0,0,7.59-14.48,37.06,37.06,0,0,0,1.94-8.76,18.77,18.77,0,0,0-1.49-9.75,10.06,10.06,0,0,0-1.46-2.12c-.27-.29-.26-.25-.07,0a14.27,14.27,0,0,1,2.12,4.46,20.06,20.06,0,0,1,.55,6.93,25.21,25.21,0,0,1-.65,4.11,26,26,0,0,0,.07-9.56,15.54,15.54,0,0,0-1.06-3.17,12,12,0,0,0-2-3,15,15,0,0,0-6.44-4,22.58,22.58,0,0,0-15.16.55,28.37,28.37,0,0,0-10.32,8,33.66,33.66,0,0,0-5.45,8.89,41.84,41.84,0,0,0-3.06,13,51.32,51.32,0,0,0,1.07,14.7,60.44,60.44,0,0,0,4.85,13.84c.49,1.07,1.07,2.08,1.6,3.1s1,1.95,1.55,2.9c1,1.89,2,3.7,2.8,5.44s1.65,3.34,2.28,4.85,1.24,2.87,1.75,4.07c1.92,4.82,2.58,6.92,1.44,4.44,1,2.36,1.71,4.43,2.35,6.18.32.87.6,1.67.87,2.39l.64,2c.78,2.37,1.2,3.64,1.36,4.14s.11.2-.1-.56-.59-2-1-3.36c-.77-2.77-2-6.07-2.44-7.52s-.24-1,1.56,3.8c.56,1.47,1,3,1.48,4.48-1-3.4-2.21-6.54-3.27-9.52s-2.2-5.72-3.35-8.24c-.56-1.27-1.09-2.5-1.61-3.68l-1.6-3.37c-1-2.17-2-4.1-2.94-5.88-.32-.72.56.73,2.11,3.46l2.6,5.07c1,1.94,1.94,4.16,3,6.45s2,4.76,2.94,7.22,1.84,4.9,2.56,7.26c.37,1.17.74,2.32,1.09,3.41s.62,2.15.9,3.14c.56,2,1,3.71,1.34,5.07l-.57-1.87-.64-1.85-1.27-3.7a196.85,196.85,0,0,1,5,20.48c.51,2.43.85,4.47,1.16,6.26s.59,3.3.8,4.72.43,2.73.65,4.08.36,2.74.57,4.32c.39,3.17.76,7.12,1.08,13.06,0,3.8.08,6.85,0,9.3s-.1,4.27-.16,5.64a16.74,16.74,0,0,1-.31,3.7c-.18.23-.27-2.54-.58.66-.31,10.61-1.1,21.22-2,31.81l-.32,0c-.91,10.33-1.48,16.69-2.13,24.05s-1.36,15.73-2.29,30c.52-10.36-.26.38-1,10.13s-1.36,18.51-.66,4.18c-1.12,15.89-.76,20.54-1.68,28.65-.31,11.07,1-14.28,1.65-22.31.89-6.46-2,35-2.7,54.1-.17.8-.08-2.39-.12-3s-.23,1.45-.77,12.71c0,2.31-.13,7.05-.28,12.81-.09,2.88-.19,6-.3,9.22s-.21,6.51-.34,9.71a4.34,4.34,0,0,1,.07,1.12c0,.73,0,1.78,0,3.07,0,2.6-.08,6.2-.13,10.19s-.12,8.39-.16,12.58-.08,8.19,0,11.38c0-3.59,0-7.59.08-11.41s.09-7.48.2-10.38c.18-5.81.35-8.65.42-4,0,5.58,0,10.79,0,17.78,0,3.49,0,7.44.05,12.1,0,2.33,0,4.84,0,7.56s.08,5.66.12,8.85l0-8.77,0-8.77c.64,22.25.09,36.75,1.24,67-.34-6.38-.5-11.57-.71-16.55s-.4-9.76-.63-15.33c.44,14.32,1.55,41.46,2.66,63.75l.14,6.39.28,6.39.57,6.39c.29,2.11.53,4.24.86,6.35.41,1.55,1.67,8.65,3.54,15.19l1.39,4.74c.46,1.49.92,2.85,1.3,4s.73,2.12,1,2.77a4.15,4.15,0,0,0,.45,1c2.6,7.52,3.52,9.72,3.1,8.85s-2-4.85-3.8-9.94-3.69-11.3-5-16.48-2.05-9.33-2.27-10.11a159.1,159.1,0,0,0,5.39,21.87c1.67,5.23,3.13,8.91,4.52,12.56s2.91,7.17,4.9,12.05l1.59,3.92.87,2.19.95,2.48.59,1.53a2.74,2.74,0,0,0,.15.38h1.28l3.23,0,6.66.08-6.36.15-3.53.08-1.06,0c-.16,0-.39,0-.5,0l-.2-.49-.8-1.95c.19.49.39,1,.6,1.53.1.27.2.54.31.81,0,.06,0,.14.08.19h10.11l12.74,0c8.17,0,15,0,15.76,0a7.66,7.66,0,0,0-1.12,0l-3.08,0h-10.17c7.84-.65,58.89-.45,54.14-1.12l-17.59,0c27-.13,46.17-.58,66.91-.35,15.94.22-11.18.45-20.63.63,25.39,0,20.63-.74,50.95-.67-15.94-.11-12.9-.35-3.34-.52-17.54,0-54.15-.17-47.72.11l6.35.07c-1.59.17-11.17.23-15.92.32-24,0-11.17-.3-16-.43-39.88-.11-3.24.67-39.75.64l-4.77-.13-29.54.22-3.51,0-1.64,0h-1.18c-.06,0-.16,0-.17,0l-.07-.18c-.74-1.86-1.51-3.74-2.2-5.33-1.37-3.21-2.43-5.58-3-6.66-2.82-7.47-6.65-17.1-9.59-27.22a143.3,143.3,0,0,1-5.57-29.47c.09-.43.21.22.45,1.71s.45,3.85,1,6.79a173,173,0,0,0,5.17,23.13,273.08,273.08,0,0,0,9.61,26.56q1.27,3.14,2.47,6.05c.38,1,.76,1.92,1.13,2.84l.51,1.29.12.31s0,.12.07.15h.84l5.18,0,4.38-.08c-19.13-.19,11-.45,19-.66l-15.12.1-7.56,0-3.78,0-1.62,0h-.9s-.05-.1-.07-.15l-.13-.33-1.27-3.15-1.45-3.5-2.9-7c-1.92-4.65-3.75-9.33-5.43-14.07-.76-2.28-2.38-7.66-4-13.83s-3-13.16-3.84-18.56c.23,1.56.42,3.12.69,4.67a178,178,0,0,1-2.33-20.1c-.26-4-.47-7.54-.82-17.9-.05-3.21.36,3.14.49,4.73-.66-19.12-.8-15.9-1.35-28.67-.49-19.13.67,9.55.3-6.42-1-22.15-.83-35.06-1-54.26-.12,2.05-.25-1.7-.39-7.83s-.19-14.64-.13-22.1.07-13.9,0-15.87-.24.52-.53,10.89q.21-23.07,1.08-46.12c.47-7.18.29.76.17,8.9s-.14,16.48.28,10.1c-.46,12.23-.69,24.47-.85,36.7.39-3,.42-22.25,1.21-43.74s2-45.26,3.16-57.39c.62-9.78.86-13.47,1.23-19.35.21-2.94.46-6.42.82-11.49s.79-11.72,1.65-20.94c-.36,2.1-.76,4.19-1.1,6.29.79-9.59,1.57-15.92,2.06-20s.8-5.81.89-6.25c1.08-11.24,2.08-21.37,2.82-31.85-.1,2.76-.3,6.69-.86,13.51,1.57-14.45,1.58-18.7,1.68-23.78.21-7.85.51-19.81-.24-31.91.17,1.81.27,3.63.38,5.45s.21,3.63.27,5.45c-.15-7.4-.88-16.47-1.12-17.27-.11-1.25-.23-2.49-.34-3.71s-.29-2.42-.43-3.61c-.26-2.38-.66-4.69-1-6.95.17,1.62.53,4.42.9,9s.87,10.87,1,19.53c-.54-22.37-4-42.32-10.27-60.48a176.49,176.49,0,0,0-11.44-26l-1.68-3.11c-.54-1-1.12-2-1.62-3.06a62.7,62.7,0,0,1-2.75-6.35,63.59,63.59,0,0,1-2-6.66,55.06,55.06,0,0,1-1.1-6.9c.09.35.26,1.57.56,3.13s.74,3.43,1.24,5.1c1,3.34,2.07,5.84,1.27,3.64a54.73,54.73,0,0,1-2.8-13.52,51.29,51.29,0,0,1,0-6.43,46.53,46.53,0,0,1,.73-5.7,40,40,0,0,1,2.46-8c.74-1.78,1.21-2.59.93-2.27a29.09,29.09,0,0,1,6.29-7.94,28.78,28.78,0,0,1,5.25-3.42,20,20,0,0,1,4-1.44,22.79,22.79,0,0,1,5.57-.52,21.57,21.57,0,0,1,4,.61,14.65,14.65,0,0,1,6.16,3c.29.2.59.52,1,.88l.56.66c.18.26.38.53.56.83a12.18,12.18,0,0,1,1.58,5c.49,4.13-.59,9.43-2.59,14.36a52.15,52.15,0,0,1-7.71,13.14,47,47,0,0,1-7.29,7c.42-.31.88-.6,1.29-.95l1.24-1.08a23.44,23.44,0,0,0,2.48-2.32c.79-.85,1.65-1.65,2.4-2.6s1.51-1.9,2.21-2.92a51,51,0,0,0,6.8-13.8,49.41,49.41,0,0,1-4.22,10.15,43,43,0,0,1-21.31,19.4c1.58-.78,2.84-1.44,3.84-2l2.16-1.38c1-.64,1.15-.77.78-.58s-1.27.69-2.38,1.33a16.45,16.45,0,0,1-1.83.95l-2,.94a24.58,24.58,0,0,1-4,1.53c.42-.22,1.66-.66,3.93-1.71l1.87-.95,1.1-.56,1.16-.7c.8-.51,1.7-1,2.62-1.64l2.93-2.16a52.91,52.91,0,0,1-7.77,4.83c-1.13.52-2.11,1.07-3,1.44l-2.56,1a72.4,72.4,0,0,1-7,2.25l-1.5.42-1.68.34a36.34,36.34,0,0,1-4.36.67,49.09,49.09,0,0,1-16.31-.87,51.66,51.66,0,0,1-18.45-8c.7.35,2.73,1.69,5.53,3.08.69.36,1.45.68,2.22,1.05s1.61.64,2.44,1a52,52,0,0,0,5.16,1.72c.85.28,1.73.4,2.56.6s1.63.38,2.4.49c1.54.21,2.9.41,4,.53,2.15.13,3.12.17,1.95.07a52,52,0,0,1-13.67-2.57l2.93.84c1.12.31,2.4.52,3.78.83a20.46,20.46,0,0,0,2.19.35l2.37.31c.82.1,1.67.11,2.54.17s1.78.15,2.7.1a58.67,58.67,0,0,0,12-1.21,53.3,53.3,0,0,0,12.83-4.47,43.74,43.74,0,0,0,20.14-20.11A42.09,42.09,0,0,0,1047.6,362a20,20,0,0,0-.09-6.24,10.27,10.27,0,0,0-2.22-4.89,11.34,11.34,0,0,1,2.35,6.56,26.1,26.1,0,0,1-.8,7.65,48.36,48.36,0,0,1-6.51,14.57,38.51,38.51,0,0,1-5,6.23c-.46.47-.9,1-1.37,1.43l-1.51,1.3c-.5.43-1,.89-1.51,1.29l-1.62,1.17a49.6,49.6,0,0,1-14.35,7,54.85,54.85,0,0,1-30.84.52c-10.3-2.78-19.61-9.32-26.78-17.75a54.78,54.78,0,0,1-8.84-13.95,24.46,24.46,0,0,1-1.29-3.78,14.22,14.22,0,0,1-.32-1.84c0-.3,0-.56,0-.85l0-.17v-.07a.68.68,0,0,1,0-.19.92.92,0,0,1,.41-.66,1.52,1.52,0,0,1,.77-.17,14.18,14.18,0,0,1,3.64.72,52.83,52.83,0,0,1,7.65,3.27c2.52,1.28,5,2.68,7.42,4.15,4.87,2.95,9.59,6.16,14.16,9.53a187.89,187.89,0,0,1,25.24,22.12,152.93,152.93,0,0,1,19.37,25.81c10.82,18.06,17.57,37,21.85,54.22-.25-1-.49-2-.73-2.94a25.39,25.39,0,0,0,.89,2.71l.64,3.15c1.1,4.56,2.06,9.17,2.88,13.8a248.17,248.17,0,0,1,2.44,32.1,175.47,175.47,0,0,1-.88,19.55c-.71,6.55-1.76,13.18-3.89,18.91a56.84,56.84,0,0,0,2.43-8.7c.45-2.21.7-3.73.88-4.8a25.16,25.16,0,0,1,.67-3.32,39.46,39.46,0,0,1-.52,6.29,67,67,0,0,1-1.42,6.95,39,39,0,0,1-1.64,5,17.31,17.31,0,0,1-1.38,2.71,4,4,0,0,1-2,1.85,1.52,1.52,0,0,1-1.23-.16,3,3,0,0,1-.59-.43c-.16-.19-.31-.32-.54-.61,0,0,.09.06.25.19a4.77,4.77,0,0,0,.49.41,1.64,1.64,0,0,0,1.58.36,1.72,1.72,0,0,0,.8-.56,4.59,4.59,0,0,1-.82.42,1.5,1.5,0,0,1-1.38-.41,2.59,2.59,0,0,1-.37-.37,8.3,8.3,0,0,1-.56-.72c-.39-.56-.8-1.24-1.24-2a23.25,23.25,0,0,0,1.28,2.11c.17.22.29.42.4.55s.13.17.17.22,0,.09-.06,0l-.08-.07-.16-.15-.4-.49c-1.28-1.54-3.36-5.69-5.6-10.41-2.79-6.14-6.79-14.26-10.52-20.64-1.84-3.2-3.55-6-4.82-8s-2-3.25-2-3.35c3.58,5.17,6.13,9.57,8.21,13.28,1.56,2.73-1.49-2.88-4-7-1.24-2.08-2.35-3.79-2.45-4a45.61,45.61,0,0,1,3.31,4.92,206.69,206.69,0,0,0-14.18-20.06c-2.2-2.84-3-3.77-2.83-3.7s1.09,1.17,2.19,2.51c2.26,2.63,5,6.25,3.35,3.93-3.13-4.06-6.21-7.75-9.26-11.14s-6-6.54-8.94-9.47c-5.86-5.85-11.51-10.94-17.22-15.74s-11.51-9.32-17.85-13.84c-3.17-2.25-6.49-4.5-10.05-6.73-1.78-1.11-3.63-2.21-5.57-3.27l-1.49-.78c-.6-.31-1.38-.69-2.08-1a12.43,12.43,0,0,0-4.1-1.18,10.61,10.61,0,0,0,1.77-.07c.3,0,.27-.16,0-.14a7.28,7.28,0,0,0-2.38-.33,2.83,2.83,0,0,0-2,.77,3.25,3.25,0,0,0-.49,1.32,5.38,5.38,0,0,0,0,1.44,12.21,12.21,0,0,0,1.12,3.43c.27.61.6,1.21.92,1.82l.46.82.34.58c.46.77.94,1.54,1.43,2.29a96.08,96.08,0,0,0,6.49,8.72,88.77,88.77,0,0,0,16.24,15.45,40.54,40.54,0,0,0,10.33,5.49,21,21,0,0,0,6,1.15,15,15,0,0,0,6.16-1,21.89,21.89,0,0,0,9.3-7.7,41.11,41.11,0,0,0,5.42-10.51,37.78,37.78,0,0,1-5.27,10.43,24.81,24.81,0,0,1-5.56,5.66,17.24,17.24,0,0,1-3.63,2.05,15.37,15.37,0,0,1-4,1,14.15,14.15,0,0,0,4.87-1.36,18,18,0,0,0,4.13-2.69,29.71,29.71,0,0,0,6.06-7.32,48.28,48.28,0,0,0,6-17.28,45.4,45.4,0,0,0-.66-18,30.42,30.42,0,0,0-9.25-15.28,40.12,40.12,0,0,0-7.21-5.14,53.43,53.43,0,0,0-8-3.54,64.1,64.1,0,0,0-16.85-3.25c-1.42-.12-2.85-.1-4.27-.14s-2.84,0-4.25.14a69.78,69.78,0,0,0-8.43,1,66.5,66.5,0,0,0-8.22,2.11,54.36,54.36,0,0,0-7.83,3.31A37.34,37.34,0,0,0,906,456.28a60.34,60.34,0,0,0-1.15,16.83,87.13,87.13,0,0,0,2.7,16.59,100.69,100.69,0,0,0,5.58,15.93,67.67,67.67,0,0,0,8.79,14.79,29.29,29.29,0,0,0,3.14,3.28,12.53,12.53,0,0,0,4.3,2.6,6,6,0,0,0,3.07.22,7.56,7.56,0,0,0,2.68-1.1,15.14,15.14,0,0,0,3.57-3.35,41.24,41.24,0,0,0,4.69-7.69,75.42,75.42,0,0,0,3.39-8.16,127.39,127.39,0,0,0,5.13-23.75,134.29,134.29,0,0,0,1.73-24.3c-.44-12.29-2.69-24.35-7.72-35.12a59.83,59.83,0,0,0-9.65-14.72,62.12,62.12,0,0,0-13.3-11,77.29,77.29,0,0,0-15.21-7.24,63.69,63.69,0,0,0-16.32-3.47,37.27,37.27,0,0,0-8.49.32,23.43,23.43,0,0,0-4.25,1.13,14.84,14.84,0,0,0-4,2.22c-.3.26-.63.48-.91.77l-.84.88a9.23,9.23,0,0,0-1.39,2.1,14.07,14.07,0,0,0-1.21,4.54,28.1,28.1,0,0,0,.64,8.51c.23,1.37.65,2.67,1,4s.8,2.6,1.24,3.88l1.41,3.79,1.55,3.72q3.25,7.32,7.12,14.33A273.38,273.38,0,0,0,900.36,464a311.4,311.4,0,0,0,44.14,50c5.35,4.86,9,7.85,11.46,9.87s3.79,3.1,4.72,3.88a77.88,77.88,0,0,0,7.72,6,163.62,163.62,0,0,0,18.81,11.16c1.49.77,3,1.4,4.45,2.09l2.16,1c.73.31,1.46.58,2.17.87l4.23,1.65,4.18,1.36c.68.21,1.35.45,2,.64l2.05.52,4,1,4,.7,1.94.34,1.94.2,3.84.37c1.27.09,2.54.05,3.79.08a59.81,59.81,0,0,0,7.47-.34,30.62,30.62,0,0,0,3.69-.52c1.22-.23,2.45-.4,3.67-.67l3.63-1,1.82-.51c.6-.21,1.19-.45,1.79-.68a40,40,0,0,0,13.9-8.13c4.3-3.84,7.51-8.94,11-14a56.4,56.4,0,0,1,13.63-14.53,41.81,41.81,0,0,0-7.65,7.39c-.37.51-.05.27,1.4-1.23l.61-.62.77-.69,1.93-1.73c.72-.68,1.67-1.29,2.66-2.06l1.59-1.2,1.88-1.18c1-.63,1.8-1.3,2.83-1.88l3.65-2a21.37,21.37,0,0,1,2.52-1.2l3.2-1.39a74,74,0,0,1,9.3-2.85l-3.88,1.09-3.79,1.38a78.94,78.94,0,0,1,22.92-4.22,93.72,93.72,0,0,1,15.34.76,161.89,161.89,0,0,1,19.65,3.93c13.11,3.31,26,7.58,39.16,10.25a109.15,109.15,0,0,0,19.94,2.32,68.74,68.74,0,0,0,19.68-2.46c1.58-.43,3.12-1,4.67-1.51a20.22,20.22,0,0,0,2.27-.9l2.24-.95,1.12-.48,1.07-.56,2.13-1.13a47.06,47.06,0,0,0,4.15-2.39,81.63,81.63,0,0,0,14.53-11.8,62.91,62.91,0,0,0,10.9-14.56,30.78,30.78,0,0,0,3.06-8.54,17.14,17.14,0,0,0,.18-4.64,11.45,11.45,0,0,0-1.42-4.51,13.46,13.46,0,0,0-2.93-3.62,19.81,19.81,0,0,0-3.16-2.3,34.34,34.34,0,0,0-5.41-2.57c-1.53-.57-2.78-1-3.76-1.26s-1.69-.48-2.16-.62c-1-.26-1-.3-.36-.19s1.84.37,3.37.78c.76.2,1.59.48,2.46.74s1.77.61,2.65,1a29.67,29.67,0,0,1,4.85,2.51c.65.48,1.25.87,1.7,1.26l1,.87c.4.38.31.2-.64-.68a13.6,13.6,0,0,1,3.82,5.64,14.24,14.24,0,0,1,.61,5.66,25.33,25.33,0,0,1-2,7.7,51.76,51.76,0,0,1-3.62,6.78c-.7,1.14-.94,1.55-1.26,2.08a27,27,0,0,1-1.87,2.72,50,50,0,0,0,7.43-12.56,23.54,23.54,0,0,0,1.64-7.57,15.37,15.37,0,0,0-.44-4,11.69,11.69,0,0,0-.7-1.93,10.18,10.18,0,0,0-1-1.77,17.6,17.6,0,0,0-5.29-5,32.84,32.84,0,0,0-5.56-2.79,72.94,72.94,0,0,0-9-2.81,118.9,118.9,0,0,0-16.87-2.14c-5-.31-9.64-.39-14.22-.35a276.32,276.32,0,0,0-30.65,2.13c6.24-.77,12.06-1.19,14.85-1.3s2.54,0-3.32.48c-5.15.35-12.27,1-20,2.07s-16,2.48-23.53,4.1-14.25,3.43-18.91,4.88-7.28,2.43-6.63,2a71.34,71.34,0,0,0-10.48,4.89,29.63,29.63,0,0,0-5,3.54,12.71,12.71,0,0,0-3.89,5.71,8.08,8.08,0,0,0-.25,2l0,1a5.8,5.8,0,0,0,.19.94c.07.31.15.62.23.93l.35.83c.13.27.24.56.38.81l.44.74a19.54,19.54,0,0,0,4.39,4.77,29.69,29.69,0,0,0,11.13,5.35,24,24,0,0,0,6.31.67,21.18,21.18,0,0,0,3.19-.35,23.05,23.05,0,0,0,3.08-.75,36.53,36.53,0,0,0,10.85-5.75,69.46,69.46,0,0,0,16.17-17.69,76,76,0,0,0,5.8-10.6,46,46,0,0,0,3.64-11.83,20.48,20.48,0,0,0,0-6.67,11.22,11.22,0,0,0-1.29-3.49,9.57,9.57,0,0,0-2.62-2.89,16.57,16.57,0,0,0-6.4-2.55,35.31,35.31,0,0,0-6.34-.6,70.89,70.89,0,0,0-12.24,1.13,118.44,118.44,0,0,0-11.86,2.7,177.8,177.8,0,0,0-22.83,8.18,211.81,211.81,0,0,0-42,24.38,163.22,163.22,0,0,0-34.61,34.47,120.79,120.79,0,0,0-12.4,21.24,102.72,102.72,0,0,0-7.39,23.48c-.38,2-.68,4.07-.92,6.1l-.64,6c-.42,4-.89,8-1.25,12-.7,8-1.49,15.93-2.07,23.87-1.42,21.44,1.38-16.24.64-4.46-.53,7.79-.93,13.22-1.25,17.37s-.53,7-.74,9.72c-.4,5.37-.86,10-1.5,22.45l.4-10.31c-2.54,37.08-4.12,76.53-5.64,112.49,0-6-1.68,29.52-.43-.35-.81,17.57-3.18,38.86-3.51,52.45l2.2-19.76c.08,1-1.12,25.63-.91,23.17-.94,15.36-2,34.19-2.48,44.81-.54,5.17.63-21.54,1.29-36.15-.47-2.21-2.45,49.28-2,28.06-1.22,31.36.46-4.45-.11,14.3l-1.22,27.35,1-21.11c-.76,22.84-.65,30.69-2.11,61.14l-.19,9.41-.1,4.7,0,1.18v1.44l-1.12,0-3.2.05-6.42.11c-3.2-.43-23.08-.08-39.35-.18l10.19-.27c-21.63,0-30-.06-43.55-.22,12.19-.38,19.59.09,24.81-.27l-23.75-.13c.11.25-15,.44,2,.59-9.49.19-17.13.38-27.19.52l-17.42.17-23.13.1-7.42-18c-9.14-23.25,10.59,24.68,7,14.93-4.24-10.36-7.88-19.14-11.09-26.77l-4.51-10.66-3.83-8.9c-.23-9.77-.42-17.79-.61-25.88s-.33-16.51-.36-26.74c0-42.77-.39-40.32-.6-83.7.34,13.78.17-30.33.41-38.29l.37,17.12c-.15-13.18-.09-25.84.14-21.94-.19,1.22-.34-12.85-.48-31l0-1.71v-.32a.41.41,0,0,1,0-.19l.18-.66c.33-1.14.62-2.3.91-3.47.55-2.35,1.06-4.75,1.46-7.19a103.6,103.6,0,0,0,1.45-14.79,95.63,95.63,0,0,0-2.8-26.65c.4,1.72.54,3.51.79,5.26a89.4,89.4,0,0,0-16-36.61,95.92,95.92,0,0,0-30.72-27.11,64.77,64.77,0,0,0-19.44-7,53.67,53.67,0,0,0-11.27-1,36.69,36.69,0,0,0-4.56.19c-1.56.13-3.2.33-5.09.62s-4,.71-6.52,1.34a45.84,45.84,0,0,0-8.63,3.06c-3.63,1.63-6,3.58-7.11,5.36a9.7,9.7,0,0,0-1.41,3.56c-.08.48-.23.25-.2-.51a7.19,7.19,0,0,1,.93-3.43,17.16,17.16,0,0,1,7.22-5.74,48.23,48.23,0,0,1,10.2-3.31A71.81,71.81,0,0,1,765.23,555c2-.13,4.11,0,6.18.08a24.65,24.65,0,0,1,3.09.29l3.09.39a71.82,71.82,0,0,1,16.59,4.92l3.82,1.77c1.24.64,2.45,1.33,3.66,2s2.37,1.4,3.53,2.13,2.32,1.44,3.4,2.26a98.37,98.37,0,0,1,22.63,22.29c.76,1.08,1.56,2.13,2.28,3.24l2.13,3.34c1.3,2.3,2.58,4.63,3.81,7,.54,1.21,1.09,2.43,1.63,3.66a39.22,39.22,0,0,1,1.53,3.72,79.87,79.87,0,0,1,2.49,7.72c.35,1.32.74,2.63,1,4s.53,2.7.8,4.06.47,2.73.64,4.12.4,2.78.49,4.18a104.14,104.14,0,0,1,0,17.31c-.06,1.28-.1,2.28-.13,3s-.08,1.22-.09,1.47c0,.49.08,0,.25-1.15a99.68,99.68,0,0,0-2.84-36.92c-.26-1-.52-1.9-.77-2.84s-.64-1.83-.95-2.74c-.65-1.8-1.19-3.6-2-5.24s-1.41-3.26-2.06-4.78l-2.17-4.13c.36.58,1.17,2,2,3.61l-2.72-5.14c1,1.89,2.16,3.89,3.24,6,.48,1.1,1,2.23,1.49,3.37l.76,1.72.38.87.32.9a93.3,93.3,0,0,1,4.22,14.57,130.78,130.78,0,0,1,2.27,20c0-1.79-.05-3.44-.08-5s-.22-2.92-.31-4.22-.25-2.48-.41-3.58-.3-2.12-.44-3.08c-.29-1.9-.72-3.52-1-5.05-.17-.77-.31-1.51-.51-2.23l-.63-2.17c-.21-.73-.42-1.47-.65-2.24a23.84,23.84,0,0,0-.76-2.42l-2.07-5.77a101.61,101.61,0,0,0-9.16-17.51,106.6,106.6,0,0,0-24.84-25.52c-8.72-6.17-17.45-10.24-25.34-12.18l-3.12-.6a21.3,21.3,0,0,0-2.82-.44c-1.82-.16-3.47-.39-5.11-.43h-4.94c-1.69.07-3.44.22-5.39.45s-4.07.56-6.5,1a61.22,61.22,0,0,0-8.25,2.24,36.74,36.74,0,0,0-4.9,2.11,23,23,0,0,0-2.61,1.58,15.73,15.73,0,0,0-2.58,2.22,10.86,10.86,0,0,0-2.14,3.26,9.39,9.39,0,0,0-.66,4.29,15.89,15.89,0,0,0,3.42,7.8,19.78,19.78,0,0,1-2.7-4.43,10.63,10.63,0,0,1-.85-5.72,10.2,10.2,0,0,1,2.57-5.33,18.68,18.68,0,0,1,4.13-3.39,18.19,18.19,0,0,0-3.91,3,11.21,11.21,0,0,0-2.65,4.19,9.67,9.67,0,0,0-.35,4.66,14.33,14.33,0,0,0,.49,2,16.51,16.51,0,0,0,.71,1.69,23.55,23.55,0,0,0,3.36,4.93,38.78,38.78,0,0,0,3.17,3.21,61.68,61.68,0,0,0,8.52,6.37c2.23,1.39,4.39,2.7,8.47,4.92,2,1.1,4.59,2.42,7.92,4a134,134,0,0,0,12.74,5.18c-3.69-1.32-4.62-1.76-4.4-1.72s1.61.52,2.57.81,1.52.44.08-.12-4.92-1.78-11.64-5a138.71,138.71,0,0,0,12.9,5.21,115.82,115.82,0,0,0,17.52,4.71A106,106,0,0,0,816,609.67a91.18,91.18,0,0,0,19.2-2.15c6.15-1.53,1.25-.45,2.35-.87a93.19,93.19,0,0,1-18.06,2.58l-4.1.13-4-.08c-.65,0-1.3,0-1.94-.06l-1.91-.15c-1.27-.11-2.53-.16-3.76-.32a105.46,105.46,0,0,1-29.24-7.61,131.88,131.88,0,0,1-17-7.6c-10.81-6.24-15.71-11.39-16.88-12.83-.6-.72-.3-.52.81.53a67,67,0,0,0,6.26,5.07,52.85,52.85,0,0,1-7.44-6.49,18.29,18.29,0,0,1-4.47-7.33c-.07-.56,0-.5.21,0a17.45,17.45,0,0,0,1.24,2.72,34.07,34.07,0,0,0,7.56,8.51,86.64,86.64,0,0,0,20.31,12.56,118.12,118.12,0,0,1-15.11-8.71c-2.92-2.46,5.19,3.87,17.86,9.67a130,130,0,0,0,21,7.58,103.29,103.29,0,0,0,20.09,3.29,98.62,98.62,0,0,0,18.3-.46c2.86-.46,5.63-.8,8.18-1.47,1.28-.3,2.54-.57,3.74-.87l3.43-1.07c1.09-.35,2.17-.63,3.16-1l2.79-1.1c1.77-.71,3.35-1.28,4.62-1.9,2.58-1.17,4.17-2,4.59-2.11a88.8,88.8,0,0,1-32.51,10.4c.56,0,1.12-.08,1.69-.15l1.72-.26,3.57-.55c1.22-.19,2.43-.54,3.67-.81s2.52-.56,3.78-.94a94,94,0,0,0,15.29-6,113.51,113.51,0,0,0,26.44-19l1.76-1.64,2.22-2.26c-.36.37-.65.64-.85.83a1.36,1.36,0,0,1-.33.27,106.56,106.56,0,0,0,7.39-8.49,61.59,61.59,0,0,0,7.3-12.47,43.36,43.36,0,0,0,2.41-7.54,29.46,29.46,0,0,0,.62-8.07,24.9,24.9,0,0,0-1.81-7.85,30.19,30.19,0,0,0-3.87-6.72c-3.06-4-6.89-7.11-10.91-8.5a16.18,16.18,0,0,1,1.8,1.08l1,.43,1,.51a26.06,26.06,0,0,1,4.83,4,31.17,31.17,0,0,1,3.83,5,27.75,27.75,0,0,1,2.54,5.37c.14.44.28.88.42,1.3s.2.87.3,1.28a18.34,18.34,0,0,1,.4,2.37,23.15,23.15,0,0,1,0,5.65c-.13.58,0-.34-.09-3.36a25,25,0,0,0-3.46-11.6,29.23,29.23,0,0,0-6.23-7.61,20.57,20.57,0,0,0-6.74-4,11.64,11.64,0,0,0-10.87,1.44,18.8,18.8,0,0,0-3.11,2.68,33.83,33.83,0,0,0-4.12,5.35,31.13,31.13,0,0,1,2.08-3.41,23.06,23.06,0,0,1,3.65-4.16,13.19,13.19,0,0,1,6.08-3.16,13.6,13.6,0,0,1,7.62.91c4.92,2,8.94,6.11,11.77,10.64a28.08,28.08,0,0,1,3.22,7.23,25.75,25.75,0,0,1,.91,7.37,23.58,23.58,0,0,0-2-11.1,30.61,30.61,0,0,0-4-6.58,26.91,26.91,0,0,0-6.65-6.09,19.23,19.23,0,0,0-4.62-2.16,13.65,13.65,0,0,0-5.52-.51,12.36,12.36,0,0,0-5.46,2.16,20.81,20.81,0,0,0-4.34,4.15,53.24,53.24,0,0,0-6.36,10.78c-1.82,3.92-3.47,8.11-5,12.5A114.37,114.37,0,0,1,863,534.41c2-4.48,4.49-9.26,8.2-13.09a15.21,15.21,0,0,1,6.73-4.18,13.08,13.08,0,0,1,7.27.2,24.64,24.64,0,0,1,8.65,5,21.39,21.39,0,0,0-9.57-5.51l-.64-.15-.66-.09c-.44,0-.86-.12-1.3-.13a15.52,15.52,0,0,0-2.56.14,12.76,12.76,0,0,0-4.52,1.68,21.41,21.41,0,0,0-6,5.8,46.71,46.71,0,0,0-3.9,6.45,121.67,121.67,0,0,0-6,14.3c-1.91,5.34-3.88,11.45-6.16,19,.46-2,2.86-10.33,5.47-17.88,1.29-3.78,2.66-7.35,3.69-9.84s1.69-3.94,1.39-3.51a166.5,166.5,0,0,0-7.5,19.05,180.12,180.12,0,0,1,7.26-19.14c.89-2,.18-.7-.68.91s-1.76,3.57-1.53,2.83c.12-.36.52-1.41,1.46-3.49.48-1,1.08-2.33,1.93-3.91a46.75,46.75,0,0,1,3.48-5.6,56,56,0,0,0-6.24,11.09c-1.52,3.45-2.73,6.73-3.95,10.24-2.44,7-4.86,15.05-8.61,27.49,1.11-3.44,3.23-10.13,4.27-13s.79-1.8-2.61,10.17q-4,13.49-7.84,27c-1.67,5.65.12-1.47,1.76-7.78s3.09-11.82.49-3q-3.93,14.21-7.57,28.5c.38-.94,4.08-14.57,2-5.94-2.26,8.21-3.83,15-5.35,22.24s-3,14.82-4.75,24.73a173.92,173.92,0,0,0-2.83,21,44.36,44.36,0,0,0,.14,8.08,16,16,0,0,0,.79,3.36l.33.77c.13.25.28.49.44.76a5.31,5.31,0,0,0,1.17,1.27,5,5,0,0,0,1.26.68l.71.16c.23,0,.48,0,.72.06a3.12,3.12,0,0,0,.74,0,3.82,3.82,0,0,0,.65-.11,9.43,9.43,0,0,0,2.19-.78A20.11,20.11,0,0,0,839,688a49.27,49.27,0,0,0,5.85-5.61,107.75,107.75,0,0,0,9.86-13.07,133.42,133.42,0,0,0,14.67-30.15,82.84,82.84,0,0,0,3.72-16.35,46,46,0,0,0-.81-16.44,29.54,29.54,0,0,0-3-7.51,34,34,0,0,0-4.71-6.26,38.69,38.69,0,0,0-12-8.53,38.54,38.54,0,0,1,6.41,3.66c1.38,1,2.21,1.61,2.55,1.89.69.54-.29-.5-2.46-2.18a33.87,33.87,0,0,0-9.86-5.27,22.67,22.67,0,0,0-6.76-1.09,17.26,17.26,0,0,0-6.57,1.38,18,18,0,0,1,10.42-1.2,30.23,30.23,0,0,1,7.31,2.34,43,43,0,0,1,4.71,2.63c.61.41,1.17.76,1.65,1.1l1.25.92c2.85,2.22,2.61,1.82,1.92,1a36.64,36.64,0,0,0-10.68-6.81,24,24,0,0,0-8.84-1.93l-1.51,0-1.13.17a4.93,4.93,0,0,0-1,.22s.19,0,.76,0a18,18,0,0,1,2.69,0,17.42,17.42,0,0,0-5.66.69,16.2,16.2,0,0,0-4.35,2.15,20.84,20.84,0,0,0-5.09,5.19,35,35,0,0,0-4,7.92c-.84,2.26-1.54,4.4-2.43,7.58a71.8,71.8,0,0,0-2.56,14.16c-.17,2.15-.21,3.63-.25,4.58a11.68,11.68,0,0,1-.07,1.43,16.83,16.83,0,0,1-.14-3.13c0-1.79.11-3.94.16-5.27s.12-1.84-.11-.35a73.11,73.11,0,0,0,0,15.83,51.26,51.26,0,0,0,.82,5.35c.25,1.26.51,2.61,1.19,5.8.35,1.59.81,3.64,1.54,6.34s1.7,6.05,3.16,10.2c-.71-1.8-1.72-4.84-.93-2.17a151.49,151.49,0,0,0,11,25c1,1.74,1.89,3.37,2.77,4.85.45.74.87,1.45,1.27,2.12l.51.81.12.18c0,.06,0,.13,0,.2,0,1.26.06,2.36.09,3.25s.06,1.73.08,2.24c-.61,19.91.07,56.16-.53,52.25.16,45.28.33-6.75.54,2.19.26,18.54,0,52.83-.05,63.53,0-11.16-.18-21.43-.09-32.2l-.41,9.55c-.14,26.09.05,35.68.26,43.87.11,4.1.22,7.84.29,13.12,0,2.65,0,5.67.08,9.32v12.7c-1.14,2.84-2.45,6.1-3.9,9.73,1-2.62,1.85-4.8,2.5-6.5.33-.85.6-1.58.83-2.18l.31-.81.09-.27c0-1.23,0-2.16,0-2.88s0-1.38-.05-1.79a5.89,5.89,0,0,0-.11-1.14c-.08-.33-.16-.68-.28-6.24,0,2.2,0,6.85,0,12l-6.69,17.06c-1.37,3.54-1.19,3.26,2.37-5.43-7.6,19-12.86,32.17-18.09,45.25l-3.54,9.21-19.37.19c-6.4.07-12,.15-16.22.26l-28.4-.13-11.93-.11-5.4-.06-2.55,0h-.83l-.45,0-5.8-10-11.43-18.89c-.12-.13-.07-.3-.08-.45l0-1.38,0-2.77.06-5.53c0-3.68.06-7.36.1-11,.12-14.67.23-29.25.26-43.93s0-29.46-.19-44.54q-.1-5.66-.19-11.37t-.3-11.51c-.3-7.73-.53-15.52-1.35-23.55.13,1.58.3,3.17.39,4.74-.24-3.09-.5-5.78-.71-8s-.46-3.89-.52-5.3-.18-2.46-.23-3.23L709,738c-.07-1-.13,1.56,0,4.12,0,1.28.11,2.54.17,3.33s0,1.09,0,.46c0-.32-.11-.88-.21-1.72s-.16-2-.27-3.49a60.89,60.89,0,0,1,.5-13.52c-.07,1.42,0,.86.45-.94a22,22,0,0,1,1.08-3.45,10.93,10.93,0,0,1,1-2,7,7,0,0,1,.68-.89l.35-.33.16-.12,0,0s0,0-.08-.19c.18.35.05.1.09.18h0l-.06,0,.5-.28A54.19,54.19,0,0,0,720.1,713a48,48,0,0,0,6.1-8.23,53.17,53.17,0,0,0,6.28-17.34,59,59,0,0,0-.58-23.52,31.37,31.37,0,0,0-4.61-10.74,14.43,14.43,0,0,0-4.59-4.28,8.76,8.76,0,0,0-1.52-.7,9.21,9.21,0,0,0-1.63-.47,12.4,12.4,0,0,0-3.26-.13,16.93,16.93,0,0,0-5.74,1.73,27.26,27.26,0,0,0-4.75,3,41.22,41.22,0,0,0-7.53,7.7,43.43,43.43,0,0,0-5.32,9.16,37,37,0,0,0-2.63,10.2,46.39,46.39,0,0,0,2.4,20.46,28.54,28.54,0,0,0,5.16,9.35,10.3,10.3,0,0,0,2.44,2,5,5,0,0,0,3.88.52,6,6,0,0,0,1.79-.85,9.16,9.16,0,0,0,1.23-1.05,15.3,15.3,0,0,0,1.83-2.27,31.43,31.43,0,0,0,4-10,38.94,38.94,0,0,0,1-10.75,31.86,31.86,0,0,0-2.43-10.86,37.39,37.39,0,0,0-6-9.6,19.58,19.58,0,0,1,2.51,3,33.33,33.33,0,0,1,2.62,4.22,31,31,0,0,1,2.71,7.1,35.56,35.56,0,0,0-8.16-15.12,39.11,39.11,0,0,0-6.17-5.62,28.67,28.67,0,0,0-7.39-4,15,15,0,0,0-8.91-.58,14.88,14.88,0,0,0-7.27,5.06,24,24,0,0,0-3.81,7.23,41.81,41.81,0,0,0-1.8,7.53,70.2,70.2,0,0,0-.44,15,94.52,94.52,0,0,0,2.16,14.6,89.83,89.83,0,0,0,4.44,14.21,61.3,61.3,0,0,0,7.39,13.44l-1.11-1.45c.89,1.3,1.79,2.47,2.69,3.65s1.84,2.33,2.77,3.48c1.89,2.28,3.85,4.49,5.85,6.63s4.07,4.2,6,6.22a36.35,36.35,0,0,1,2.63,3,6.82,6.82,0,0,1,1.39,2.68l0,.14.05.17c.5,1.57,1,3.13,1.43,4.67.23.77.44,1.54.62,2.28.09.36.17.72.23,1,0,.16,0,.3,0,.39a.28.28,0,0,1,0,0h.29l.61,0c.19,0,.28,0,.43,0a2.45,2.45,0,0,1,.8.14h-2.15c-.14,3,0,5.8,0,8.64s.17,5.62.26,8.42q.24,8.38.49,16.75c.28,11.15.45,22.31.52,33.55s0,22.59-.11,34.1q-.12,8.63-.26,17.4-.18,8.54-.38,17.25c-.81,1.78-1.65,3.62-2.49,5.48.59-1.38,1.07-2.47,1.48-3.42.19-.48.38-.92.55-1.34l.25-.61,0-.15,0-.12a.62.62,0,0,0,0-.09v-.25c0-.32,0-.66,0-1v-2.39c0,1.25-.07,2.52-.11,3.83l-15.67,34-35.12.07c-11.4,0-21.43.15-28.63.29l-2.74,0h-.68l-.28,0-.34-.6-1-1.71-1.83-3.15L617,925l-4.76-8-8.64-14.45c.05-3.07.13-6.82.21-11.58.12-5.05.26-11.17.44-18.69.13-2.92,0,5,0,8.42.18-9.13.34-17.28.5-25.22s.26-15.85.39-24.21c-.35-2.26-.72-4.68-1.11-7.17L601,827.54a3.48,3.48,0,0,0,.64-.07l.32-.07.15,0,.22-.09a3.26,3.26,0,0,0,1.51-1.35,3.21,3.21,0,0,0,.45-1.43,4.88,4.88,0,0,0,0-.81,5.22,5.22,0,0,0-.44-1.46,13.63,13.63,0,0,0-.86-1.6c-.58-.92-1.18-1.76-1.82-2.59s-1.29-1.65-2-2.48c-.36-.41-.72-.82-1.16-1.27a9.39,9.39,0,0,0-.81-.75l-.69-.53-7.71-6.17-7.08-5.72c-4.5-3.68-8.61-7.09-12.47-10.35-7.7-6.53-14.42-12.42-21.09-18.73-3.33-3.17-6.65-6.43-9.95-10-1.65-1.79-3.3-3.66-4.88-5.65A36.75,36.75,0,0,1,529.1,750a9.39,9.39,0,0,1-.64-1.64,5.82,5.82,0,0,1-.17-.73,2.48,2.48,0,0,1,0-.46c.12-.52.25-.76,1.5-1.2a16,16,0,0,1,4-.57,38.33,38.33,0,0,1,4.61.18,80.76,80.76,0,0,1,20.75,5.3c.68.46-1.22-.24-4.56-1.29a90.53,90.53,0,0,0-13.16-3.17,44.88,44.88,0,0,0-7.36-.56,17.76,17.76,0,0,0-3.18.33,6.62,6.62,0,0,0-1.24.35,2.77,2.77,0,0,0-.68.34.56.56,0,0,0-.18.45,4.3,4.3,0,0,0,.1.57c.06.23.15.48.23.7a6,6,0,0,0,.92,1.67,15,15,0,0,1-.81-1.77c-.07-.26-.18-.54-.21-.74a2.7,2.7,0,0,1-.06-.44.46.46,0,0,1,.09-.27s0,0,.22-.15a6,6,0,0,1,.65-.28,14.38,14.38,0,0,1,3.87-.59,36.69,36.69,0,0,1,4.52.15,77.13,77.13,0,0,1,21.24,5.52,37.21,37.21,0,0,0-5.64-1.79,23,23,0,0,1-3.39-.82,111.51,111.51,0,0,1,13,4.71,90.57,90.57,0,0,1,15.37,8.51,63.59,63.59,0,0,1,11.2,9.84c1.28,1.44,2.23,2.68,2.86,3.54a16.14,16.14,0,0,1,.92,1.34c.24.26-.17-.58-1.67-2.64a52.7,52.7,0,0,0-8.86-9.31,51.51,51.51,0,0,1,10.89,11.8,40.19,40.19,0,0,1,2.63,4.63c.41.82.8,1.67,1.14,2.56a12.76,12.76,0,0,1,.83,2.54,42.35,42.35,0,0,1,.7,6c.13,2.11.2,4.3.26,6.52.17,8.93.31,18.39.11,27.52s-.64,18-1,25.84c.29-5.09.92-15.6,1.16-23.34s.32-12.73.47-6.74c-.13,10.48-.59,19.2-1,26.87s-.69,14.29-.78,20.53,0,12.09.27,18.21c.06,1.53.15,3.08.25,4.66a46.73,46.73,0,0,1,.16,4.67,55.08,55.08,0,0,1-2,10c-1.38,4.61-2.44,7.61-3.08,9.37s-.87,2.29-.78,1.92c.15-.73,1.62-5,3.1-10.32.71-2.64,1.48-5.54,1.94-8.31.12-.69.17-1.36.27-2a6.51,6.51,0,0,0,.06-1v-.9c0-1.28-.16-2.62-.22-3.78-.31-4.7-.43-7.56-.52-5.72,0,1.63,0,3.84,0,6,0,1.07,0,2.12,0,3.07a15.63,15.63,0,0,1-.19,2.08c-.24,1.2-.38,1.75-.36,1.08,0-.16,0-.4.06-.73a8.37,8.37,0,0,0,.06-1.17c0-.75-.09-2.42-.2-4.45.05,1.1.09,2.19.14,3.27a16.45,16.45,0,0,1-.19,2.65c-.1.93-.31,1.9-.51,2.87s-.46,1.93-.69,2.88c-1,3.84-2.18,7.57-3.38,11.2s-2.47,7.16-3.74,10.62L587.35,931l-.49,1.27-.1.27c0,.24-.24.16-.41.18l-43.74.29.86-.14-65.66.32-8,0-3.89,0c-.22,0-.51.06-.69,0l-.38-.69a73.46,73.46,0,0,1-5.67-13.95,82.53,82.53,0,0,1-3-28,89.13,89.13,0,0,0,.82,18.83,86.64,86.64,0,0,1-1.09-18.22,124.6,124.6,0,0,1,3-21.79c-.05.65,1.65-5.79,3.51-10.86.91-2.53,1.79-4.74,2.19-5.65s.29-.52-.65,2.18c.72-2.27,1.84-5.38,3.38-9.09.77-1.87,1.65-3.83,2.6-6.06.12-.28.24-.57.37-.92a4.68,4.68,0,0,0,.21-.71.86.86,0,0,0,0-.21,1.39,1.39,0,0,0,0-.36,1.33,1.33,0,0,0,0-.28,2,2,0,0,0-1-1.42,2.08,2.08,0,0,0-1-.24,2.36,2.36,0,0,0-.59.11,1.38,1.38,0,0,0-.23.1,3.26,3.26,0,0,0-.29.17,1.7,1.7,0,0,0-.26.2c-.46.42-.54.55-.77.77l-.62.64q-1.29,1.27-2.73,2.58c-7.72,6.9-17.61,14.41-27.6,21.82s-20.26,14.63-29.13,20.72c-4.44,3-8.54,5.8-12.1,8.15l-3.29,2.18c-1,.63-1.91,1.23-2.77,1.76a12.2,12.2,0,0,1-1.8.81,1,1,0,0,1-.53.06.12.12,0,0,1-.1-.18,1.17,1.17,0,0,1,.11-.25c.36-.55.48-.59.55-.41s.09.15.28.08a2.75,2.75,0,0,0,.51-.21c.35-.18.7-.38,1-.59.68-.41,1.3-.83,1.72-1.12.68-.39,1.33-.78,2-1.16l2.17-1.35c2.44-1.55,4.67-3,6.73-4.35,4.12-2.71,7.58-5,10.69-7.17,6.21-4.25,11-7.68,16.77-12-18.47,13.28-32.58,22.12-29.74,20.07l-6.42,4.32c-.61.41-1.28.85-2,1.3-.37.22-.76.45-1.18.67a5.31,5.31,0,0,1-.64.3c-.11,0-.25.1-.35,0s0-.2.05-.3a32.82,32.82,0,0,1,3.24-4.54l1.94-2.34,2.18-2.56c1.46-1.71,2.94-3.39,4.42-5,5.92-6.64,11.83-12.8,16.83-17.74s9.06-8.67,11.15-10.61a117,117,0,0,1,17.48-12.53A32,32,0,0,1,450,836c.84-.27.78-.18-.45.46a21.82,21.82,0,0,1,5.28-1.72,7.4,7.4,0,0,1,4,.27,4.12,4.12,0,0,1,2.08,2,11.16,11.16,0,0,1,.85,2.75,35.7,35.7,0,0,1,.49,4.29c.08,1,.1,1.68.14,2,.1,1.27.36-2.78-.07-6.32a9.29,9.29,0,0,0-1.29-4c-.21-.39-.43-.55-.42-.61s.17,0,.5.44a6.26,6.26,0,0,1,1.21,2.38,22.53,22.53,0,0,1,.83,5.46c.14,2.38.14,5.33.11,8.91s0,7.81,0,12.74c-.37,36-.5-35.13-.62,14.51l-.06-9.16c-.49,17.92-.32,24.21,0,31.09.15,3.44.32,7,.46,12.29.07,2.64.13,5.69.17,9.35q0,2.75,0,6c0,1,0,2.15,0,3.3v2.32h-.56c-.59-.07-.65-.13-.43-.17a3.6,3.6,0,0,1,.54-.07H463c0-.05,0-.15,0-.22l0-.51-.05-1.13,0-1.56c0-1.22-.05-2.46-.07-3.52,0-2.12-.07-3.54-.12-2.68,0,.43-.05,1.44-.08,3.21l-.06,3.25c0,.47,0,1,0,1.54v.65c0,.21.09.57-.27.46l-23.33.19-20.68.3c-13.35.19-26.71.34-45.28.26l5.82-.23-93.6,0c-1.13-.11,2.32-.09,6.84-.12-43.8-.2-18.31.27-54.14-.1l-10.28.26c18,.18,52.83.44,75.59.14-22.76.3,35.67.67,24.37,1.13l4.52-.19c29.73.39,63.75.61,99.76.77l27.36.11H465v-2.87q0-3.66,0-7.34,0-7,.05-14c.07-18.71.13-37.64.2-56.49,0-3,0-5.91-.05-8.79a44.15,44.15,0,0,0-.77-8.69,9.92,9.92,0,0,0-2-4.24,7.29,7.29,0,0,0-4.19-2.32,12,12,0,0,0-4.45.11,23.21,23.21,0,0,0-4,1.21,66.18,66.18,0,0,0-13.76,8.06c-4.23,3.08-8.23,6.38-12.14,9.8-7.8,6.86-15.28,14.22-22.86,22.31-3.79,4-7.6,8.3-11.41,12.82-.57.68-1.13,1.37-1.71,2.05l-1.93,2.39c-1.25,1.59-2.5,3.22-3.41,4.65a17.23,17.23,0,0,0-1,1.93,14.57,14.57,0,0,0-.7,1.66,5.69,5.69,0,0,0-.25.83,1.73,1.73,0,0,0-.06.47.45.45,0,0,0,.1.27.51.51,0,0,0,.26.07,6.59,6.59,0,0,0,1.8-.31,33.42,33.42,0,0,0,5.26-2.58c1-.6,2.18-1.3,3.52-2.12l4.4-2.76c5.8-3.71,15.39-9.83,33.22-22.62-9.44,6.77-10,7.22-6.58,5s10.62-7.23,16.56-11.56c6.81-5.22,15.14-11.5,23.15-18.3.86-.7,2.29-1.87,4.11-3.49l1.42-1.31,1.45-1.41h0l-.07-.09a4.43,4.43,0,0,1-.34-.45,1.12,1.12,0,0,1-.28-.56s0,0,0,0l-.1,0a2,2,0,0,1-.4,0c-.23,0-1-.19-.77-.15,0,.07-.08.23-.14.38l-.45,1-1,2.21a157.57,157.57,0,0,0-8.59,22.45,116.86,116.86,0,0,0-4.64,25.87,85.14,85.14,0,0,0,1.18,20.73,88.13,88.13,0,0,0,2.24,10.14,28.75,28.75,0,0,1-1.16-4,83.71,83.71,0,0,1-1.9-10.16c-.45-3.53-.6-6.74-.68-8.22a71.28,71.28,0,0,0,1.92,16.25,99.89,99.89,0,0,0,4.55,14.16,4.75,4.75,0,0,1-.25-.51c-.2-.43-.54-1.18-1.06-2.51.92,2.45,1.94,4.79,3,7l.84,1.66.57,1.07.68,1.24.33.61.09.15s.11,0,.16,0h17.4l25.15.06,54.48.15c1.75-.31,12.19-.37,24.55-.37h2.69c1.11-.13,2.75.5,2.87-1.12l2-5.21c1.17-3,2.3-6.08,3.36-9.06,2.12-6,4-11.65,5.12-16.32-.34,1.52-.11.82.45-1.29.29-1,.6-2.49.94-4.2.06-.44.13-.9.2-1.37a9.71,9.71,0,0,0,.14-1.51c0-.53.05-1.12,0-1.64s0-1-.06-1.51c-.39-8.19-.35-18.64-.06-24.63.1-7.55.43-15.12.68-22.72.41-11.27.7-19.13.82-27.82.05-4.35.05-8.9,0-14.17,0-2.64-.08-5.47-.19-8.56-.05-1.55-.14-3.17-.27-4.87a40,40,0,0,0-.74-5.4,49.31,49.31,0,0,1,.72,7.24c-.09-1.35-.2-2.84-.4-4.46a21.11,21.11,0,0,0-1.25-5.31,47,47,0,0,0-5.94-10.73c-5.19-7.16-12.89-13.62-21.35-18.55a100.48,100.48,0,0,0-26.08-10.67,64.84,64.84,0,0,0-12-1.95,30,30,0,0,0-5.39.15,14.15,14.15,0,0,0-2.55.55,7.5,7.5,0,0,0-2.52,1.3,4.88,4.88,0,0,0-1.61,2.54,5.94,5.94,0,0,0-.18,1.51,8.15,8.15,0,0,0,.15,1.31,14.9,14.9,0,0,0,1.59,4.08,47.18,47.18,0,0,0,4.46,6.48,147.43,147.43,0,0,0,10.09,11.08c6.94,6.95,14,13.36,21.06,19.52s14,12,21,17.68c3.44,2.85,7,5.57,10.29,8.38l1.34,1a4.08,4.08,0,0,1,.49.4c.16.15.34.34.51.52.69.74,1.37,1.55,2,2.37s1.28,1.66,1.83,2.49a13.76,13.76,0,0,1,.72,1.22,2.8,2.8,0,0,1,.16.39,3,3,0,0,1,1.26-.07c.07,0,.13.08.08,0a0,0,0,0,1,0,0s0-.07,0-.11a.37.37,0,0,1,0-.21l-1.61.9c.37,2.32.73,4.63,1.07,6.77-.4,24.94-.78,48.81-1.15,72.09,7.22,12.25,14.37,24.35,21.5,36.43l73,.26c5.71-12.37,11.49-24.89,17.43-37.74.15-5.37.3-10.77.46-16.23q.18-8,.36-16.09c.18-10.83.34-21.88.34-33.2s0-22.93-.31-34.84q-.18-8.94-.48-18.12-.14-4.57-.28-9.23c-.06-3.06-.18-6.22,0-9.17l-.07.46a4.12,4.12,0,0,0,.07-1.43c0-.31-.07-.56-.11-.8-.09-.49-.19-.92-.3-1.35-.21-.86-.44-1.67-.67-2.49-.48-1.62-1-3.21-1.49-4.81l.07.28a10.59,10.59,0,0,0-1.37-3.36,20,20,0,0,0-1.89-2.56c-1.32-1.53-2.67-2.88-4-4.24-2.66-2.7-5.28-5.4-7.79-8.26-2.2-2.47-2.88-3.27-2.83-3.15s.84,1.16,1.71,2.25c1.75,2.16,3.79,4.57.23.76-1.7-2-3.19-3.77-4.51-5.47a49.94,49.94,0,0,1-3.41-4.76,59.77,59.77,0,0,1-4.47-8.6,77.39,77.39,0,0,1-3.15-8.89,96.18,96.18,0,0,1-2.62-11.62,84.12,84.12,0,0,0,1.82,9c.5,2,.87,3.09,1,3.64a10,10,0,1,1-.39-1,76.08,76.08,0,0,0,5.3,13.32,48.89,48.89,0,0,0,3.68,6.06c.66,1,1.41,1.91,2.16,2.86s1.5,1.89,2.27,2.82c.85,1.12-1.18-1.35.49.85,2.46,2.93,5.24,5.91,8.28,9,1.53,1.55,3.12,3.1,4.73,4.83a25.54,25.54,0,0,1,2.37,2.86,10.61,10.61,0,0,1,1.76,3.87l0-.21c.79,2.51,1.63,5,2.29,7.87-.77-3.1-1.64-5.56-2.39-7.84l0,.2a11,11,0,0,0-2.36-4.57c-1-1.17-1.93-2.2-2.9-3.17-1.95-2-3.88-3.77-5.91-5.87s-4.18-4.42-6.56-7.28c-1.19-1.44-2.42-3-3.74-4.75a50,50,0,0,1-3.71-5.89c.48.8,1.1,1.88,2.1,3.38.49.77,1.11,1.59,1.82,2.57s1.61,2.11,2.65,3.35c-1.59-2-3-3.77-4.05-5.36-.53-.82-1-1.6-1.49-2.34s-.84-1.48-1.22-2.17a76.83,76.83,0,0,1-3.36-7.2c-.84-2.17-1.6-4.21-2.31-6.66a82.13,82.13,0,0,1-2.16-9,91.22,91.22,0,0,1-1.31-9.95c-.19-2.21-.19-3.45-.23-4.18a11.49,11.49,0,0,1,.08-2.13,60,60,0,0,1,.42-7.11,39.56,39.56,0,0,1,1.36-6.9,24.38,24.38,0,0,1,2.73-6.25,11.77,11.77,0,0,1,4.63-4.33,7.29,7.29,0,0,1,2.87-.84,10.87,10.87,0,0,1,3.14.25,20.17,20.17,0,0,1,6.18,2.6,34.58,34.58,0,0,1,10,9.54,29.68,29.68,0,0,1,4.7,9.43,30.49,30.49,0,0,1,.93,10.79,34.12,34.12,0,0,1-2.53,10.45,18.41,18.41,0,0,1-2.51,4.35,6.59,6.59,0,0,1-1.53,1.42,1.44,1.44,0,0,1-1.3.19,2.09,2.09,0,0,1-.65-.35,5.56,5.56,0,0,1-.77-.64,12.38,12.38,0,0,1-1.41-1.69,23.71,23.71,0,0,1-2.17-3.9,38.79,38.79,0,0,1-2.5-7.75,43.26,43.26,0,0,1-.94-11,54.66,54.66,0,0,0,.75,8.53,38,38,0,0,0,4.61,12.91,13.44,13.44,0,0,0,2.15,2.7,4.57,4.57,0,0,0,1,.67,1,1,0,0,0,.72,0,1.52,1.52,0,0,0,.33-.18,4.4,4.4,0,0,0,.53-.42,9.13,9.13,0,0,0,1-1.21,18.1,18.1,0,0,0,1.75-3,32.31,32.31,0,0,0,2.76-12.22,34.78,34.78,0,0,1-2,9.6,23.85,23.85,0,0,1-2.06,4.28,12.16,12.16,0,0,1-1.29,1.73,5.57,5.57,0,0,1-.67.64,3.4,3.4,0,0,1-.3.21c-.06,0-.07,0-.13.06a.77.77,0,0,1-.24.4,1,1,0,0,1-.54-.19,5,5,0,0,1-1-.84,14.07,14.07,0,0,1-1.91-2.57,30.14,30.14,0,0,1-2.82-6.36,42.93,42.93,0,0,1-2.06-14l.06,1.59a33.34,33.34,0,0,1,.14-5.55,28.56,28.56,0,0,1,2.09-8.12c.49-1.11,1.75-3.54.46-.7a38.85,38.85,0,0,1,5.13-8.65,35.14,35.14,0,0,1,7.17-7c-2.28,1.76-2.45,2.12-1.65,1.44a26.09,26.09,0,0,1,5.13-3.19,12.05,12.05,0,0,1,3.52-1,5.81,5.81,0,0,1,2.79.32,5.4,5.4,0,0,1,1.57.93c.31.25.35.39.1.22a13.24,13.24,0,0,1,3.07,3.8,26.49,26.49,0,0,1,2.05,4.76,44,44,0,0,1,1.93,10,56.34,56.34,0,0,1-1.41,18.22,44.71,44.71,0,0,1-16.29,25l.68-.38a3.6,3.6,0,0,0-.65.33,4.1,4.1,0,0,0-.41.28,4.43,4.43,0,0,0-.64.54,8.47,8.47,0,0,0-1,1.1,13.39,13.39,0,0,0-1.39,2.26,21.9,21.9,0,0,0-.95,2.27c-.22.75-.49,1.51-.66,2.26a45.08,45.08,0,0,0-1.12,8.91l-.06,2.21c0,.74,0,1.47,0,2.21l.05,2.22.15,2.22.15,2.24.23,2.24c.16,1.5.33,3,.45,4.49s.27,3,.41,4.5.18,3.1.27,4.7c.19,3.17.3,6.48.41,9.92s.19,7,.26,10.75.12,7.64.14,11.73c0-5,.26-.13.49,8.35s.39,20.57.36,30c-.07,10.91-.17,13.67-.31,6.74l.14,24.78c-.3,12.36-.47,24.59-.64,37.73,0,1.64,0,3.29-.06,5,0,1.07,0,2.15,0,3.24a.32.32,0,0,0,.09.26l.15.25.29.5.49.81.66,1.09q2.63,4.4,5.39,9L726.23,941l27.57.06-2.36.17c16.86-.2,35-.36,60.39-.3l-4.62.34,10.46,0,3.33-8.5c.72-1.91,1.35-3.58,1.93-5.1,1.12-3.06,2-5.55,3-8.3,2-5.5,4.45-12.06,10.18-26.26a19.73,19.73,0,0,0-1.53,3.19c-.83,1.93-1.93,4.52-3.08,7.2-2.27,5.37-4.68,11.11-5.45,12.61,3.31-7.38,16.87-41.53,13.48-33.66l4.58-11.72c0-4.92,0-8.14,0-10.25s0-3,0-3.44c0-.89.09.29.13-1l-.23-20c0-24,.48-7.67.69,1.18-.39-22.35-.12-46.71,0-72.08l.16,10.29.07-33.39c-.15-10.88-.22-24-.25-37.8v-15c.09-.4-.2-.69-.38-1l-.51-.85q-1.35-2.26-2.64-4.59a164.9,164.9,0,0,1-9.11-19,169.35,169.35,0,0,0,8.67,17c-2.27-4.29-3.57-7.05-4.41-8.78s-1.18-2.46-1.37-2.77c-.36-.61,0,.42-1.13-1.91a130.57,130.57,0,0,1-6.52-17.81,98.62,98.62,0,0,1-2.71-12.75,78.52,78.52,0,0,1-.82-10.25,76.22,76.22,0,0,1,.6-10.63,62.4,62.4,0,0,1,1.52-8.81c.39-1.43.76-2.87,1.23-4.34s.92-2.87,1.46-4.23a31.57,31.57,0,0,1,4-7.53,13.78,13.78,0,0,1,5.91-4.77,13.24,13.24,0,0,1,7.47-.46,25,25,0,0,1,7.59,3,33.65,33.65,0,0,1,11.77,11.45A30.6,30.6,0,0,1,869,615.9a63.09,63.09,0,0,1-2.37,16.3A127.89,127.89,0,0,1,854,661.89Zm98.92-281.42c-.95-1.25-1.82-2.55-2.68-3.86A66.9,66.9,0,0,0,957,385c.45.49.42.47-.24-.21A57.64,57.64,0,0,1,952.89,380.47Zm100.5,180.06A101.74,101.74,0,0,0,1055,550.1c.33-2.89.5-5.21.63-7.07.24-3.71.29-5.59.35-6.5.11-1.83.13.17.24-1.08a149.79,149.79,0,0,1-2,21.51,66,66,0,0,1-2.3,9.36,27.84,27.84,0,0,1-1.88,4.36,11,11,0,0,1-.64,1,7.67,7.67,0,0,1-.79,1,8,8,0,0,1-1.11,1l-.63.36a6.31,6.31,0,0,1-.68.26,3.48,3.48,0,0,1-1.54,0,2.08,2.08,0,0,1-.72-.26,2.28,2.28,0,0,1-.68-.38,7.16,7.16,0,0,1-.61-.48c-.19-.18-.39-.41-.56-.58-.31-.34-.54-.68-.81-1a36,36,0,0,1-2.43-4.21c-1.44-2.83-2.75-5.69-4.13-8.58-2.76-5.79-5.74-11.76-9.44-18.15,2.22,4,2.5,4.88,3.14,6.22-5.33-10.08-11.75-19.52-13.87-22.8a169.26,169.26,0,0,1,13.73,21.42c2.69,4.94,5.31,10.31,7.76,15.56,1.23,2.63,2.42,5.22,3.73,7.69a23.31,23.31,0,0,0,2.25,3.55c1,1.26,2.59,2.32,4.15,1.88a6,6,0,0,0,1.35-.64,8.53,8.53,0,0,0,1.08-1,10.12,10.12,0,0,0,.76-1,10.45,10.45,0,0,0,.6-1,23.88,23.88,0,0,0,1.68-3.74,51.37,51.37,0,0,0,1.67-5.7C1053.94,558.35,1054,557.78,1053.39,560.53Zm-13.08-43c0-1.15,0-2.46,0-3.89v-.19Zm-28-157a34,34,0,0,1,6.59-8.66,26.08,26.08,0,0,0-3.21,3.31A28.72,28.72,0,0,0,1012.34,360.49Zm19.76,75.29c1.56,3.38,4.15,8.93,6.58,15.2s4.78,13.24,6.45,19.21c-.77-2.8-1.88-6.69-3.79-12.28A187.27,187.27,0,0,0,1032.1,435.78Zm-11.5,341.57c.36-9.86,1.08-28.38.11-11.47-.21,8.13-1.23,23.8-1.27,30.67-.06,1-.07,1.1-.1,1.68C1019.94,788.38,1020.43,780.27,1020.6,777.35ZM894.46,563.55c-.19.4-.56,1.09-1,1.84s-.92,1.53-1.29,2.16c-.78,1.23-1.08,1.81.35,0-.47.67-1.12,1.51-1.65,2.23,1.54-1.92,2.72-3.63,1.69-2a61.45,61.45,0,0,0,5.9-10.16,37.85,37.85,0,0,0,3-9.58c0-.34,0-.89,0-1.54s.06-1.37,0-2.05,0-1.32-.08-1.78a2.92,2.92,0,0,0-.14-.73,9.87,9.87,0,0,0,0,1.09,34.62,34.62,0,0,1-.28,3.65C900.48,550,899.18,555.8,894.46,563.55Z" transform="translate(-227.62 -342.91)"/><path class="cls-1" d="M843,612.21a49.77,49.77,0,0,0-2-4.77c-.62-1.39-1.11-2.65-1.67-3.7.59,1.11,1.07,2.37,1.69,3.75S842.42,610.38,843,612.21Z" transform="translate(-227.62 -342.91)"/><path class="cls-1" d="M901.16,549.57a8.18,8.18,0,0,0-.34,1.19,37.68,37.68,0,0,1-1.31,4,49.43,49.43,0,0,1-2.72,5.91,67,67,0,0,1-4.24,6.8,52.35,52.35,0,0,0,3.46-5.28A45.52,45.52,0,0,0,901.16,549.57Z" transform="translate(-227.62 -342.91)"/><path class="cls-1" d="M1155.88,940.32l-9.56.06,19.14.2c31.92-.22,33.52-.5,41.37-.82-28.6.3-46.12.15-82.85.24Z" transform="translate(-227.62 -342.91)"/><path class="cls-1" d="M1139.67,938.17c-3.21-.08-11.21-.3-16-.32l-4.74.2Z" transform="translate(-227.62 -342.91)"/><path class="cls-1" d="M1031.18,655q-.48,7.56-.88,15.11t-.78,15.12c-.11,4.78.25-1.6.69-9.76S1031.18,657.32,1031.18,655Z" transform="translate(-227.62 -342.91)"/><path class="cls-1" d="M1025.33,789.27l.59,15.92c-.13-7.16-.28-15.54-.4-22.53s-.27-12.57-.41-14.13C1025.54,787.67,1025,773.28,1025.33,789.27Z" transform="translate(-227.62 -342.91)"/><path class="cls-1" d="M1036.62,573.8c.24-4.71,1.05-12.24,1.79-19.39s1.38-13.92,1.45-17.06C1039.4,545.35,1036.34,572.3,1036.62,573.8Z" transform="translate(-227.62 -342.91)"/><path class="cls-1" d="M1031.26,594.72c-1,9.57-1.72,25.48-3,44.64C1029.25,623.4,1031.1,601.13,1031.26,594.72Z" transform="translate(-227.62 -342.91)"/><path class="cls-1" d="M1020.67,413.78c.94,1.25,6.91,12.77,11.08,26.67-.8-2.29-1.41-4.2-2.24-6.25s-1.63-4.31-2.9-7.27c2.35,5.54,3.82,9.93,5,13.58.63,1.81,1.06,3.49,1.52,5s.87,3,1.21,4.41.7,2.79,1.06,4.2.62,2.9,1,4.48.64,3.3,1,5.2.69,4,1,6.4c-.16-1.2-.33-2.43-.5-3.69s-.42-2.53-.64-3.83c-.4-2.6-1-5.24-1.5-7.88s-1.2-5.24-1.85-7.75-1.29-4.92-2-7.13c-1.32-4.45-2.7-8.15-3.53-10.6s-1.32-3.6-1-2.91a144.94,144.94,0,0,0-8.66-17.17c-1-1.72-1.59-2.56-1.36-2,.11.29.42.93,1,2S1019.73,411.77,1020.67,413.78Z" transform="translate(-227.62 -342.91)"/><path class="cls-1" d="M1035.32,548.72c-.8,7.94-1.54,14.29-2.27,21s-1.48,13.91-2.08,23.49c.44-3.3,1-9.69,3.22-31.94l-.46,8C1036,548.66,1032.52,577.34,1035.32,548.72Z" transform="translate(-227.62 -342.91)"/><path class="cls-1" d="M1035.4,346.43a19,19,0,0,0-4.39,0,17.79,17.79,0,0,0-4.25,1,16.78,16.78,0,0,0-1.72.81c-.56.35-1.16.65-1.71,1a19,19,0,0,0-1.65,1.18,17.82,17.82,0,0,0-1.59,1.31,28.33,28.33,0,0,0-5.34,6.45,36.59,36.59,0,0,0-5.08,16,47.47,47.47,0,0,0,1.22,15.27,51.85,51.85,0,0,0,4,10.93,54.5,54.5,0,0,1-5.07-19.4,45.14,45.14,0,0,1,.5-10.08,36.74,36.74,0,0,1,2.83-9.25,28.49,28.49,0,0,1,11-12.64A18.75,18.75,0,0,1,1035.4,346.43Z" transform="translate(-227.62 -342.91)"/><path class="cls-1" d="M1036.24,470.83l-.88-2.92c.83,5.48,1.05,8.15,1.2,9.15s.08.36,0-.73c-.2-2.17-.58-6.12-.07-2.18.77,6.29,1.38,15.8,1.56,20.46-.07-1.58-.12-3-.17-4.19s-.14-2.27-.2-3.17c-.11-1.82-.17-3.05-.24-3.89-.12-1.68-.09-1.79,0-1.81s.09.06,0-1.24S1037,476.33,1036.24,470.83Z" transform="translate(-227.62 -342.91)"/><path class="cls-1" d="M1011.84,402.58a55.54,55.54,0,0,1-5.7-28.44,53.88,53.88,0,0,0,2.63,22.78,61.68,61.68,0,0,0,4.13,9.09c1.16,2.05,1.91,3.37,2.35,4.16.89,1.53.6.9-.13-.51l-1.31-2.55c-.48-1-1-1.94-1.38-2.79C1011.64,402.63,1011.26,401.54,1011.84,402.58Z" transform="translate(-227.62 -342.91)"/><path class="cls-1" d="M1007.73,367.56c.27-1.06.63-2.09,1-3.12a32.88,32.88,0,0,1,12.77-17.64c.77-.54,1.58-1,2.41-1.45l1.3-.63,1.34-.52a22.81,22.81,0,0,1,5.58-1.16,22.15,22.15,0,0,1,11.24,1.87,19.15,19.15,0,0,0-4.65-1.53c-.74-.18-1.48-.24-2.18-.35s-1.41-.13-2.08-.12a23.55,23.55,0,0,0-7.14,1,22.08,22.08,0,0,0-5.32,2.46,31.05,31.05,0,0,0-9.85,10.15A36.71,36.71,0,0,0,1007.73,367.56Z" transform="translate(-227.62 -342.91)"/><path class="cls-1" d="M1026.06,536.21c-1.35-2,1.25,2.39,3.33,6.23s3.76,7.06,1.29,2.24c1.23,2.1-2.1-4.33-4.91-9-1.4-2.34-2.61-4.26-2.82-4.57S1023.58,532.06,1026.06,536.21Z" transform="translate(-227.62 -342.91)"/><path class="cls-1" d="M1056.28,515.58a229.34,229.34,0,0,1,.19,26.54,127.66,127.66,0,0,1-2.07,17.3,55.56,55.56,0,0,1-2.27,8.35,23.63,23.63,0,0,1-1.84,3.92c-.22.31-.43.63-.64.94l-.39.47a4.38,4.38,0,0,1-.51.54,6.09,6.09,0,0,1-2.43,1.45c-.36.07-.74.07-1.1.11a4.7,4.7,0,0,1-1.06-.18c-.33-.14-.67-.27-1-.43s-.59-.41-.87-.62a8.08,8.08,0,0,1-.78-.77,6.59,6.59,0,0,1-.51-.61,11.41,11.41,0,0,1-.84-1.19,48.11,48.11,0,0,1-2.39-4.24,45.66,45.66,0,0,0,2.39,4.28c.25.39.52.78.84,1.19a6.58,6.58,0,0,0,.52.62,7.13,7.13,0,0,0,.79.77c.28.21.57.42.87.62s.65.28,1,.43a6.44,6.44,0,0,0,1.07.17c.36,0,.73,0,1.08-.1a7.8,7.8,0,0,0,1.58-.73,8.41,8.41,0,0,0,1.34-1.2,8.89,8.89,0,0,0,.88-1.16,12.76,12.76,0,0,0,.7-1.16,28.89,28.89,0,0,0,2-4.84,71.81,71.81,0,0,0,2.37-10.24,151.57,151.57,0,0,0,1.75-20.15C1057.2,523.29,1056.26,514.31,1056.28,515.58Z" transform="translate(-227.62 -342.91)"/><path class="cls-1" d="M1034.62,560.71c.63,1.27,1.75,3.66,3.17,6.45C1036.36,564.27,1035.34,562.19,1034.62,560.71Z" transform="translate(-227.62 -342.91)"/><path class="cls-1" d="M911.22,470.37l3.28,4.14Z" transform="translate(-227.62 -342.91)"/><path class="cls-1" d="M901,456.3c-3.33-4.87-8-12.3-11.9-19.08s-6.87-12.9-7.77-14.69a214.72,214.72,0,0,0,13,23.7,283.77,283.77,0,0,0,17,24.14C906.23,463.91,900.71,455.58,901,456.3Z" transform="translate(-227.62 -342.91)"/><path class="cls-1" d="M1031,550.82c-1,.08-2.16,0-3.27,0s-2.26,0-3.37-.08l-3.24-.33a26.28,26.28,0,0,1-2.91-.36c-3.56-.63-5.71-1-4.29-.64,1.18.23,3.18.62,5.44,1l3.52.35,1.76.17c.58,0,1.15,0,1.7,0h4.15l.88-.08C1032.28,550.79,1032.35,550.75,1031,550.82Z" transform="translate(-227.62 -342.91)"/><path class="cls-1" d="M1013.37,914.17c-.36,8.14-.6,14.59-.71,18.47,0,1,0,1.75,0,2.37a1,1,0,0,0,0,.23c0,.11.1.13.17-.09.15-4.33.24-7,.3-8.72s.06-2.71.06-3.43C1013.2,921.57,1013.16,920.76,1013.37,914.17Z" transform="translate(-227.62 -342.91)"/><polygon class="cls-1" points="769.36 592.86 767.16 592.72 756.46 592.5 769.36 592.86"/><path class="cls-1" d="M884.71,935.36c.83-.05,3.73-.1,6.76-.12C885.13,935.27,879.72,935.31,884.71,935.36Z" transform="translate(-227.62 -342.91)"/><path class="cls-1" d="M894.68,935.22l-3.21,0Z" transform="translate(-227.62 -342.91)"/><path class="cls-1" d="M902.06,935.31l1.27-.15-8.65.06C897.71,935.21,900.92,935.23,902.06,935.31Z" transform="translate(-227.62 -342.91)"/><path class="cls-1" d="M861.8,925.14l2.36,6.06,1.18,3,.29.76.08.19v.05l0,.07.08.28.37,0,2,0,4.21.09c8.07-.08,7-.13,3.32-.18l-6.49-.09-3-.06-.24-.06c0-.16,0-.17.09-.14l.13-.07h.29l.75,0,1.79,0-2.51,0h-.33l-.06,0,0,0v0s0,0,0,0l-.08-.18-.32-.75-1.28-3Z" transform="translate(-227.62 -342.91)"/><path class="cls-1" d="M845.86,854.83c0-20.44-.75-49.91-.3-61.5-.51-57.89-.78,13.37-1.26-52.87,0,62.61,1.11,31.83,1.07,87.4C845.57,801,845.7,845.87,845.86,854.83Z" transform="translate(-227.62 -342.91)"/><path class="cls-1" d="M845.05,864.7c.26,3.32.18-22.64,0-30.73C845,841.52,844.73,854.54,845.05,864.7Z" transform="translate(-227.62 -342.91)"/><polygon class="cls-1" points="617.53 398.77 617.65 381.06 617.47 376.42 617.53 398.77"/><path class="cls-1" d="M845,674.89l.37,16.87c-.07-2.84-.13-10.71-.19-16.09v-.75a.11.11,0,0,1,0,0l.06-.25c.17-.57.31-1.09.42-1.55.23-.92.39-1.56.44-1.82s0-.11-.19.53l-.38,1.35-.3,1C845.12,674.35,845.05,674.61,845,674.89Z" transform="translate(-227.62 -342.91)"/><path class="cls-1" d="M827.72,584.46c-5.34-6.46-11.46-11.64-12.72-12.39-.63-.39.07.17,2.48,2.38,1.17,1.15,2.87,2.6,4.86,4.75,1,1,2.16,2.21,3.33,3.6l1.89,2.15c.65.77,1.28,1.61,2,2.47-1.6-2.15-3.39-4.13-5.13-6.16.76.71-2.11-2.38-3.3-3.73-.61-.67-.8-.9.13,0S824.23,580.35,827.72,584.46Z" transform="translate(-227.62 -342.91)"/><path class="cls-1" d="M835.36,608.19l-2.11.5-2.15.35c-1.44.23-2.88.49-4.28.69l-4.08.4c-.65.06-1.28.14-1.89.17l-1.77.07c-4.49.25-7.27.08-6.08.22a90,90,0,0,0,30.83-4.68l-4.2,1.3Z" transform="translate(-227.62 -342.91)"/><path class="cls-1" d="M830.55,607.45a108.16,108.16,0,0,1-20.74,1,105.18,105.18,0,0,1-27.76-5.32,118.1,118.1,0,0,0,12.93,3.5l4.66.87,4.29.58c2.89.31,6,.6,10.11.66,1,0,2.15,0,3.33,0s2.46-.06,3.82-.13C823.9,608.33,827,608.13,830.55,607.45Z" transform="translate(-227.62 -342.91)"/><path class="cls-1" d="M868.14,594.28a88.17,88.17,0,0,1-26.43,12.88c.47-.12,1.21-.33,2.14-.6l1.54-.47a14.81,14.81,0,0,0,1.76-.61l4-1.61c.7-.3,1.44-.57,2.16-.91l2.16-1c2.87-1.43,5.64-3,7.9-4.42S867.34,594.89,868.14,594.28Z" transform="translate(-227.62 -342.91)"/><path class="cls-1" d="M901,557.06c1-2.42,1.36-3.57,1.52-3.94s.07,0,0,.43c-.25.87-.53,2.1.67-1.76a32.68,32.68,0,0,0,1.28-8.7,27.71,27.71,0,0,0-1.39-8.85,31.78,31.78,0,0,0-9.53-13.89,23.27,23.27,0,0,0-7-4.11,15.16,15.16,0,0,0-8-.65,15,15,0,0,0-6.41,3.22,23.85,23.85,0,0,0-3.86,4.15,23.59,23.59,0,0,1,3.42-3.43,14,14,0,0,1,3.33-2.06c.84-.37,1.24-.39.79-.13a21,21,0,0,0-3.53,2.57,14.29,14.29,0,0,1,6.27-3.33,13.37,13.37,0,0,1,6.76.26,21.37,21.37,0,0,1,5.54,2.58A29.47,29.47,0,0,1,895,523a32.2,32.2,0,0,1,6,8.25,26,26,0,0,1,2.69,8.84,30.38,30.38,0,0,1-.25,8.3,36.52,36.52,0,0,1-2,7.22,50.43,50.43,0,0,1-6.42,11.8,98.53,98.53,0,0,1-19.52,21.82,99.07,99.07,0,0,0,11.4-10.57,73.87,73.87,0,0,0,5.24-6.4c1.29-1.76,2.35-3.35,3.74-5.54A69.46,69.46,0,0,0,901,557.06Z" transform="translate(-227.62 -342.91)"/><path class="cls-1" d="M849.15,602.86a90.42,90.42,0,0,0,16.5-8.45c-.8.47-.67.33.1-.23s2.18-1.53,3.91-2.8a118.64,118.64,0,0,0,11.6-9.75c-1.93,1.49-7.1,6.25-13.42,10.7A92.22,92.22,0,0,1,849.15,602.86Z" transform="translate(-227.62 -342.91)"/><path class="cls-1" d="M830.29,646.37c-1.31,6.38-2.5,12.8-3.39,19.3-.44,3.25-.79,6.53-1,9.85-.09,1.66-.13,3.34-.08,5a26.79,26.79,0,0,0,.59,5.23,30.55,30.55,0,0,1-.58-6.76c0-2.2.16-4.35.35-6.49A241.56,241.56,0,0,1,830.29,646.37Z" transform="translate(-227.62 -342.91)"/><path class="cls-1" d="M826,671.18l-.25,1a69.89,69.89,0,0,0-.24,9.3,25.39,25.39,0,0,0,.74,4.93,10.14,10.14,0,0,0,1.17,2.7,5.7,5.7,0,0,0,2.86,2.35,6.48,6.48,0,0,0,1.23.22l.62,0c.21,0,.44,0,.66-.06a8.25,8.25,0,0,0,2-.51,16.32,16.32,0,0,0,3-1.65,36.55,36.55,0,0,0,4.83-4.07,35.61,35.61,0,0,1-4.84,4,16.27,16.27,0,0,1-3,1.63,8.25,8.25,0,0,1-2,.51c-.21,0-.44,0-.65,0l-.61,0a6.38,6.38,0,0,1-1.22-.22,5.57,5.57,0,0,1-2.92-2.5,10.3,10.3,0,0,1-1.12-2.8,26.53,26.53,0,0,1-.66-5.17A73.42,73.42,0,0,1,826,671.18Z" transform="translate(-227.62 -342.91)"/><path class="cls-1" d="M849.71,677.94c-1,1.24-2,2.45-3,3.64a56.3,56.3,0,0,1-6.35,6.39,24.47,24.47,0,0,1-4,2.76,11.3,11.3,0,0,1-2.56,1,5.8,5.8,0,0,1-.77.17,9.28,9.28,0,0,1-1,.08l-1-.07c-.31-.05-.62-.14-.93-.2a8.94,8.94,0,0,1-1.12-.55,6.28,6.28,0,0,1-1-.79,7.19,7.19,0,0,1-1.34-1.91,13.22,13.22,0,0,1-1.06-3.38,12.84,12.84,0,0,0,1.06,3.38,7.13,7.13,0,0,0,1.33,1.91,6.17,6.17,0,0,0,1,.79,9.89,9.89,0,0,0,1.13.56,6.73,6.73,0,0,0,2.42.24,5.53,5.53,0,0,0,1.06-.18,6.85,6.85,0,0,0,.9-.26,14.11,14.11,0,0,0,3-1.49,31.4,31.4,0,0,0,4.64-3.7A72.69,72.69,0,0,0,849.71,677.94Z" transform="translate(-227.62 -342.91)"/><path class="cls-1" d="M871.7,600.38a33.46,33.46,0,0,1,2.11,7.42,42.79,42.79,0,0,1,.78,9.2,63.35,63.35,0,0,1-1,9.82c-1.1,6-2.57,10.36-2.12,9.49a78.12,78.12,0,0,0,3.18-18.78,45.86,45.86,0,0,0-.81-10.22A37.41,37.41,0,0,0,871.7,600.38Z" transform="translate(-227.62 -342.91)"/><path class="cls-1" d="M845.44,803.41c-.15-7-.28-2.83-.41,1.4l.38,11.17C845.39,812.66,845.35,806.11,845.44,803.41Z" transform="translate(-227.62 -342.91)"/><path class="cls-1" d="M844.83,850.38l.3,20.61-3.3,8.7,3.44-8.68c0-6.65,0-12.06,0-16.85,0-4.63-.08-8.67-.11-12.71-.08-8.07-.16-16.16-.19-29.1-.14,12.3.17,29.47.05,45Z" transform="translate(-227.62 -342.91)"/><path class="cls-1" d="M708.82,697.47c-.18,1.22.13.35-.2,1.61A24.51,24.51,0,0,1,707.2,703a17.37,17.37,0,0,1-2.14,3.57c-1.17,1.31-2,2.17-3.47,1,.14.12.29.19.41.28a1.68,1.68,0,0,0,.32.17,1.36,1.36,0,0,0,.66.12,2.25,2.25,0,0,0,1.34-.74,13.59,13.59,0,0,0,2.69-3.88,33,33,0,0,0,2.88-9.61,33.52,33.52,0,0,0,0-10,27.32,27.32,0,0,0-3.26-9.34,35,35,0,0,0-6.23-8.1,29.6,29.6,0,0,0-8.56-5.94,15.18,15.18,0,0,0-4.93-1.32,8.37,8.37,0,0,0-2.41.15,5.73,5.73,0,0,0-1.12.33l-1.13.53c-2.91,1.66-5.06,4.91-6.32,8.65,1-2.47-.64,1.75-1.13,5.51-.3,1.87-.41,3.55-.45,4,0,.22,0,.12.07-.42s.14-1.52.4-3a32.7,32.7,0,0,1,2.46-8.39,13.4,13.4,0,0,1,5.16-6,13.26,13.26,0,0,1,1.7-.72,7.06,7.06,0,0,1,1.81-.26,11.88,11.88,0,0,1,3.93.59,24.92,24.92,0,0,1,7.55,4.12,27.16,27.16,0,0,0-4.49-2.68,31,31,0,0,1,6.3,4.51,37.74,37.74,0,0,1,3.78,4,34.5,34.5,0,0,1,4,6.06,25.19,25.19,0,0,1,2.46,7.07,30.25,30.25,0,0,1,.5,5.88A35.16,35.16,0,0,1,708.82,697.47Z" transform="translate(-227.62 -342.91)"/><path class="cls-1" d="M395.63,934.56c3.5-.14-1-.26-5.56-.38C367.63,934.33,400.15,934.53,395.63,934.56Z" transform="translate(-227.62 -342.91)"/></svg>