<svg width="48" height="48" fill="none" xmlns="http://www.w3.org/2000/svg"><path d="M20.174 11.74 22 13.542l-1.826 4.812v8.417L22 33.134V40L8.6 26.771 6.776 24.97A9.295 9.295 0 0 1 4 18.354c0-2.48.998-4.86 2.775-6.614a9.537 9.537 0 0 1 6.7-2.74c2.513 0 4.923.986 6.7 2.74zM27.924 11.74l-1.701 1.802L24 18.354v8.417l2.223 6.363V40l12.489-13.229 1.701-1.802C42.07 23.214 43 20.835 43 18.354c0-2.48-.93-4.86-2.587-6.614C38.757 9.986 36.511 9 34.17 9c-2.342 0-4.588.986-6.245 2.74z" fill="#1A1A1A"/></svg>