<svg width="48" height="48" viewBox="0 0 48 48" fill="none" xmlns="http://www.w3.org/2000/svg">
<path d="M20.1744 11.7398L22 13.5422L20.1744 18.3542V26.7711L22 33.1344V40L8.6007 26.7711L6.77509 24.9687C4.99823 23.2144 4 20.8351 4 18.3542C4 15.8733 4.99823 13.4941 6.77509 11.7398C8.55194 9.98553 10.9619 9 13.4747 9C15.9876 9 18.3975 9.98553 20.1744 11.7398Z" fill="#1A1A1A"/>
<path d="M27.9243 11.7398L26.2227 13.5422L24 18.3542V26.7711L26.2227 33.1344V40L38.7118 26.7711L40.4134 24.9687C42.0696 23.2144 43 20.8351 43 18.3542C43 15.8733 42.0696 13.4941 40.4134 11.7398C38.7573 9.98553 36.511 9 34.1689 9C31.8267 9 29.5805 9.98553 27.9243 11.7398Z" fill="#1A1A1A"/>
</svg>
