<svg width="10" height="10" fill="none" xmlns="http://www.w3.org/2000/svg"><g clip-path="url(#a)"><path opacity=".36" d="M10.85 5.714c0 1.042-.468 1.875-1.04 1.875-.574 0-1.042-.833-1.042-1.875 0-1.041.468-1.875 1.041-1.875s1.042.834 1.042 1.875z" fill="#fff"/><path d="M10 6.62C8.339 8.337 6.403 10.112 4 9.5 1.666 8.905.599 6.13 0 4c.68 1.425 1.896 2.837 4.5 3.5 3.112.793 3.81.116 5.5-.88zM8 3c0 1.111-.45 2-1 2s-1-.889-1-2 .45-2 1-2 1 .889 1 2zM1 3C1.673.383 3.394.315 4 2.91 2.932 1.57 1.95 1.956 1 3z" fill="#003B48"/></g><defs><clipPath id="a"><path fill="#fff" d="M0 0h10v10H0z"/></clipPath></defs></svg>