{
    "asset" : {
        "generator" : "Khronos glTF Blender I/O v1.8.19",
        "version" : "2.0"
    },
    "scene" : 0,
    "scenes" : [
        {
            "name" : "Scene",
            "nodes" : [
                0,
                1,
                2,
                3
            ]
        }
    ],
    "nodes" : [
        {
            "mesh" : 0,
            "name" : "Sphere.004",
            "rotation" : [
                -0.07444356381893158,
                -0.03513941541314125,
                0.010780449025332928,
                0.9965476393699646
            ],
            "scale" : [
                1.573725700378418,
                1.8009623289108276,
                1.573725938796997
            ],
            "translation" : [
                -27.715782165527344,
                6.432777404785156,
                0.68206787109375
            ]
        },
        {
            "name" : "Empty",
            "scale" : [
                4.720944404602051,
                4.720944404602051,
                4.720944404602051
            ],
            "translation" : [
                0,
                -12.289995193481445,
                0.5821577310562134
            ]
        },
        {
            "name" : "Empty.001",
            "scale" : [
                4.720944404602051,
                4.720944404602051,
                4.720944404602051
            ],
            "translation" : [
                0,
                0,
                -27.067995071411133
            ]
        },
        {
            "mesh" : 1,
            "name" : "Sphere.016",
            "rotation" : [
                0.003361712209880352,
                -0.5096890330314636,
                0.010762592777609825,
                0.8602848052978516
            ],
            "scale" : [
                1.6444215774536133,
                1.881866216659546,
                1.6444218158721924
            ],
            "translation" : [
                -0.13058090209960938,
                -6.191822528839111,
                0.045700911432504654
            ]
        }
    ],
    "materials" : [
        {
            "doubleSided" : true,
            "emissiveFactor" : [
                1,
                1,
                1
            ],
            "emissiveTexture" : {
                "index" : 0
            },
            "name" : "Lys.002",
            "pbrMetallicRoughness" : {}
        },
        {
            "doubleSided" : true,
            "emissiveFactor" : [
                1,
                1,
                1
            ],
            "emissiveTexture" : {
                "index" : 1
            },
            "name" : "Lys.003",
            "pbrMetallicRoughness" : {}
        },
        {
            "doubleSided" : true,
            "emissiveFactor" : [
                1,
                0.986005961894989,
                0.31707748770713806
            ],
            "name" : "LysPistyl",
            "pbrMetallicRoughness" : {}
        },
        {
            "doubleSided" : true,
            "emissiveFactor" : [
                1,
                1,
                1
            ],
            "emissiveTexture" : {
                "index" : 2
            },
            "name" : "LysP\u00e9tale",
            "pbrMetallicRoughness" : {}
        }
    ],
    "meshes" : [
        {
            "name" : "Sphere.004",
            "primitives" : [
                {
                    "attributes" : {
                        "POSITION" : 0,
                        "NORMAL" : 1,
                        "TEXCOORD_0" : 2,
                        "COLOR_0" : 3
                    },
                    "indices" : 4,
                    "material" : 0
                },
                {
                    "attributes" : {
                        "POSITION" : 5,
                        "NORMAL" : 6,
                        "TEXCOORD_0" : 7,
                        "COLOR_0" : 8
                    },
                    "indices" : 9,
                    "material" : 1
                }
            ]
        },
        {
            "name" : "Sphere.017",
            "primitives" : [
                {
                    "attributes" : {
                        "POSITION" : 10,
                        "NORMAL" : 11,
                        "TEXCOORD_0" : 12,
                        "COLOR_0" : 13
                    },
                    "indices" : 14,
                    "material" : 2
                },
                {
                    "attributes" : {
                        "POSITION" : 15,
                        "NORMAL" : 16,
                        "TEXCOORD_0" : 17,
                        "COLOR_0" : 18
                    },
                    "indices" : 19,
                    "material" : 3
                }
            ]
        }
    ],
    "textures" : [
        {
            "sampler" : 0,
            "source" : 0
        },
        {
            "sampler" : 0,
            "source" : 1
        },
        {
            "sampler" : 0,
            "source" : 2
        }
    ],
    "images" : [
        {
            "mimeType" : "image/png",
            "name" : "Lys Base Color.003AVECJESS4",
            "uri" : "Lys%20Base%20Color_003AVECJESS4.png"
        },
        {
            "mimeType" : "image/png",
            "name" : "Lys Base Color.0032",
            "uri" : "Lys%20Base%20Color_0032.png"
        },
        {
            "mimeType" : "image/jpeg",
            "name" : "Lys v3",
            "uri" : "Lys%20v3.jpg"
        }
    ],
    "accessors" : [
        {
            "bufferView" : 0,
            "componentType" : 5126,
            "count" : 9652,
            "max" : [
                5.950350761413574,
                6.082278251647949,
                5.956035614013672
            ],
            "min" : [
                -5.971890449523926,
                -4.616126537322998,
                -5.94528865814209
            ],
            "type" : "VEC3"
        },
        {
            "bufferView" : 1,
            "componentType" : 5126,
            "count" : 9652,
            "type" : "VEC3"
        },
        {
            "bufferView" : 2,
            "componentType" : 5126,
            "count" : 9652,
            "type" : "VEC2"
        },
        {
            "bufferView" : 3,
            "componentType" : 5123,
            "count" : 9652,
            "normalized" : true,
            "type" : "VEC4"
        },
        {
            "bufferView" : 4,
            "componentType" : 5123,
            "count" : 22380,
            "type" : "SCALAR"
        },
        {
            "bufferView" : 5,
            "componentType" : 5126,
            "count" : 2830,
            "max" : [
                0.5996154546737671,
                4.336005687713623,
                0.6408125758171082
            ],
            "min" : [
                -0.8577626943588257,
                0.9313805103302002,
                -0.8244768381118774
            ],
            "type" : "VEC3"
        },
        {
            "bufferView" : 6,
            "componentType" : 5126,
            "count" : 2830,
            "type" : "VEC3"
        },
        {
            "bufferView" : 7,
            "componentType" : 5126,
            "count" : 2830,
            "type" : "VEC2"
        },
        {
            "bufferView" : 8,
            "componentType" : 5123,
            "count" : 2830,
            "normalized" : true,
            "type" : "VEC4"
        },
        {
            "bufferView" : 9,
            "componentType" : 5123,
            "count" : 4548,
            "type" : "SCALAR"
        },
        {
            "bufferView" : 10,
            "componentType" : 5126,
            "count" : 2830,
            "max" : [
                0.2899188697338104,
                5.334355354309082,
                2.0247247219085693
            ],
            "min" : [
                -1.170278549194336,
                0.9848510026931763,
                -0.6904962062835693
            ],
            "type" : "VEC3"
        },
        {
            "bufferView" : 11,
            "componentType" : 5126,
            "count" : 2830,
            "type" : "VEC3"
        },
        {
            "bufferView" : 12,
            "componentType" : 5126,
            "count" : 2830,
            "type" : "VEC2"
        },
        {
            "bufferView" : 13,
            "componentType" : 5123,
            "count" : 2830,
            "normalized" : true,
            "type" : "VEC4"
        },
        {
            "bufferView" : 14,
            "componentType" : 5123,
            "count" : 4548,
            "type" : "SCALAR"
        },
        {
            "bufferView" : 15,
            "componentType" : 5126,
            "count" : 15068,
            "max" : [
                5.802404880523682,
                6.954354286193848,
                7.261980056762695
            ],
            "min" : [
                -6.23575496673584,
                -5.759423732757568,
                -3.9743902683258057
            ],
            "type" : "VEC3"
        },
        {
            "bufferView" : 16,
            "componentType" : 5126,
            "count" : 15068,
            "type" : "VEC3"
        },
        {
            "bufferView" : 17,
            "componentType" : 5126,
            "count" : 15068,
            "type" : "VEC2"
        },
        {
            "bufferView" : 18,
            "componentType" : 5123,
            "count" : 15068,
            "normalized" : true,
            "type" : "VEC4"
        },
        {
            "bufferView" : 19,
            "componentType" : 5123,
            "count" : 34524,
            "type" : "SCALAR"
        }
    ],
    "bufferViews" : [
        {
            "buffer" : 0,
            "byteLength" : 115824,
            "byteOffset" : 0
        },
        {
            "buffer" : 0,
            "byteLength" : 115824,
            "byteOffset" : 115824
        },
        {
            "buffer" : 0,
            "byteLength" : 77216,
            "byteOffset" : 231648
        },
        {
            "buffer" : 0,
            "byteLength" : 77216,
            "byteOffset" : 308864
        },
        {
            "buffer" : 0,
            "byteLength" : 44760,
            "byteOffset" : 386080
        },
        {
            "buffer" : 0,
            "byteLength" : 33960,
            "byteOffset" : 430840
        },
        {
            "buffer" : 0,
            "byteLength" : 33960,
            "byteOffset" : 464800
        },
        {
            "buffer" : 0,
            "byteLength" : 22640,
            "byteOffset" : 498760
        },
        {
            "buffer" : 0,
            "byteLength" : 22640,
            "byteOffset" : 521400
        },
        {
            "buffer" : 0,
            "byteLength" : 9096,
            "byteOffset" : 544040
        },
        {
            "buffer" : 0,
            "byteLength" : 33960,
            "byteOffset" : 553136
        },
        {
            "buffer" : 0,
            "byteLength" : 33960,
            "byteOffset" : 587096
        },
        {
            "buffer" : 0,
            "byteLength" : 22640,
            "byteOffset" : 621056
        },
        {
            "buffer" : 0,
            "byteLength" : 22640,
            "byteOffset" : 643696
        },
        {
            "buffer" : 0,
            "byteLength" : 9096,
            "byteOffset" : 666336
        },
        {
            "buffer" : 0,
            "byteLength" : 180816,
            "byteOffset" : 675432
        },
        {
            "buffer" : 0,
            "byteLength" : 180816,
            "byteOffset" : 856248
        },
        {
            "buffer" : 0,
            "byteLength" : 120544,
            "byteOffset" : 1037064
        },
        {
            "buffer" : 0,
            "byteLength" : 120544,
            "byteOffset" : 1157608
        },
        {
            "buffer" : 0,
            "byteLength" : 69048,
            "byteOffset" : 1278152
        }
    ],
    "samplers" : [
        {
            "magFilter" : 9729,
            "minFilter" : 9987
        }
    ],
    "buffers" : [
        {
            "byteLength" : 1347200,
            "uri" : "lys.bin"
        }
    ]
}
