{
    "asset" : {
        "generator" : "Khronos glTF Blender I/O v1.8.19",
        "version" : "2.0"
    },
    "scene" : 0,
    "scenes" : [
        {
            "name" : "Scene",
            "nodes" : [
                0
            ]
        }
    ],
    "nodes" : [
        {
            "mesh" : 0,
            "name" : "Plane.013",
            "rotation" : [
                -0.022391894832253456,
                0.9663184285163879,
                -0.005939187481999397,
                0.25630462169647217
            ],
            "scale" : [
                -0.17652446031570435,
                0.025112124159932137,
                0.025112124159932137
            ],
            "translation" : [
                0.08384393155574799,
                0.009545971639454365,
                0.05063427984714508
            ]
        }
    ],
    "materials" : [
        {
            "doubleSided" : true,
            "emissiveFactor" : [
                1,
                1,
                1
            ],
            "emissiveTexture" : {
                "index" : 0
            },
            "name" : "Daisy",
            "pbrMetallicRoughness" : {}
        }
    ],
    "meshes" : [
        {
            "name" : "Plane.043",
            "primitives" : [
                {
                    "attributes" : {
                        "POSITION" : 0,
                        "NORMAL" : 1,
                        "TEXCOORD_0" : 2,
                        "COLOR_0" : 3
                    },
                    "indices" : 4,
                    "material" : 0
                }
            ]
        }
    ],
    "textures" : [
        {
            "sampler" : 0,
            "source" : 0
        }
    ],
    "images" : [
        {
            "mimeType" : "image/jpeg",
            "name" : "daisy text",
            "uri" : "daisy%20text.jpg"
        }
    ],
    "accessors" : [
        {
            "bufferView" : 0,
            "componentType" : 5126,
            "count" : 3371,
            "max" : [
                0.9617466926574707,
                4.22209358215332,
                18.724042892456055
            ],
            "min" : [
                -4.365271091461182,
                -54.47101974487305,
                -17.79073715209961
            ],
            "type" : "VEC3"
        },
        {
            "bufferView" : 1,
            "componentType" : 5126,
            "count" : 3371,
            "type" : "VEC3"
        },
        {
            "bufferView" : 2,
            "componentType" : 5126,
            "count" : 3371,
            "type" : "VEC2"
        },
        {
            "bufferView" : 3,
            "componentType" : 5123,
            "count" : 3371,
            "normalized" : true,
            "type" : "VEC4"
        },
        {
            "bufferView" : 4,
            "componentType" : 5123,
            "count" : 10896,
            "type" : "SCALAR"
        }
    ],
    "bufferViews" : [
        {
            "buffer" : 0,
            "byteLength" : 40452,
            "byteOffset" : 0
        },
        {
            "buffer" : 0,
            "byteLength" : 40452,
            "byteOffset" : 40452
        },
        {
            "buffer" : 0,
            "byteLength" : 26968,
            "byteOffset" : 80904
        },
        {
            "buffer" : 0,
            "byteLength" : 26968,
            "byteOffset" : 107872
        },
        {
            "buffer" : 0,
            "byteLength" : 21792,
            "byteOffset" : 134840
        }
    ],
    "samplers" : [
        {
            "magFilter" : 9729,
            "minFilter" : 9987
        }
    ],
    "buffers" : [
        {
            "byteLength" : 156632,
            "uri" : "Daisy v2.bin"
        }
    ]
}
