<svg width="18" height="19" fill="none" xmlns="http://www.w3.org/2000/svg"><g filter="url(#a)"><path d="M15.535 9.878a4.711 4.711 0 0 0-.934-.378c.324-.092.638-.22.934-.378a2.849 2.849 0 0 0 1.365-1.72c.201-.727.096-1.5-.292-2.152a2.917 2.917 0 0 0-1.777-1.321 3.012 3.012 0 0 0-2.222.282 4.76 4.76 0 0 0-.805.59c.076-.317.117-.642.122-.968 0-.751-.308-1.472-.857-2.003A2.976 2.976 0 0 0 9 1c-.776 0-1.52.299-2.07.83a2.789 2.789 0 0 0-.856 2.003c.005.326.046.65.122.968a4.76 4.76 0 0 0-.805-.59 3.012 3.012 0 0 0-2.222-.282c-.75.194-1.39.67-1.777 1.321A2.756 2.756 0 0 0 1.1 7.401a2.849 2.849 0 0 0 1.365 1.721c.296.159.61.286.935.378a4.71 4.71 0 0 0-.935.378 2.849 2.849 0 0 0-1.365 1.72c-.201.727-.096 1.5.292 2.152a2.917 2.917 0 0 0 1.777 1.321c.75.195 1.55.094 2.222-.282a4.76 4.76 0 0 0 .805-.59 4.473 4.473 0 0 0-.122.968c0 .751.308 1.472.857 2.003.549.531 1.293.83 2.069.83s1.52-.299 2.07-.83a2.789 2.789 0 0 0 .856-2.003 4.47 4.47 0 0 0-.122-.968c.246.223.516.421.805.59a3.012 3.012 0 0 0 2.222.282c.75-.194 1.39-.67 1.777-1.321a2.757 2.757 0 0 0 .292-2.151 2.849 2.849 0 0 0-1.365-1.721zM7.375 9.5c0-.311.095-.616.273-.875.179-.258.433-.46.73-.58.297-.118.624-.15.94-.089.315.06.604.21.832.431.227.22.382.5.444.806.063.305.031.622-.092.91a1.586 1.586 0 0 1-.599.706 1.664 1.664 0 0 1-2.05-.198A1.557 1.557 0 0 1 7.374 9.5zm5.884-4.195c.372-.188.804-.23 1.207-.117.402.113.745.373.954.724.21.352.272.768.172 1.162-.1.395-.353.736-.707.954-.553.307-1.634.551-3.073.7a2.828 2.828 0 0 0-.715-1.203c.854-1.134 1.61-1.913 2.162-2.22zM9 2.26c.43.002.843.169 1.147.464.305.294.476.694.479 1.11 0 .614-.317 1.645-.91 2.92a3.002 3.002 0 0 0-1.431 0c-.594-1.275-.91-2.306-.91-2.92.001-.417.173-.816.478-1.11A1.661 1.661 0 0 1 9 2.259zM2.522 5.88c.216-.36.57-.623.986-.731.416-.108.86-.051 1.233.157.552.307 1.308 1.086 2.162 2.22a2.829 2.829 0 0 0-.715 1.204c-1.44-.15-2.52-.394-3.073-.7a1.582 1.582 0 0 1-.756-.956 1.53 1.53 0 0 1 .163-1.193zm2.219 7.816c-.372.188-.804.23-1.207.117a1.618 1.618 0 0 1-.954-.724 1.53 1.53 0 0 1-.172-1.162c.1-.395.353-.736.707-.954.553-.307 1.634-.551 3.073-.7.132.452.377.865.715 1.204-.854 1.133-1.61 1.912-2.162 2.219zM9 16.74a1.66 1.66 0 0 1-1.147-.464 1.557 1.557 0 0 1-.479-1.11c0-.614.317-1.645.91-2.92.47.115.962.115 1.431 0 .594 1.275.91 2.306.91 2.92a1.557 1.557 0 0 1-.478 1.11A1.66 1.66 0 0 1 9 16.741zm6.478-3.62a1.62 1.62 0 0 1-.986.731c-.417.108-.86.051-1.233-.157-.552-.307-1.308-1.086-2.162-2.22.338-.338.583-.751.715-1.204 1.44.15 2.52.394 3.073.7.373.21.644.553.756.956.11.403.053.832-.163 1.193z" fill="#fff"/></g><path d="M15.535 9.878a4.711 4.711 0 0 0-.934-.378c.324-.092.638-.22.934-.378a2.849 2.849 0 0 0 1.365-1.72c.201-.727.096-1.5-.292-2.152a2.917 2.917 0 0 0-1.777-1.321 3.012 3.012 0 0 0-2.222.282 4.76 4.76 0 0 0-.805.59c.076-.317.117-.642.122-.968 0-.751-.308-1.472-.857-2.003A2.976 2.976 0 0 0 9 1c-.776 0-1.52.299-2.07.83a2.789 2.789 0 0 0-.856 2.003c.005.326.046.65.122.968a4.76 4.76 0 0 0-.805-.59 3.012 3.012 0 0 0-2.222-.282c-.75.194-1.39.67-1.777 1.321A2.756 2.756 0 0 0 1.1 7.401a2.849 2.849 0 0 0 1.365 1.721c.296.159.61.286.935.378a4.71 4.71 0 0 0-.935.378 2.849 2.849 0 0 0-1.365 1.72c-.201.727-.096 1.5.292 2.152a2.917 2.917 0 0 0 1.777 1.321c.75.195 1.55.094 2.222-.282a4.76 4.76 0 0 0 .805-.59 4.473 4.473 0 0 0-.122.968c0 .751.308 1.472.857 2.003.549.531 1.293.83 2.069.83s1.52-.299 2.07-.83a2.789 2.789 0 0 0 .856-2.003 4.47 4.47 0 0 0-.122-.968c.246.223.516.421.805.59a3.012 3.012 0 0 0 2.222.282c.75-.194 1.39-.67 1.777-1.321a2.757 2.757 0 0 0 .292-2.151 2.849 2.849 0 0 0-1.365-1.721zM7.375 9.5c0-.311.095-.616.273-.875.179-.258.433-.46.73-.58.297-.118.624-.15.94-.089.315.06.604.21.832.431.227.22.382.5.444.806.063.305.031.622-.092.91a1.586 1.586 0 0 1-.599.706 1.664 1.664 0 0 1-2.05-.198A1.557 1.557 0 0 1 7.374 9.5zm5.884-4.195c.372-.188.804-.23 1.207-.117.402.113.745.373.954.724.21.352.272.768.172 1.162-.1.395-.353.736-.707.954-.553.307-1.634.551-3.073.7a2.828 2.828 0 0 0-.715-1.203c.854-1.134 1.61-1.913 2.162-2.22zM9 2.26c.43.002.843.169 1.147.464.305.294.476.694.479 1.11 0 .614-.317 1.645-.91 2.92a3.002 3.002 0 0 0-1.431 0c-.594-1.275-.91-2.306-.91-2.92.001-.417.173-.816.478-1.11A1.661 1.661 0 0 1 9 2.259zM2.522 5.88c.216-.36.57-.623.986-.731.416-.108.86-.051 1.233.157.552.307 1.308 1.086 2.162 2.22a2.829 2.829 0 0 0-.715 1.204c-1.44-.15-2.52-.394-3.073-.7a1.582 1.582 0 0 1-.756-.956 1.53 1.53 0 0 1 .163-1.193zm2.219 7.816c-.372.188-.804.23-1.207.117a1.618 1.618 0 0 1-.954-.724 1.53 1.53 0 0 1-.172-1.162c.1-.395.353-.736.707-.954.553-.307 1.634-.551 3.073-.7.132.452.377.865.715 1.204-.854 1.133-1.61 1.912-2.162 2.219zM9 16.74a1.66 1.66 0 0 1-1.147-.464 1.557 1.557 0 0 1-.479-1.11c0-.614.317-1.645.91-2.92.47.115.962.115 1.431 0 .594 1.275.91 2.306.91 2.92a1.557 1.557 0 0 1-.478 1.11A1.66 1.66 0 0 1 9 16.741zm6.478-3.62a1.62 1.62 0 0 1-.986.731c-.417.108-.86.051-1.233-.157-.552-.307-1.308-1.086-2.162-2.22.338-.338.583-.751.715-1.204 1.44.15 2.52.394 3.073.7.373.21.644.553.756.956.11.403.053.832-.163 1.193z" fill="#fff"/><defs><filter id="a" x="0" y="0" width="18" height="19" filterUnits="userSpaceOnUse" color-interpolation-filters="sRGB"><feFlood flood-opacity="0" result="BackgroundImageFix"/><feBlend in="SourceGraphic" in2="BackgroundImageFix" result="shape"/><feGaussianBlur stdDeviation=".5" result="effect1_foregroundBlur_1239_167"/></filter></defs></svg>