<svg width="16" height="16" fill="none" xmlns="http://www.w3.org/2000/svg"><g clip-path="url(#a)"><g filter="url(#b)"><path fill-rule="evenodd" clip-rule="evenodd" d="M12.57 8.889c0 .51-.074 1.03-.207 1.54v.01l-.003-.001a5.397 5.397 0 0 1-.47-.216H4.11c-.16.083-.317.154-.47.216h-.003v-.01a6.154 6.154 0 0 1-.206-1.54c0-1.848.943-3.012 2.337-3.57a3.754 3.754 0 0 1-.296-1.422c0-.703.22-1.111.585-1.348-.485-.214-1.118-.667-1.345-.894-.348-.347-.418-.84-.158-1.1.26-.26.753-.19 1.1.157.272.272.866 1.125.988 1.609.393-.087.858-.098 1.358-.098.5 0 .965.011 1.358.098.122-.484.717-1.337.988-1.608.348-.348.84-.418 1.1-.158.26.26.19.753-.157 1.1-.227.227-.86.68-1.345.894.364.237.584.645.584 1.348 0 .485-.11.974-.296 1.422 1.394.558 2.337 1.722 2.337 3.57zm-8.397 2.947c.625 1.225 1.6 2.235 2.744 2.639a4.134 4.134 0 0 1-1.21-.697h4.587a4.1 4.1 0 0 1-1.283.722c1.179-.387 2.184-1.42 2.822-2.677-.03.06-.061.118-.093.177H4.26a7.09 7.09 0 0 1-.087-.164zm4.27 2.799a3.106 3.106 0 0 1-.887 0v.032c0 .736.199 1.333.444 1.333.246 0 .444-.597.444-1.333a.382.382 0 0 0 0-.032zM9.5 8.445h-3c.65-.633 1.162-1.281 1.38-1.778h.24c.218.497.73 1.145 1.38 1.777z" fill="#fff"/></g><g filter="url(#c)"><path d="M8 6.002C8 7.18 4.508 9.817 2.667 9.817.826 9.817 0 8.732 0 7.555 0 6.38.826 5.557 2.667 5.557c1.841 0 5.333-.73 5.333.445zm0 0c0 1.177 3.492 3.815 5.333 3.815C15.175 9.817 16 8.732 16 7.555c0-1.176-.825-1.998-2.667-1.998-1.841 0-5.333-.73-5.333.445z" fill="#fff"/></g><path fill-rule="evenodd" clip-rule="evenodd" d="M12.57 8.889c0 .51-.074 1.03-.207 1.54v.01l-.003-.001a5.397 5.397 0 0 1-.47-.216H4.11c-.16.083-.317.154-.47.216h-.003v-.01a6.154 6.154 0 0 1-.206-1.54c0-1.848.943-3.012 2.337-3.57a3.754 3.754 0 0 1-.296-1.422c0-.703.22-1.111.585-1.348-.485-.214-1.118-.667-1.345-.894-.348-.347-.418-.84-.158-1.1.26-.26.753-.19 1.1.157.272.272.866 1.125.988 1.609.393-.087.858-.098 1.358-.098.5 0 .965.011 1.358.098.122-.484.717-1.337.988-1.608.348-.348.84-.418 1.1-.158.26.26.19.753-.157 1.1-.227.227-.86.68-1.345.894.364.237.584.645.584 1.348 0 .485-.11.974-.296 1.422 1.394.558 2.337 1.722 2.337 3.57zm-8.397 2.947c.625 1.225 1.6 2.235 2.744 2.639a4.137 4.137 0 0 1-1.21-.697h4.587a4.1 4.1 0 0 1-1.283.722c1.18-.388 2.185-1.42 2.822-2.677-.03.06-.061.118-.093.177H4.26a7.09 7.09 0 0 1-.087-.164zm4.27 2.799a3.106 3.106 0 0 1-.887 0v.032c0 .736.199 1.333.444 1.333.246 0 .444-.597.444-1.333a.382.382 0 0 0 0-.032zM9.5 8.445h-3c.65-.633 1.162-1.281 1.38-1.778h.24c.218.497.73 1.145 1.38 1.777z" fill="#fff"/><path d="M8 6.002C8 7.18 4.508 9.817 2.667 9.817.826 9.817 0 8.732 0 7.555 0 6.38.826 5.557 2.667 5.557c1.841 0 5.333-.73 5.333.445zm0 0c0 1.177 3.492 3.815 5.333 3.815C15.175 9.817 16 8.732 16 7.555c0-1.176-.825-1.998-2.667-1.998-1.841 0-5.333-.73-5.333.445z" fill="#fff"/></g><defs><filter id="b" x="2.431" y="-.603" width="11.139" height="17.603" filterUnits="userSpaceOnUse" color-interpolation-filters="sRGB"><feFlood flood-opacity="0" result="BackgroundImageFix"/><feBlend in="SourceGraphic" in2="BackgroundImageFix" result="shape"/><feGaussianBlur stdDeviation=".5" result="effect1_foregroundBlur_1184_362"/></filter><filter id="c" x="-1" y="4.333" width="18" height="6.484" filterUnits="userSpaceOnUse" color-interpolation-filters="sRGB"><feFlood flood-opacity="0" result="BackgroundImageFix"/><feBlend in="SourceGraphic" in2="BackgroundImageFix" result="shape"/><feGaussianBlur stdDeviation=".5" result="effect1_foregroundBlur_1184_362"/></filter><clipPath id="a"><path fill="#fff" d="M0 0h16v16H0z"/></clipPath></defs></svg>