<svg width="16" height="16" fill="none" xmlns="http://www.w3.org/2000/svg"><g clip-path="url(#a)" fill="#fff"><g filter="url(#b)"><mask id="c"><path d="M10.8 15.6s-5.2.4-8-2.795S0 .025 0 .025s9.6-.4 12.8 1.997c3.2 2.396 2.4 9.186 2.4 9.186"/></mask><path d="M10.915 17.096a1.5 1.5 0 0 0-.23-2.99l.23 2.99zM0 .025l-.062-1.499A1.5 1.5 0 0 0-1.5.025H0zm13.71 11.007a1.5 1.5 0 0 0 2.98.351l-2.98-.35zm-2.91 4.569a251.675 251.675 0 0 1-.114-1.496h.003-.003a3.734 3.734 0 0 1-.162.008 12.171 12.171 0 0 1-2.406-.187c-1.497-.273-3.11-.877-4.19-2.11l-2.256 1.978c1.72 1.963 4.108 2.756 5.91 3.083a15.141 15.141 0 0 0 3.037.234 8.971 8.971 0 0 0 .265-.012l.02-.002H10.913L10.8 15.6zm-6.872-3.784c-.485-.554-.935-1.503-1.307-2.777-.363-1.244-.613-2.655-.783-4.01A45.95 45.95 0 0 1 1.5.029V.025h-3V.06a19.253 19.253 0 0 0 .006.414 48.954 48.954 0 0 0 .356 4.93c.18 1.441.455 3.024.88 4.477.415 1.421 1.015 2.869 1.93 3.913l2.256-1.977zM0 .025l.062 1.499h.004l.018-.001a16.483 16.483 0 0 1 .37-.01 50.735 50.735 0 0 1 4.64.109c1.36.096 2.78.264 4.031.541 1.289.286 2.236.655 2.776 1.06L13.7.82C12.64.028 11.187-.452 9.775-.765c-1.449-.322-3.028-.504-4.468-.606a53.727 53.727 0 0 0-5.335-.104h-.024a2.542 2.542 0 0 0-.01.001L0 .025zm11.901 3.198c1.052.787 1.612 2.491 1.807 4.44a17.816 17.816 0 0 1 .008 3.317l-.005.045v.008s0 .001 0 0l1.49.175 1.489.174v-.003l.001-.007.003-.02a7.366 7.366 0 0 0 .03-.318 20.802 20.802 0 0 0-.03-3.67c-.206-2.046-.846-4.934-2.995-6.543l-1.798 2.402z" mask="url(#c)"/></g><g filter="url(#d)"><mask id="e"><path d="M16 16s-4.472-3.374-7.2-6.39c-2.728-3.016-4-5.99-4-5.99"/></mask><path d="M15.097 17.198a1.5 1.5 0 1 0 1.807-2.395l-1.807 2.395zM6.179 3.03a1.5 1.5 0 1 0-2.758 1.179l2.758-1.18zM16 16l.904-1.197-.003-.002a.884.884 0 0 0-.043-.033c-.032-.024-.08-.06-.141-.108a78.452 78.452 0 0 1-2.331-1.875c-1.444-1.207-3.18-2.751-4.474-4.181l-2.225 2.012c1.435 1.586 3.299 3.237 4.774 4.47a81.17 81.17 0 0 0 2.58 2.069c.017.013.03.024.04.03l.011.01.003.001.001.001L16 16zM9.912 8.604a23.927 23.927 0 0 1-2.842-3.88c-.31-.527-.537-.962-.685-1.26a12.627 12.627 0 0 1-.206-.435v-.002.002l-1.38.59-1.378.59v.003a.666.666 0 0 1 .022.05l.054.118c.046.1.113.241.2.418.176.354.437.852.787 1.446a26.928 26.928 0 0 0 3.203 4.372l2.225-2.012z" mask="url(#e)"/></g><mask id="f"><path d="M10.8 15.6s-5.2.4-8-2.795S0 .025 0 .025s9.6-.4 12.8 1.997c3.2 2.396 2.4 9.186 2.4 9.186"/></mask><path d="M10.915 17.096a1.5 1.5 0 0 0-.23-2.99l.23 2.99zM0 .025l-.062-1.499A1.5 1.5 0 0 0-1.5.025H0zm13.71 11.007a1.5 1.5 0 0 0 2.98.351l-2.98-.35zm-2.91 4.569-.114-1.496h.003-.003l-.028.002a9.902 9.902 0 0 1-.68.007 12.156 12.156 0 0 1-1.86-.189c-1.497-.272-3.11-.876-4.19-2.109l-2.256 1.978c1.72 1.963 4.108 2.756 5.91 3.083a15.167 15.167 0 0 0 3.037.234 8.87 8.87 0 0 0 .265-.012l.02-.002H10.913L10.8 15.6zm-6.872-3.785c-.485-.553-.935-1.502-1.307-2.776-.363-1.244-.613-2.655-.783-4.01A45.95 45.95 0 0 1 1.5.047V.025h-3V.06a17.897 17.897 0 0 0 .006.414 48.949 48.949 0 0 0 .356 4.93c.18 1.441.455 3.024.88 4.477.415 1.421 1.015 2.869 1.93 3.913l2.256-1.978zM0 .025l.062 1.499a.606.606 0 0 1 .022-.001 16.134 16.134 0 0 1 .37-.01 50.735 50.735 0 0 1 4.64.109c1.36.096 2.78.264 4.031.541 1.289.286 2.236.655 2.776 1.06L13.7.82C12.64.028 11.187-.452 9.775-.765c-1.449-.322-3.028-.504-4.468-.606A53.733 53.733 0 0 0-.06-1.474h-.002L0 .025zm11.901 3.198c1.052.787 1.611 2.491 1.807 4.44a17.797 17.797 0 0 1 .003 3.362v.008s0 .001 0 0l1.49.175 1.489.174v-.003l.001-.007.003-.02a7.366 7.366 0 0 0 .03-.318 20.785 20.785 0 0 0-.03-3.67c-.206-2.046-.846-4.934-2.995-6.543l-1.798 2.402z" mask="url(#f)"/><mask id="g"><path d="M16 16s-4.472-3.374-7.2-6.39c-2.728-3.016-4-5.99-4-5.99"/></mask><path d="M15.097 17.198a1.5 1.5 0 1 0 1.807-2.395l-1.807 2.395zM6.179 3.03a1.5 1.5 0 0 0-2.758 1.179l2.758-1.18zM16 16l.904-1.197-.003-.002-.008-.006-.035-.027c-.032-.024-.08-.06-.14-.108a78.206 78.206 0 0 1-2.332-1.875c-1.443-1.207-3.18-2.751-4.474-4.181l-2.225 2.012c1.435 1.586 3.299 3.237 4.774 4.47a81.486 81.486 0 0 0 2.58 2.069c.017.013.03.024.04.03l.01.01.004.001.001.001L16 16zM9.912 8.604a23.928 23.928 0 0 1-2.842-3.88c-.31-.527-.537-.962-.685-1.26a12.627 12.627 0 0 1-.206-.435v-.002.002l-1.38.59-1.378.59v.003a.666.666 0 0 1 .022.05l.054.118c.046.1.113.241.2.418.176.354.437.852.787 1.446a26.927 26.927 0 0 0 3.203 4.372l2.225-2.012z" mask="url(#g)"/></g><defs><filter id="b" x="-1" y="-1" width="17.289" height="17.617" filterUnits="userSpaceOnUse" color-interpolation-filters="sRGB"><feFlood flood-opacity="0" result="BackgroundImageFix"/><feBlend in="SourceGraphic" in2="BackgroundImageFix" result="shape"/><feGaussianBlur stdDeviation=".5" result="effect1_foregroundBlur_1184_349"/></filter><filter id="d" x="3.8" y="2.619" width="13.2" height="14.381" filterUnits="userSpaceOnUse" color-interpolation-filters="sRGB"><feFlood flood-opacity="0" result="BackgroundImageFix"/><feBlend in="SourceGraphic" in2="BackgroundImageFix" result="shape"/><feGaussianBlur stdDeviation=".5" result="effect1_foregroundBlur_1184_349"/></filter><clipPath id="a"><path fill="#fff" d="M0 0h16v16H0z"/></clipPath></defs></svg>