<svg width="16" height="16" fill="none" xmlns="http://www.w3.org/2000/svg"><g clip-path="url(#a)"><g filter="url(#b)"><path d="m2.387 12.34-.942-5.137a3.94 3.94 0 0 0 2.425.249 4.072 4.072 0 0 0 1.677-.797c.492-.392.895-.89 1.183-1.457h0L8 2.704l1.27 2.494h0a4.414 4.414 0 0 0 1.184 1.456 4.072 4.072 0 0 0 1.676.797 3.94 3.94 0 0 0 2.425-.249l-.942 5.137s0 0 0 0a1.34 1.34 0 0 1-.217.527l.82.573-.82-.573c-.104.15-.233.263-.372.338A10.473 10.473 0 0 1 8 14.5c-1.74 0-3.46-.442-5.024-1.296a1.103 1.103 0 0 1-.372-.338 1.34 1.34 0 0 1-.217-.526s0 0 0 0z" stroke="#fff" stroke-width="2" stroke-linecap="round" stroke-linejoin="round"/></g><path d="m2.387 12.34-.942-5.137a3.94 3.94 0 0 0 2.425.249 4.072 4.072 0 0 0 1.677-.797c.492-.392.895-.89 1.183-1.457h0L8 2.704l1.27 2.494h0a4.414 4.414 0 0 0 1.184 1.456 4.072 4.072 0 0 0 1.676.797 3.94 3.94 0 0 0 2.425-.249l-.942 5.137s0 0 0 0a1.34 1.34 0 0 1-.217.527l.82.573-.82-.573c-.104.15-.233.263-.372.338A10.473 10.473 0 0 1 8 14.5c-1.74 0-3.46-.442-5.024-1.296a1.103 1.103 0 0 1-.372-.338 1.34 1.34 0 0 1-.217-.526s0 0 0 0z" stroke="#fff" stroke-width="2" stroke-linecap="round" stroke-linejoin="round"/></g><defs><clipPath id="a"><path fill="#fff" d="M0 0h16v16H0z"/></clipPath><filter id="b" x="-1" y="-.5" width="18" height="17" filterUnits="userSpaceOnUse" color-interpolation-filters="sRGB"><feFlood flood-opacity="0" result="BackgroundImageFix"/><feBlend in="SourceGraphic" in2="BackgroundImageFix" result="shape"/><feGaussianBlur stdDeviation=".5" result="effect1_foregroundBlur_1184_334"/></filter></defs></svg>