<svg width="23" height="25" fill="none" xmlns="http://www.w3.org/2000/svg"><g filter="url(#a)"><path d="M9.86 16.432c.102 0 .19.04.264.12l.744.808a4.776 4.776 0 0 1-1.728 1.312c-.682.304-1.498.456-2.448.456-.842 0-1.605-.144-2.288-.432a5.102 5.102 0 0 1-1.736-1.216 5.488 5.488 0 0 1-1.112-1.864c-.256-.72-.384-1.512-.384-2.376 0-.864.136-1.656.408-2.376A5.49 5.49 0 0 1 2.74 9a5.233 5.233 0 0 1 1.792-1.216c.699-.288 1.467-.432 2.304-.432.832 0 1.566.136 2.2.408.64.267 1.195.624 1.664 1.072l-.616.872a.686.686 0 0 1-.152.152.4.4 0 0 1-.24.064c-.106 0-.23-.048-.368-.144a4.292 4.292 0 0 0-.52-.328 3.618 3.618 0 0 0-.792-.328c-.314-.101-.71-.152-1.184-.152-.55 0-1.053.096-1.512.288a3.269 3.269 0 0 0-1.184.84c-.33.368-.59.816-.776 1.344-.181.528-.272 1.128-.272 1.8 0 .677.096 1.283.288 1.816.192.528.456.976.792 1.344.336.363.73.64 1.184.832.454.192.942.288 1.464.288.32 0 .606-.016.856-.048.256-.037.49-.093.704-.168.214-.08.414-.179.6-.296.192-.117.382-.261.568-.432a.482.482 0 0 1 .32-.144zm10.39 0c.102 0 .19.04.265.12l.744.808a4.775 4.775 0 0 1-1.728 1.312c-.683.304-1.499.456-2.448.456-.843 0-1.605-.144-2.288-.432a5.103 5.103 0 0 1-1.736-1.216 5.488 5.488 0 0 1-1.112-1.864c-.256-.72-.384-1.512-.384-2.376 0-.864.136-1.656.408-2.376A5.49 5.49 0 0 1 13.13 9a5.233 5.233 0 0 1 1.792-1.216c.698-.288 1.467-.432 2.304-.432.832 0 1.565.136 2.2.408.64.267 1.195.624 1.664 1.072l-.616.872a.685.685 0 0 1-.152.152.4.4 0 0 1-.24.064c-.107 0-.23-.048-.368-.144a4.29 4.29 0 0 0-.52-.328 3.618 3.618 0 0 0-.792-.328c-.315-.101-.71-.152-1.184-.152-.55 0-1.053.096-1.512.288a3.269 3.269 0 0 0-1.184.84c-.33.368-.59.816-.776 1.344-.181.528-.272 1.128-.272 1.8 0 .677.096 1.283.288 1.816.192.528.456.976.792 1.344.336.363.73.64 1.184.832.453.192.941.288 1.464.288.32 0 .605-.016.856-.048.256-.037.49-.093.704-.168.213-.08.413-.179.6-.296.192-.117.381-.261.568-.432a.482.482 0 0 1 .32-.144z" fill="#fff"/></g><path d="M9.86 16.432c.102 0 .19.04.264.12l.744.808a4.776 4.776 0 0 1-1.728 1.312c-.682.304-1.498.456-2.448.456-.842 0-1.605-.144-2.288-.432a5.102 5.102 0 0 1-1.736-1.216 5.488 5.488 0 0 1-1.112-1.864c-.256-.72-.384-1.512-.384-2.376 0-.864.136-1.656.408-2.376A5.49 5.49 0 0 1 2.74 9a5.233 5.233 0 0 1 1.792-1.216c.699-.288 1.467-.432 2.304-.432.832 0 1.566.136 2.2.408.64.267 1.195.624 1.664 1.072l-.616.872a.686.686 0 0 1-.152.152.4.4 0 0 1-.24.064c-.106 0-.23-.048-.368-.144a4.292 4.292 0 0 0-.52-.328 3.618 3.618 0 0 0-.792-.328c-.314-.101-.71-.152-1.184-.152-.55 0-1.053.096-1.512.288a3.269 3.269 0 0 0-1.184.84c-.33.368-.59.816-.776 1.344-.181.528-.272 1.128-.272 1.8 0 .677.096 1.283.288 1.816.192.528.456.976.792 1.344.336.363.73.64 1.184.832.454.192.942.288 1.464.288.32 0 .606-.016.856-.048.256-.037.49-.093.704-.168.214-.08.414-.179.6-.296.192-.117.382-.261.568-.432a.482.482 0 0 1 .32-.144zm10.39 0c.102 0 .19.04.265.12l.744.808a4.775 4.775 0 0 1-1.728 1.312c-.683.304-1.499.456-2.448.456-.843 0-1.605-.144-2.288-.432a5.103 5.103 0 0 1-1.736-1.216 5.488 5.488 0 0 1-1.112-1.864c-.256-.72-.384-1.512-.384-2.376 0-.864.136-1.656.408-2.376A5.49 5.49 0 0 1 13.13 9a5.233 5.233 0 0 1 1.792-1.216c.698-.288 1.467-.432 2.304-.432.832 0 1.565.136 2.2.408.64.267 1.195.624 1.664 1.072l-.616.872a.685.685 0 0 1-.152.152.4.4 0 0 1-.24.064c-.107 0-.23-.048-.368-.144a4.29 4.29 0 0 0-.52-.328 3.618 3.618 0 0 0-.792-.328c-.315-.101-.71-.152-1.184-.152-.55 0-1.053.096-1.512.288a3.269 3.269 0 0 0-1.184.84c-.33.368-.59.816-.776 1.344-.181.528-.272 1.128-.272 1.8 0 .677.096 1.283.288 1.816.192.528.456.976.792 1.344.336.363.73.64 1.184.832.453.192.941.288 1.464.288.32 0 .605-.016.856-.048.256-.037.49-.093.704-.168.213-.08.413-.179.6-.296.192-.117.381-.261.568-.432a.482.482 0 0 1 .32-.144z" fill="#fff"/><defs><filter id="a" x=".172" y="6.352" width="22.086" height="13.776" filterUnits="userSpaceOnUse" color-interpolation-filters="sRGB"><feFlood flood-opacity="0" result="BackgroundImageFix"/><feBlend in="SourceGraphic" in2="BackgroundImageFix" result="shape"/><feGaussianBlur stdDeviation=".5" result="effect1_foregroundBlur_1184_325"/></filter></defs></svg>